<mxfile host="app.diagrams.net" agent="Mozilla/5.0 (Windows NT 10.0; Win64; x64) AppleWebKit/537.36 (KHTML, like Gecko) Chrome/128.0.0.0 Safari/537.36 OPR/114.0.0.0" version="24.8.2">
  <diagram name="Страница — 1" id="bmcSU9LmI6GfWrO_aoWZ">
    <mxGraphModel dx="2296" dy="1853" grid="1" gridSize="10" guides="1" tooltips="1" connect="1" arrows="1" fold="1" page="1" pageScale="1" pageWidth="827" pageHeight="1169" math="0" shadow="0">
      <root>
        <mxCell id="0" />
        <mxCell id="1" parent="0" />
        <mxCell id="BiONEzgEwyhmPc-SouFR-1" value="Пользователь&lt;div&gt;&lt;br&gt;&lt;/div&gt;" style="shape=umlActor;verticalLabelPosition=bottom;verticalAlign=top;html=1;outlineConnect=0;" vertex="1" parent="1">
          <mxGeometry x="360" y="20" width="30" height="60" as="geometry" />
        </mxCell>
        <mxCell id="BiONEzgEwyhmPc-SouFR-23" style="edgeStyle=orthogonalEdgeStyle;rounded=0;orthogonalLoop=1;jettySize=auto;html=1;" edge="1" parent="1" source="BiONEzgEwyhmPc-SouFR-2" target="BiONEzgEwyhmPc-SouFR-4">
          <mxGeometry relative="1" as="geometry" />
        </mxCell>
        <mxCell id="BiONEzgEwyhmPc-SouFR-24" style="edgeStyle=orthogonalEdgeStyle;rounded=0;orthogonalLoop=1;jettySize=auto;html=1;" edge="1" parent="1" source="BiONEzgEwyhmPc-SouFR-2" target="BiONEzgEwyhmPc-SouFR-6">
          <mxGeometry relative="1" as="geometry" />
        </mxCell>
        <mxCell id="BiONEzgEwyhmPc-SouFR-25" style="edgeStyle=orthogonalEdgeStyle;rounded=0;orthogonalLoop=1;jettySize=auto;html=1;" edge="1" parent="1" source="BiONEzgEwyhmPc-SouFR-2" target="BiONEzgEwyhmPc-SouFR-5">
          <mxGeometry relative="1" as="geometry" />
        </mxCell>
        <mxCell id="BiONEzgEwyhmPc-SouFR-2" value="Регистрация" style="ellipse;whiteSpace=wrap;html=1;" vertex="1" parent="1">
          <mxGeometry x="520" y="130" width="120" height="80" as="geometry" />
        </mxCell>
        <mxCell id="BiONEzgEwyhmPc-SouFR-4" value="Ввод логина" style="ellipse;whiteSpace=wrap;html=1;" vertex="1" parent="1">
          <mxGeometry x="380" y="230" width="120" height="80" as="geometry" />
        </mxCell>
        <mxCell id="BiONEzgEwyhmPc-SouFR-5" value="Ввод почты" style="ellipse;whiteSpace=wrap;html=1;" vertex="1" parent="1">
          <mxGeometry x="520" y="270" width="120" height="80" as="geometry" />
        </mxCell>
        <mxCell id="BiONEzgEwyhmPc-SouFR-6" value="Ввод пароля" style="ellipse;whiteSpace=wrap;html=1;" vertex="1" parent="1">
          <mxGeometry x="670" y="230" width="120" height="80" as="geometry" />
        </mxCell>
        <mxCell id="BiONEzgEwyhmPc-SouFR-17" style="edgeStyle=orthogonalEdgeStyle;rounded=0;orthogonalLoop=1;jettySize=auto;html=1;" edge="1" parent="1" source="BiONEzgEwyhmPc-SouFR-7" target="BiONEzgEwyhmPc-SouFR-9">
          <mxGeometry relative="1" as="geometry" />
        </mxCell>
        <mxCell id="BiONEzgEwyhmPc-SouFR-18" style="edgeStyle=orthogonalEdgeStyle;rounded=0;orthogonalLoop=1;jettySize=auto;html=1;" edge="1" parent="1" source="BiONEzgEwyhmPc-SouFR-7" target="BiONEzgEwyhmPc-SouFR-8">
          <mxGeometry relative="1" as="geometry" />
        </mxCell>
        <mxCell id="BiONEzgEwyhmPc-SouFR-7" value="Вход в учетную запись" style="ellipse;whiteSpace=wrap;html=1;" vertex="1" parent="1">
          <mxGeometry x="140" y="110" width="120" height="80" as="geometry" />
        </mxCell>
        <mxCell id="BiONEzgEwyhmPc-SouFR-8" value="Ввод почты" style="ellipse;whiteSpace=wrap;html=1;" vertex="1" parent="1">
          <mxGeometry x="30" y="230" width="120" height="80" as="geometry" />
        </mxCell>
        <mxCell id="BiONEzgEwyhmPc-SouFR-9" value="Ввод пароля" style="ellipse;whiteSpace=wrap;html=1;" vertex="1" parent="1">
          <mxGeometry x="240" y="230" width="120" height="80" as="geometry" />
        </mxCell>
        <mxCell id="BiONEzgEwyhmPc-SouFR-10" value="Выход из учетной записи" style="ellipse;whiteSpace=wrap;html=1;" vertex="1" parent="1">
          <mxGeometry x="100" y="10" width="120" height="80" as="geometry" />
        </mxCell>
        <mxCell id="BiONEzgEwyhmPc-SouFR-13" value="" style="endArrow=none;html=1;rounded=0;" edge="1" parent="1" source="BiONEzgEwyhmPc-SouFR-10" target="BiONEzgEwyhmPc-SouFR-1">
          <mxGeometry width="50" height="50" relative="1" as="geometry">
            <mxPoint x="270" y="250" as="sourcePoint" />
            <mxPoint x="320" y="200" as="targetPoint" />
          </mxGeometry>
        </mxCell>
        <mxCell id="BiONEzgEwyhmPc-SouFR-16" value="" style="endArrow=none;html=1;rounded=0;" edge="1" parent="1" source="BiONEzgEwyhmPc-SouFR-7" target="BiONEzgEwyhmPc-SouFR-1">
          <mxGeometry width="50" height="50" relative="1" as="geometry">
            <mxPoint x="290" y="160" as="sourcePoint" />
            <mxPoint x="430" y="160" as="targetPoint" />
          </mxGeometry>
        </mxCell>
        <mxCell id="BiONEzgEwyhmPc-SouFR-19" value="include" style="text;html=1;align=center;verticalAlign=middle;whiteSpace=wrap;rounded=0;" vertex="1" parent="1">
          <mxGeometry x="260" y="180" width="60" height="30" as="geometry" />
        </mxCell>
        <mxCell id="BiONEzgEwyhmPc-SouFR-21" value="include" style="text;html=1;align=center;verticalAlign=middle;whiteSpace=wrap;rounded=0;" vertex="1" parent="1">
          <mxGeometry x="60" y="180" width="60" height="30" as="geometry" />
        </mxCell>
        <mxCell id="BiONEzgEwyhmPc-SouFR-22" value="" style="endArrow=none;html=1;rounded=0;" edge="1" parent="1" source="BiONEzgEwyhmPc-SouFR-2" target="BiONEzgEwyhmPc-SouFR-1">
          <mxGeometry width="50" height="50" relative="1" as="geometry">
            <mxPoint x="256" y="134" as="sourcePoint" />
            <mxPoint x="370" y="69" as="targetPoint" />
          </mxGeometry>
        </mxCell>
        <mxCell id="BiONEzgEwyhmPc-SouFR-26" value="include" style="text;html=1;align=center;verticalAlign=middle;whiteSpace=wrap;rounded=0;" vertex="1" parent="1">
          <mxGeometry x="430" y="135" width="60" height="30" as="geometry" />
        </mxCell>
        <mxCell id="BiONEzgEwyhmPc-SouFR-27" value="include" style="text;html=1;align=center;verticalAlign=middle;whiteSpace=wrap;rounded=0;" vertex="1" parent="1">
          <mxGeometry x="580" y="220" width="60" height="30" as="geometry" />
        </mxCell>
        <mxCell id="BiONEzgEwyhmPc-SouFR-28" value="include" style="text;html=1;align=center;verticalAlign=middle;whiteSpace=wrap;rounded=0;" vertex="1" parent="1">
          <mxGeometry x="680" y="130" width="60" height="30" as="geometry" />
        </mxCell>
        <mxCell id="BiONEzgEwyhmPc-SouFR-30" value="Зайти как создатель очереди" style="ellipse;whiteSpace=wrap;html=1;" vertex="1" parent="1">
          <mxGeometry x="820" width="120" height="80" as="geometry" />
        </mxCell>
        <mxCell id="BiONEzgEwyhmPc-SouFR-31" value="" style="endArrow=none;html=1;rounded=0;entryX=1;entryY=0.3333333333333333;entryDx=0;entryDy=0;entryPerimeter=0;" edge="1" parent="1" source="BiONEzgEwyhmPc-SouFR-30" target="BiONEzgEwyhmPc-SouFR-1">
          <mxGeometry width="50" height="50" relative="1" as="geometry">
            <mxPoint x="545" y="154" as="sourcePoint" />
            <mxPoint x="400" y="69" as="targetPoint" />
          </mxGeometry>
        </mxCell>
        <mxCell id="BiONEzgEwyhmPc-SouFR-39" style="edgeStyle=orthogonalEdgeStyle;rounded=0;orthogonalLoop=1;jettySize=auto;html=1;" edge="1" parent="1" source="BiONEzgEwyhmPc-SouFR-32" target="BiONEzgEwyhmPc-SouFR-36">
          <mxGeometry relative="1" as="geometry" />
        </mxCell>
        <mxCell id="BiONEzgEwyhmPc-SouFR-40" style="edgeStyle=orthogonalEdgeStyle;rounded=0;orthogonalLoop=1;jettySize=auto;html=1;" edge="1" parent="1" source="BiONEzgEwyhmPc-SouFR-32" target="BiONEzgEwyhmPc-SouFR-37">
          <mxGeometry relative="1" as="geometry" />
        </mxCell>
        <mxCell id="BiONEzgEwyhmPc-SouFR-32" value="Создать очередь" style="ellipse;whiteSpace=wrap;html=1;align=center;" vertex="1" parent="1">
          <mxGeometry x="1040" y="70" width="180" height="120" as="geometry" />
        </mxCell>
        <mxCell id="BiONEzgEwyhmPc-SouFR-34" value="" style="shape=image;verticalLabelPosition=bottom;labelBackgroundColor=default;verticalAlign=top;aspect=fixed;imageAspect=0;image=data:image/png,iVBORw0KGgoAAAANSUhEUgAAAbEAAAFGCAIAAABrJTZHAAAgAElEQVR4Ae29WbdbxdXur0/EcMfN+hpxg5tw7uoLnAPGOBiR5H+ua5yREDCmSYDwnss3QNE3JhhsQyA0BuOiNQFDgECacz3/o+rRevbcVUtra8t7a6uZDA1R0palpblUv/XMpmYNxP4zC5gFzAI7bYHBUPRtBw9nsIOfbR9tFjALmAVEEg1FfhD5u8jXIl+KfJ6f2RnbGBN3xu72qWYBswAsoIB4DUAU+UQk7hQWjYn2yzQLmAV2zAIZfN9rhZiBeEXkssilHcGiMXHHfg32wWYBs0Cm3t9FrolcFflc5GORERBF3jUm2i/ELGAWWCELtEAcxRBbhfihyCWRd0XeMiau0K/BvqpZwCyQkbcuhihCIL4t8qbIhdlj0Xxn+2WaBcwCO2OBzLuUZW4VYoohirwnAiBenD0QUxJ8Z4xhn2oWMAuYBUZVOOtiiCJvZYV4UeS8MdF+I2YBs8BqWSBT74pymXcYiKYTV+v3Z9/WLDCHFshYRFJlFEMUuSDy+o6IRGPiHP5C7JDMAitnAazq0y7zTgHRmLhyPz77wmaBubUA1zvv7BFajmVn7W+fbhYwC4ws0KrFHTaIMXGHT4B9vFnALAALGBPtl2AWMAuYBdYsYExcs4WNzAJmAbOAMdF+A2YBs8BqWQDUu8777TaZxRO328L2/mYBs8DIAtdJw9kISWOi/V7NAmaBubDAbJC34Vc1Jm5oInuBWcAsMAsLGBNnYWX7DLOAWWBRLGBMXJQzZcdpFjALzMICxsRZWNk+wyxgFlgUCxgTF+VM2XGaBcwC224BAHEesGg5lm0/2fYBZgGzQL8FNBB3HIvGxP6TZX81C5gFttcCBCI+pni4vZ/d9e7GxC6r2HNmAbPATCzQScDOJ2dyOOlDjIkzM7V9kFnALLDOAj3s6/nTurfYhgfGxG0wqr2lWcAssJEFNqTehi/Y6BOm/LsxcUrD2T8zC5gFprbAhLyb8GVTH0bnPzQmdprFnjQLmAW2ywKbIt2mXrwlR2xM3BIz2puYBcwCE1lgCsZN8U8mOpQxLzImjjGMPW0WMAtstQWmptvU/3CKb2BMnMJo9k/MAmaBTVvgOrl2nf988sM1Jk5uK3ulWcAsML0FALXp/73I9b/DJJ9uTJzESvYas4BZYC4sMBhu+2EYE7fdxPYBZgGzwAJZwJi4QCfLDtUsMGsLxOBc0zSNcyHO+rN36POMiTtkePtYs8D8WyC4xgUcZjuMUbMx1g/1M+2f0//zf6OvrF8j6/+m350G4uvrv/JPIpL+qh+ve7TuCOr34WfZeuc1U9jILGAWWGeB6J3X9Ehc9CHfR5HonQsheNe+KPr0Zw+ORu8aP/pz/l/+p1Fk/ZtI9A1el+mb3mIE4fZI1OvTW6bjCQ4vUn/Kx9Pkz1h7lTra4tjaDxuUn2Y9IFq72//NAmaBygJhxKDRH1oUJayNWBlDcHSr8XdiLcbgffK802uJ1xHHQkgsBMkyl/iPk5/uPT11/aHJh0/EHD1XvBU/GIe3/q98+/QG+ZUJ6WsyWH13852VMWxoFjALaAuswS9BrRmMUKifjkRR9Bpy7WtGMNRM9K23nH3dkTJcB60sJqEX2/cBiGPwznv+k0a/FQ8E/yTf85PWHVvSpo3za4euv7P5zuusYQ/MAmaBdRYILum2pPYyQ5LzPHKOs9ebH7UoHIxeOmhcSLzJry114to/Sy53Ii1cbzIxv8lIEKZDwUvaD80HN9KJ698qPRqow1N/dQnn+BrtsWWnmRRd95VNJ64zhz0wC5gFprJAyylQbORaT/VO0/6jbsKld9vcsRkTpz0D9u/MAmaBebJACl/qjNC0x2ZMnNZy9u/MAmaBZbSAMXEZz6p9J7OAWWBaCxgTp7Wc/TuzgFlgGS1gTFzGs2rfySxgFpjWAsbEaS1n/84sYBZYRgsYE5fxrNp3MguYBaa1gDFxWsvZvzMLmAWW0QLGxGU8q/adZmIBdsO/zsFMDtY+ZFILGBMntZS9bsUtUIPvnyI/ieD+RxHc/iHC2w8iuH0vgtt3Irj9XeRbkW/yrX7nFTf1zn59Y+LO2t8+fd4tQGD9W+Rf7e2fGYWg4U8VDTUKf8g0/K69/3tmIoH4rci1fPsm33/d3vNDZ9Bqf95PwMyPz5g4c5PbB869BTSS/iUCGv4zA7HQhj9lqfiPjMV/ZFWI++/zuJaH3yp5eC2LxGsiROFXIrj9LQ/+JvJluzGTwXFmvxpj4sxMbR+0ABYADf/TcrCfhj9mNxn3P+QxVGGhDb8T+Xu+wVmGNiyE4VeZjGTil5mGV0V4+8LgOKufjzFxVpa2z5ljC1AY/jvTsMdNpqcMFCJ0qJ3lIm4IIGp5CBpCHn69HoV/E8Hty5aGX4jg9rkIbp+1cJxjcy72oRkTF/v82dFfpwW0MNw+eQiF2Oksf638ZTjL0IZfZCx+kVGI+8/y+DORT0WMjNd53nv+uTGxxzj2p2W2wPbRkJ4yM8s9NKQw1NrwapaHn7f3BQ0/Ffkk3z42zbgNv1Bj4jYY1d5y7i0wGMp/ZHQb5y8jf6Kd5Un8ZeSUO53l2l8GEK+ujx52+sufZW34aRaJBOLHeau6mMk49yZfmAM0Ji7MqbID3RILUB7CUwYQUWRTZJZRb/hTW2+4YS6F8hBVh4gb9uRS4CkznbKhs6zlIWl4JWPxignGLflx5DcxJm6dLe2d5t4Cg2EqrIFC7JSHrMHW8rAnkfL9+hpsyMPOkkOdWWbcEP7yJDSsgUgafiRyReQjkcsmGLfiF2hM3Aor2nvMvQUoD5FT7imy+VGVHP7YlhwWVYeswWZamdqwJ638lUorf9kmlK+2CeXORAqdZQhD3HfSEEz80ATjdf8UjYnXbUJ7g0WwABTihEU2k8QNScPJEyl0lplZrutsdNyQ2jCK0FmOWRVeabUhUHg5i8QPRXD7wATjdfwmjYnXYTz7pwtiAQBxwxUpQGFn3PCH7COj9hBxQ70+DyIRLnOdSIE8ZFoZOeVxRTaos/mkzaV8nGnYA0TKw8sZiB+095cMi9P+OI2J01rO/t2CWGAwTOuUe5xlhA65Po/RQ67Po6dcrFamm1ysz0PJYVGADWdZK0Rdhl3Lw5qDH+WgYS0ML4t8kG8filzKtw/y/fuGxal+osbEqcw28T9CGGs77ic+hJV+IRUiM8to31DX2WzYzIZpZTrLZCKWo9SLUnpyylyUomnIIhs4y3CQY0Yhsig1EOksA4tg4iWR99ubLZTe7AQwJm7WYt2vH0e9YgYW2Uwdt0IUv3OVGJObeuXsuE/sPr6VfJZALIpscBYKedizYBnyUJcc6hpsorBTHsJT3rAGG6FDeMqxrToEE3toqD1lakMA8T0R3N41tbjJH78xcZMGyy+vefSvtnkUB6jqYHM9CBNCkANMRZ3WZAcBumxAoQbiN1V7FdbB1ce2mkoBLvN10lAnUrZjfR7Typ+ouGF/WrmIG46Th++KvCvyTr6t5g9gmomN2T31v1ypf1iAhvEpEJB+GcBXtNWjHtERqwKFOnRVoFC7bPTadAUcg/oYoLeKXkX7VVYK/AorcuLIRJYcosgGVyPc92hDfQWakIbwlKcrOYQ23BQNL+UYIlQhnWVqQwDxr5mJfzWpuJkfvenEbmuRIBiwvrco5qAqLHxkTr+6/TLnYe0m1z5y50IxhrF0aJ8hLfab0tVwevVY8dW6v/+CPzsYpvbXvDhRpFOe60hF3eVQX4cmySmzBlunUJBZ7owbak+ZuZTCU+4MHUIVwk1G6JBxw/ezs6zl4V9FcHvbmLiZ37MxcZ21yAtAkI1SCmFIj0x3GGWskINCGGoaUhiSgxjozCYDWNQpRRiLChFrJBjP0jSEbKF44ZIJ1oLwK68zxCI/GAzTlgC1POTeADwRPAu1NmcNtq6woRLXMlxXHdK8Pe0b6qrD7ZOHb2csvi3ylmFx4p+0MTGZilzoR2GPj0wlgvQl9QimH8OFnIQgIHvtTYjCQhhuiEItWxjm53T9PLcVYM8VGmHRw09kYiHSC2GOkkPQsLA/tSGjtJ00rK83hTaEhVFyyNChTqRsCQ0LbfhOy8G/ioCGxsSJeZhpsKlXL9OLNQKKNbCFKtQo1B6ZdpAhCQsUYhKCg8icEIXcq0jHrcZlTnpQyFb1Wq1QFZKJ4CBnLDioZyy68mHefqouEot4xjUTKdULIOJqdCG4m5vmxsbdHCJVOYGotwRAaEJvCYDoIYQhrzewMC8zRZ0N3ORxzvLlds3yh+2ilJ60svaUi9Ch1oag4V9MJ27md7yKOhE0/H/rewHUbjLwx4hh4Y4RiLUw1K5ZIQzpo1GYMGJIIG4qf1J33yMHMVHJQU5XPWMLCUO3jloGttrML2rnXzsYllvo8eJEYZ4uTsHtcwHXpMdc8/OQdtG7JvG1mAYJgjGN13JWMZ6L8dWY9kjJRo6vxDhylmM8i1uS3lGjsDVpfCFKTqRELM5D1WFu3xCfial9Qw4gxg9FnonpPgMxPh1TGfaozibGp2IMEUU2kWllCMNx8hBA/IvIm+Y+T/bbXC0mYoazLQq7RUEYMn9ShwtZUkMUQhIWwnByH7kThVQoFIZ02XRXFYYLGdpvZ2nqU08mam2IWUpnGSiENuQyMl0OotOgaM+3KA71YJi2EsV5YeCCVyZek74TueDdr+LahqLJ+ImS/tF8/4h3x0JI9z5meRiHjRsGf7Rxvxc5691eHx4K/ojzZ0XOhnDKNUd8eDDKS745HFIfbBr24+B2O39/vj/pmpNRrkg45EJal5KfPJ3vnxF5xje7nb83+IONfzq4Xc7fk+9DWpcSjzfuePAHGne3yBO+2R9GKZRJaGhMnIyH6VWrwkTQsNNH1qu+tCqkmwwOFpmTYtZxc6LCR4azzC19NQpJQA7grIGDiOKzHpjZ5NpHhh7UqpCdBbSPzJ712k3mwgkKQ6oYDNCHCmXDC6EZwUQt1VnvyXOBtPJjrvlVloTMXD3i3KN5N9GHXXNXlK9ieNi5oyEx8UsJR124KomMv08tbeLZ4O90bk+TmPi5yMve3RETCl/yzZ7GHfb+/jhq3HDGuTO5DPuMa3Y3zaGwxsT7XHPQh9Mh3N40J2Ji4sGQVOE9+ZUHfPhdCLc1zfEo70s44MK7Em9t3G9FHvfNrsbt9/43MQUNcXsr+8hvifwl397M2vAvIm/km+nECbG4/EykNuzPn1Abah+ZHMSgdpNZ0gGnjNNP6xHMwE4acjaSg53CkGEsCkOIQXIQA5R90FnW2hCBQtIQKOwUhoz6c/kEBui88tHchxrJxNpf1qHblMoPbp+PyKK85t1dQR7JKPxa5GHXDKP8TeK56Pe6kGR49Ht9vCrxzsY9JPKQa05F+VziKedfzqkqMPFTkRezTvxEwk3NGgqzNpT7XHN7jPd5d7v3u124LHLaNSdifCbfnhZ5OjPxUmbiroTCGPLtSZF3o9/lI5j4m8zE/UHelrC/cb/JKNShQ6hCMPHNlolvmO88GRSXmYlaGwKIE/rIICCBOGH+BGKQYoQzEDTsCRcigFgLwxqFG/rI8I5ZE6d9ZOY9NQoR7+e6Wgy0NiQKsXyC4X/06ZvsNzbTVw2GQs2Oc4H7zpLDP7pmn3PH0r0/J/JV9McaN/Rurwuv+mav80PXtCgc7G3cEef2DJojIZ71zR7nT2Wd+FJm4ktZJ34q8kLWiTe5ZrcLowtM9Icad9I7cDDHDcPBzMQPo9/duBPpT/6pzMRB4457t8uFS9HvGo39E0keDpIwdG7XoNkf4uO+uaFxP3PNDS4U8pBAfCPrxDdELmYsXjQmTvZLXFomYsONGoV15kT7yHW4kD4y3TFOuU5VOB0KGS7UHKQqBArhEVMbXk+4cFMoBA3JRCRDkQSYwyAjmUipTp2uL0vjimxgf/ZugLWvSjjiwqiGKfrDPuqUfZtFSZ6yzinr4AMKsHHP60qdVg6+ORBS+4b3cgeH99bW54X9LozihtHv91EX2SCL8lbrKcNZ1vLwYsaiMXEyJC5jPJHyEIFCZk4YKyQE4SaztLAoZ6sbpQCCcJOZwWRVDVPJqOrgOjxMv7r0tzNWyF57elqSgwwU0kFm2oS5TjrImKu419OV+RO9cIKeMuYt5GEnDYulFHMYZBwMhWq9kIcMVhR1Np0lTZsqwKaFGXzQWwJsSMP3c3evEPzxUVo5rVaesMgGwhD3tTa8kIF4QeS86cTJoLhsOpGtUCapMQQEO31kRKN0uJDxqdpHpjYEB0lDzEBKEs7Dwk3W2lCvmW1FSkolE4Ic1CU1pOFaxrNVLrV+AQTpLFPI6NlbaEO2G+AAC8vmrX3pYCj6jBSnAxFbxm1xLuqSpkmAqDNUvNJMIQ8BRMpD0nDyIhsD4mS4m+hVy8NECJYeFOrFXtP5yFobFqqQfhkIqFPJG6Kw4OB0KCQHpw4XUhViAPDBR0Z9XI1CLrZ9r829TPSj2+YXDYYCeciTgosThPm1do950LAW5pPQkP4ydwW4HnkIM8JTJhDZvmFcDfbk8vC8yAUTiRP/6paKiVhwAh9Ze8o9PjILDCkJqQd7fGSGqKhBCEH6yEwl1z6yLjDU3RlIQ/jIlITMmdBT1rXWtY9MVQjNslkfmRwkBHuaDuiZPCfhxcEwFV3j1GhnuT4R3F6ZRZ06OsHEvc7ab7k2nGJFymZpeMGYODEQl6c+kY2hWFLD7gx1uXVnSU1dbl34yBSGrKohEKf2kQnEzeZPuAivqKohDSlbxvnI3NWIg3btxKiRPZZPkIb07+jisS3VO23k6525ESPAYnF90okslnkyf8UABS9FYCIjElobwlOuLznYHkBHY/v7YOsrCnodwl9mP5vOwkMwEaU2qD1Echm5FBDwfA4gcjwnl6vNoGnHXrsMOhGNoSgM6SMzUMgBVziAgIAjMyccMGWJsBTuOzMnlIf0yyhGOKjDhVOjEPNzHAcxRRnYGldSM7WPrJOhCP9zeRkcPcznOZl+g2Fan8c6J3rKX6UCbK7PG8VqKQ8pyWFqGlynqj5ud85T6/NG2yvraKy+xqytz2t3SsGl5b227WuBwqJ9g16fN0noEM4ygfj63Fyrdoxzm/nghWciO+UV2WQdMWSTKEJwnKdc0FBnLakKGTEsZAggqOcefGRMQnKQ5dYQJp1uMn1kZpMLYQg9SFVIGtJN1nlkTFTqQWZOCglDSVjv6UH/jrqGokZPZqqbecAimKjX/zCRgnPBdZCsaqqX/cDszCnzeqNzUzQv7KkjD9wxiskofV3R+lqbsa6z2VAYXszesdaGSDS/bunmzdAQr11sJgKIEIa1j4xYIYG4qVQyHORJyq2pBznQwnBnawzpymG6koa6xpDzlr2aOeAEBgr1HAb+MJPh30HaYD7PSbe+wXDUwUEnUnTQdlRymIuui5JDesoEIsIR3DHqSu5eU1i4BmLR+VVfVMZlUd7OK/NQif1mu1APRTaoOmQNtq6zKbTheZHX8+01E4mbxOLCM1FXF8JHrsOFLLdG2kT7yBSGdbhQx+kZqmclhy7mYD0Hkyf0zhiuYjYT4aoiaEVhqJMn159Kvk4UIgdKBxkEhEIkATl4S626/ct8zMPBUHh90kuAOj1lxg3RvkGn7yeMGyIlpeU2g7C8uui0MpjIKwogWC/Ro7OM0CELsOEaQw8SiJCKAOJrIgbETfIwvXzhmUgfuViBx4ghCLgumxzcjalrXmqc96tY1rKxj57OnDAsVaNQl/vWqpAJTTpoiFgBglqbcE7CX2N+k9UedJAx0OFCuG9as9BTpoMMCVNkTmoVw8wJZy/dZLrGHGA+UxtyQcWcMBHdgjUNi0QKazx5KeJ1qJCHTFXR1AzLbhg3fD/noPSlhfp6s3HDN7KPDCwSfwUcCUQLI04BxCVhIn1khgspDAlEXVr4fXA3B6Aw/rpxj+W6jW8lnmfnqNQ4Lz1sy61T47y2tiYifXku9U2Jr+KWYvaR2jBzMHXWeyVGNQnj2dQ1IPXXezn12ks9VNpAfnqmLamJpGEOF0YEDRHAihKfS52mUkS/DWlF4O/Z3IPvsoya8eUZG59ut0L/IMYPJGog5ghX6seXYoVoNBDjE2lV2agxH+bwhj4ydQ3zAAx+zUNUEVikSO9xltebPfU6ZO5+ihUpTKEw7ECVDQ5uSMM6rVx4ylobwk1+PQtDyEMD4nRAXGwmslMelySTibWPTCYmHzkzMccKw88bf17kW9U477zEuxp3V0jtAB4Rec27fT48HPyx3CbgnG+OBXnYuWGUV0MYuuaoD7+P8mffHA25e8og9ZJ6JXcQeDD4I+glFdwe5x/EvW/2+PCAd3tcyK2lXHoY/GHnX8wdBG4KEiWedP55ked8ai0Vo989cGdylz3cP5uDWZdFns0vOO3ciSiXVTO+p3MzvkHjnxa5lP55c8A1eS1tPJ7bDQTvdqVWVP6A83eHcKtr9vvw27iuMd/j3t0SU5M+lg2DgCwQQU8q3ZyKXarmqgvLYJgWAjFewUgFtXkNRO0vQ4Azl8KwbGf0kAXYOnTIgEMhsce1b+hcrcw8sqYh1CJDh6+1YcQ5uSBNDaYd/IcL7DuzK5RGofaREStkW5S19V7BDQbNvqb5ufN/jKlc44+u+bkPj4ZwV9PcFcMxF65lMj6c+i3Hc8EPndvbpNYp53wzaBL+4JH92Sc4Xk1NRpujIQ6dO9K4B/PDIyGpwgdzU6kHXXryM5EHXHPYrTExa8P4YvB35A4rL4g875vdPpwJ/qY1JsaTzh1q3CHXHGp77d2eVWHqyZyP52CQD0Xude60YNDcFlPjqd2NOxDkKe8OOHfANYRgyHrwyeBvdW5X459IPUrdrRl/ujHfnxQTi3AhJjMJyIFOBczVtMQyp05nuQ4d6ujEZp1lHXwgCqd2lpFQ7k8rUx5SLc6V5XeQbtN99GIzUaeStTYcV249ihUGh0bzrKp5NDXOSw7yueQ1+30+fp27hz6iWukNnX9V5FWfhCEai15NetDdGZMAScKwcXfGeCr31zvrmyO52XLLxOaOKJ9mRB52zeEQX4zhcJOE4f2u+UVqPqqFYXw+hpPOP5dl4O7GnYzx9szE22N8Fu32MvvAxIM+nGjcvaNmfKOOpGDigRAOuKQE70lYbA6E+GQMx51/UuRu19wa5R2Jtzr/eOrHN5KEj+cGzm9L+FnjbslPUhtqDkIbsmspHT0KnPnswjIYprPAG2nIAMX10JD+MhP04zLLsB5tyCzK5GllFNl00tCAOB0K+a8Wnok9KKQwLFaeXAvu2GjzjSQSU2Vv9Psad1dqnOeONYN9jTvm3N5Bkn7nRn30kk58RZSPnLouj5j4eRaGg9ROKjEROnHQuFPZQU7x++gPN+6O/PBF9GF2zR4XYnaWdzt/0rndzZqz/FFGJJg4SI32EhNPq157z2QmfpB1YurMHD067h1s3G25+977Ik/lxlO/c4MDQcKIiZKakmYIPuGbXc7f4twNzRoT387NStmY778zE4lCDjpRqOczllXM5+SEYAQNdf6qcJY716LoPFW92bxO08+ehpZiJtSuc7DATET4nIFCtocqUMiSGqpCnURmHrld+JUc51EBR/RHfcqc6HJrRutZUsMola745aYcWpJQleipyKq39ZmTtGlRu29RGqDpHgbjqgs5SzFg/YcObNWZE4YLGfWHm0wCctCPQl00N/8dBwbDtV6HBQ3pLNPmbHRY1NkUocMiQQ97MvZKMzLOQHE9eZENvWMmUiAV57Bj23WCaQf/+cIzUbvJrDHU6/CKXgAjYYiN2fI9iml6agxZT0MgMn2pl4Ixcv+pyEvBw1muazuKpbKckAzkM5aPAVuQsqqmqIPDRGUpHCcqF5/UVSBaxRT5EwIRU1fnT1A/TO+YA5SGQBsiDzCfjnMxzcAR2l+v/KkrmdgOgwXttDMvOczRg4O8xjA1b85ycQrm8+EyMJEopI9MbVjUGG7YtoutAbgCDxxkSY2moRaG0IM6j6kXQvQIQ9Z5UJ4QhZqGhTbkFMXM1BMVMX5MVB3YIge3XBgyD6BTAfPpONeTEGQsPOXLbQ3Th3l5MqyNqw5N3WnhybXhm23va5Qcos6ms+TQQof1WdvWZxabiXCfixV49JHb6sJRLwCuveNAL3JgdSGc5clRyDLDtsAwbWLJil8uSWaxW+EjE4XUJhzoYmCIwQlRyHJrKheWgHAAVw4ShiF/LWRYZqhTyXCQ2YUFM1mjkGUii8JEzC6QEUq80OMoaycKqb7pKTO5TMWttbY2KZR1oa9hvaLOhnDUzjLH5ikbE/ssMBiu26JXL8Jrq6zz/uW5k6hu0ICOALUwhCTsbM3ASg7NQShEFLj1l7mRhnSTKU8YMeS0BP4Iwc5IFhOddN+0mwz8EYKdEgYzFm5yEefi1K27UelprCfzggKRPy+wZjAc7TFfBCVqAQ7bos6m07yFSQtLjqvBvtDWGJ6varCNhjxZ2zdYeJ0IqTihj6zX4RXCECgkEPVSPBBQhwvJRIYLqQ0LYYhwlVp2stZUij5yLQx1fpM01L7bhPkTHdhiSQ3DW1x5MmHyBChkkz5qGaIQfFwshdg5tQhHyENYm+p7UytSuGMUnGVgkTTEamXYjSuXqQdRgM2D6TxUe3LLLbAMTAQW4RFTGyKP3JM5oY/MzEmRSp4EhfCRyUEQkB2loAchDwE+cJALIZhHrjObFCk6eUIUcn5SGNaahcqlKLcmCuEdj/ORmUcmCjsloZ7Py7eejDyiwRmW3ZSnTGOShryi0KpF3JAfveVz3t6w3wJLwkSNRe0g6w6GFIbMn1AVkoZs0EBV2C5JXlfoW6tC0vB6Ohiy82gdw9JuMjMnjGTRfaOnzBIQRgzrWpCChvTsGC7ckIac2BgsgUIcN1tIKA5o4dqwUxTZ8G05GHck9vx2W2B5mEgskoM6YsgaQwQKSUNAsKgxpGvMdik6aFjkT9ruDGzKsDbQ2lMzpXcAACAASURBVBCBQirEIo+saTiFjwxJSCD2509YUlOH/IFFhgs5APIoCbW0obpZYiB2TkLCa9wAlxbcj3sNn+/8CHtyRyywVEwEFtlOWZdb1yhkU4BJfGQKQ1bVTIjCInmyIQpZ9UZhSK+NqlC7b/TgqAfrcCH1IAYAH1MoOpUM2BUoLMKFbFbKga2g6Jy65N2qXS06rbFATy4bE4HFwXDdhhtUheRgp4/M6kKqwk+r/ZGLiuu2YVfKnPBWZJNZ26HbqDBzgih+UeoxLo98nT5y7dNpN5koZLBfC0PtJuskAGb+Av3i7VDNAv0WWEIm4gujPRSXoGgfuRaG9JHrPHKPMGS5tfaR6R2Py5+wvKYot9alHsic4L4/ecJSONYY6voPKkTUGNI1ZsgfHCQNCT5NQyASPjL7lVoP5/55ZX9dXAssLRMpGOuVJwwXcrApFFIb1ijEM9SDHFTNXGWcMGT+pBOFiBtumEfeKh+Z3nGBQuSXzSVc3GlvR95jgWVmIr42nDvoRCaRtZvMcmuU1OB+XGsGLjvZsLoQ3jF9ZJ05YdCQPrJGoY4bIlzYiUKd7uRORkybFOFCFhVyQAe5DheCgNCMaDHAe6Nhz1yyPy2HBZafiZqM9JG5GJnJk7rGkHpwOh+ZqeTaR+b6MFYXag4iaFiXW9NNhnfMRWNFHplucmdrBqaM61QyIchUMtvz6eLh5fjd27cwC4yzwKowEd8fmrFYgUcajtOGW+Ij95dbk4k1ClkH149C5k+mRiGZiFih7kZliZRx88eeXz4LrBYTNRkHw7QPEWut60V4aF+oV57ocCGzyTpWyCQyBuTg1D4yMydUhTqFsmF3hklUIYOGEIPc0INussUNl2/a2zfqscAqMpHmgPwZDNeqrDvd5LrcmkvxsOBkwnV4EIOsp9mUj8wM8rj8CVPJ4CBSyZB+OmKIMTlYJE+0j2wo5O/EBitlgZVmIs804ai1YY1CrQ03DBdSGzJoyFrrYtkJqqxZdK13SQYBCUQtDLlMAgPdtov5k86SmjpciHpDGoFmsYFZYAUtYExcd9LJBZYZTrjyhMtOJkfhZlfgIZWsw4WsLixUoRaGrC6sUWiqcN25twdmgWwBY2L3D4FwxIAlNXCWkUrWJTU1CuEa01PWi/AoCVlPg3ChjhUyZ8KqmnrNCWutKQw1Dek4c9mJ3ruDX7D7+9uzZoFVtYAxcaIzT4JgAFVIbcglyZOsPOnMI0/iI7O0kINOFPJJCsPi4Cf6wvYis8CqWsCYOM2ZLyiDhwgXFsKws9y67mDIzAnl4XQ+cueBTfMN7d+YBVbVAsbELTvznTzik3ST4SAXwlA7yBv6yHzPerBlX8beaKstYCdrqy26Xe9nTNwuyxbvW0+JqZ8p3tke7ogFNnv6/iHyD5Ef2tv3Ipt9hx35miv4ocbEFTzp9pU3YYFx5PqnyE8i/8y3n0R+zDcO/pEfkoMcfC/yfcYiBt/lh9+LfCfSuSXvNyLch3LckWziy9hLJ7CAMXECI9lLVskCBXr+lan3LxEMfmpRiIFGIcD3Y9aDkISbQuG3knag/DZDUKOw3pIXW61xj43igFfpXG3LdzUmbotZ7U0XyAIFU/6d8QcIgoMQg5SEpCFVIcgIApKGdJN/aMUg9CDuv2u1IXYn76ThNRHesAUbtyYHFrHNBvfjRWP54uss0ImYk0M1Js7JibDDmKkFNDj+LQIOkobA34bCEJJQC8MfVNCw8JHhJgOF8JRJw29aeQgCQhhiB0o8Q0k4xT6U+pvO1MQL+2HGxIU9dXbgm7cAAfGfzEGiEIN/tgoRsUKEC7UqhDC8Th95ahT27E4+4XZD/Pq2mL3nt2NM7DGO/WkZLKBBMAkKtY/8Y44eEoXaR64lIX3kQhJqVUhJyMxJoQrpHXPQj0LursH9eDH4TKSnj/KnKuu9DOd4S7+DMXFLzWlvNk8WAA3JQQwQKNzQTdbJE3rHGCBQiLhhnUcmEDvzyEih1D7y1zl0WPjIelfeendyrQ31dkPcmhwDbLiGxvJsKc9WytHgWP1ijYmVSeyJBbcAheG/RQjEfylnuU4lUxvWKKQ27Echa2v6UciEck+4UKMQ+RPuTo4dKKkNaxRqbciu8txu6GMR0LBz5zXYbcFP/hYcvjFxC4xobzEnFqAw7EShDhfW1YWMGzJzQlXIkhp4x4WPXOeRETEE/gofGXoQQIQqLHxkAJGqEKlkopCb8XIAMUhtCA7W2w19nHflxX3RR/lK3oYX9x+1snFOTuiOHIYxcUfMbh+6xRYADZFB3pSPzHoaBg2LcmvGDbWbjPQxafj3XHHN5AlrDKfwkSkMIQa5NTkGtTBE3JAQ5EBrQ+6uwcby2GaDHMRA77GxyprRmLjFk9PebsYWoDbUJTU6XMgaQ73sBAQkEMFBxg3JQQrDQhsWJTUUhpqGRfIE2rAot/6biK4x7PGRa2HIcCG35MXOa7inJCQQx203xK0oubUGB6tJRmPijKewfdxWWmAwTKWFdUkN3GRGCTmYMFxYoLBQhcwjj0MhaKjd5AKF5GBRbq3TJnUemZIQYpAopCTUmROgEHtPwlmmj1yrQnRQJgo/EOHuGh9kb3orz9ncv5cxce5PkR1glwXoLCN50rnsBCFC3gOIzJlw2YluzUA9CE+Z3jGwOM5HZtAQzjLDhZ2xwr+JFChkzgRMJA3hKTNWSAjSQe4UhnCQyUFuyUtPmduuEYLsKv9hpiGYqDcoXynBaEzsmnD23HxbYDBMq481DXX+BBBEFmVLhGGRSp6ixrDwkZE5wb3WhnW4sDOPrFFY5JGZP9EoJA2L7YbIRKBQbzcELLKrPAYrUultTJzv2W9Ht94CWh7WJTX1yhOqQg50SU3tI7OkRjeqKRYjUxXSR2Z1YZFKJgqRRx6HwkIYFuXWLKkBCjt3J98SH1nvyot9NbAlr+4qvwqC0Zi4fs7Zozm2AOUhaYhAIZfisZ6mSJ7QTS76MmhPmWkTHS5kKlkX1tBB7vGRdcRQZ0463WTtI2tPGeXWuGe5NatqtsNHpjDkjkPviWCvIe449M6yRxiNiesYgMvgFt6ve3d7cB0WABABwc5UcqebzNJCDnRJDcKF1IaFj6zl4bW2hRc5yMFXIowbUhgyYkggah+ZwhADBApJQ11jWOdPxuWRuTU588gYfChS+8h0jTmAJKyFIVD4jkixJe8S+9HLzMQp0IZ5pe8pMTipipA8pAdD8pxgmG9THMN1cGOZ/6lmYuEjY1UyveOipGbcIjyeKaIQEGQ9zRQ+8pajUKtCppJZZvjR+nLrIlwIGjJtwsEkPjK3XXtHBDe93dDbSy0VF5iJG+IGYXjWYdTlaVQW2tWqS9UYgSINMZ00Del5cabpgFSRr4QjxrnHyl5Mwg2/1zKTb8x3GwxHHa21m6xRSCCOu3ThvFAY8nzh1Iyj4SRuMrShjhiy3JoV1xCJ9JGZOYFC1HlkHTTkCjy6yXU2GVgEDaEHtSpk2oR6cPJdeUlDbrv2VxHcsPfkskrFBWDiOEawMI2eVA3BTg4y6kRBoZcuEHycXTrqpMeYVzUEGZAqZloBQbhjnHXwv/CQvlhnXds4g4zhycI/PRhu3OWf6/DGlVvzZBU0LGoMeX3iieBAnwvtI0MbbrmPTCBef/4EUULS8H0Rxg3fE6m35KUwhDbE3pN6g3JsuLasanG+mNg528E+1uWyEo0EJBMpCbWaIAEpBqkpNBOBQs1BykDNQQoNDDonGFGIAcPz9MUwzTjZOAAKmbvEJOQ96toK74zrYa+2K1ULGy46EQFEnjsMcJp4+ijkeaY40Cikj6wzJ/pChROEQCFPikahzpwUS5I7w4VaDxbhQmZOKAwZKKSPzBV4U5dbw00mATkgCuEjM1YISUgmQg+SiW+J1LuTL59a3GEmFhMYjUy4gJ8rtGpJqBcqkIBkIqdQ4V5xLhXTSYsLTicyUeNPj4s5RsWh69c4zUBGzjSqwoKDWiFCjHAeFt4ZacjZqD01zMYvKlAuHCIHw7T9E1HI6xmvXgwX6vPFS1cRwdCXK16ieI5IQ16WMAAW9TVJq8Iilfy5CDIngCDuddqE2WRdVUMgbrgCrydzgoihDhcSgkyeFKpQxw21KtQ+8tsioOFbItiaHAPsymtMvN45VUOw4CDU3zgIUhKyLpdAxGzB/CET+yFIN3lT8cEJXeNxENT5Sp2yJPs4IAR1XZsGn56NhCAnJIWJViuF/a/3dG7/vwcTcQ0jELUwxDWMVzIlDOOFGC/E0ZZ430o8H+P5uLYJ1LX0zGhXvK8lnotp85OvYzyHW84mfyWRbnJ7OiLDhV+I5HE8GyPt/3mMZ6PkGsP4cowvR1FAjC/G2ArDqJYkRwYK20F8NgrrrnOIMIKGz0TJyZOIwQcSn5b0TIoYxtgCMT4VY66nSc+sFdbE+GSMT8T4RMqcRMpD0hCSkECkj8zdyUnDN0XezIg0Jk4zCfQ8JAELMagdZICPPjLUH9inxwAf4EgI6smjxSDgSAhyImlxwY0lKQahBAlB+lxwuAq3iz4yxSAGGoJUhVqA1DKkgCA4qKeiLuYoIIjJSSByQhaBfKgVfWqmObXb/280EzUKeRljPJcDnLULvtnnw2Pe7XPhG5Hz+eGj7cNrwe1z/pF8/1q+fzi4Yy6cC2HommM+PBxTd4ZXfXM0yJfR7x24P2QCvuKbI0GuShw6f1bkrHd7fHgo+CP54cveHQnhQe8O+/iSb/b4NN7jwiciL+VX3h/8Tc6/IPK8b24KEiWedP5MHl+JfvfA3SdyJbjdzt+X75/JmeXLIs/45mCQ086diPJh/tO9uPfNoPFPJSD6XYPmtijBu10+3BP8Aed/55sDQd6TeNz5J0SeCOFW1+z34bdRHvfN/pByyn8Vedy7W+Ja/qQThaAhOPiXDMQ3RN7IgyXD4nb5znqy/Ue19izafBJ8dJNJvUISUhgyPgjVQBqSejphglmkXWPMnHpGKX0xUhaFa1wHB7XPpRMmBJ+mIcOCpCEFSOcCWGARfjG9YwxIPbppTF8WbQLopgGIcNZanTJqL0q1ok/Z9rNuok8YDEf7xNNT5sWMBORAn6+/txAEE6+1D8HEr0UezeB7JIRh0+xr3CO5Pw3O0TnvhlGgCl9JTIxD54427qGWiXt9eLCF4OcSzwZ/yrk9TUJksnMMDzp3OIyY+EDLxE8kvhD8yfzK50We881uH84Efygz8VCIJ5071CQmnnbNIR/uC+H2pjkRR9WFzyT2JSx+mF7g7s15kntdc9A1uxp3ICQUHnDutijvS3wy+OPO7Wr83b7Z5cPdwe/PTHwn4+/WmFD4uG9uaNzPvP9N4mNiog4XFm5ygUKIRDDx4tLV5WwxEzmvtAzU437XmEBkvrhwjQsgsm5GS0IQcENJSFWo8ySUhN/mjnjkICUhOVi7xpSHOiaox0V8kNmSQhWSgNpNpmtGVchCX0pCKkH8SUfxaw6ivEOHsXQki+dxInRt24sGQxmnDetrGM4dI4bnffPzEM/HcKzx50Ve882xEM/lh6+JPOKau1o3eeiaYUx9GRC1eDUzEar8Fd/sbdydMd7ZuN/nQOHZpBPj2RhOZWH4oGtORflc4innX5bkJn8q8eXo97jwom8Oh/hiDDc1SRje75qTcSQMn8tMvCnE52K43fn7fLO7cbfHeHvjTovc55rbY3wGt1xx/aHI07456MOJJtHwXpf04KU8OOCaAyEccFCF7niUu11zPCZteKtLTNwf4uMx3Or8460kvDVLwj/55mdB/irhZ427xbv/1TKR3jEHdJPfzMIQ2vANkYv59oYxsf79c/6gcRNUYcHBKVxjRgY1BzUEwUESsJYSFImMuFMkYkaNc42RJCEHuYaBQIQA7HGNqQo7/eICgtvkGneuBiME2SyABcA6ucmuATy59XmfwTNgYi3qGdzgNawIa3yTIbivccdcs8+Fr9XDvS6kMG70exs39G6v8+eiPzoah6sif26Z+IXIK74ZuPCFxFONe3CNifJZhuBZkZd9s8f5O7L6eyk5yHjY7PHxRd/sadxNrtnjQszO8m6XdOLuxj8n8qxvDgW5IhFMHLjwkYyY+GH0CZE+edBPt227EhODXIp+twuXoj/QuOPe7XLhqewd3+0GB4I86RMTn/TNLudvzTrxt9lB/mvmI5j4p9ZN/hN0omtucOG/MxOL/Am0ISUhB0QhBheMiZwJnC0busb0i+kO66wxkKdXJtAdZsKRMlD7xVoJckzqMeiu5w/HqNTljKK4gPrTNAT4SEP6xcWyf7BP+8XUHYUeZFhQy0BE6wvXuJCE2i+mJES4kJKwZykY634Rudd1HiRgsT4M1b8I7fN0zzh4NBgKvWOePp445vr1KaOE7+lg2HN2inOhT0rRnUHrcZ4CxiJ4+dECHBamwYuVJyy3Ron1uJUnzCazpIarkrkID3kSllujuhAplP5w4eQoNCYShoLpAemngaj9YnIQ7jD+hDEgqN1kQrCQhFoVahmoxxQRUIWcP4VrPE4SYi7pGVWrQnCwdo3JR4pBpox1iBB1G9CG5CDIiPnWmTAZ5xrjeTJRQ1DXdqDiV09LPTOZ0CQfuRxCz1JOUQzQZQ9NRmdGxsEwhXf1Znj1yhOcPh3SZSRXxy5wxappyKsUoxY8Iwzd8nR0cpChCRpcq+82lSwwcmFqGhlrTshBXVgDCOoMsu5V01ljyFRyXWOoC2ugDVFVM85H1m7yRZEL+cbBzH4JawDa5tHm4omg4TgOavDpfnaMCWomTlE6o33h72UUadIQ5MypXeMp4oNaCVIA6jmG2aU52JZrpBKNDSGIDEkhBjEJC/DpeQgIchKytTJmI+ckYKdnJrUJgQgB2AnBunEAGi9zxs6MjGCizp8UQV5ew3jR4kCXOnWiEOeoQCEzVwjU8oxACXZejWrj0/IgII2vrQ0Isp+rtjAg2LnyhAWGbFRTlNRAG2oUbrkwPC/C2+oyUWtDFg9SDJKG2jsmAclEykAKQ5KxcIrhC9Mj1hpQO8VwprRLpb0qrjIu4oP0rQplwSghBaBGoQ4RQgZ+lcHX7xpTGGoXjBzkfNN5Es46DuiXAYjckZJuGv1iRgkpADEbOScpVTA5KQDZfZ5qhUtlNQd172XMW/wwtu/KPRgKhaEuhtcoxPmiNuxEYX250igshGHhIxcBClyQaHx9HdKSsLj28ApUX29o4ba6cG3tHbWhdpMLYQhJWKNQ11rXeeQeH5kJZYhB+sjkIKQi7leOifjFI3miXWOMOwsJtWuMMQiox4wPsgqX7jAGpKF2jTEmAbVCHOcad8YHNRM5kSguNAc5hhjUkhAohNtFSUgCatcY4NNMJAHJROJPS0LMvVoSgoB6KtaqkPKENCT+tO9GqaLVCoNZeq7W01W3HeXvZDvgOBiuFVojsMvwLk8f9XtxyoogRuEm86TwKjUuaKvPArU5L0U9VyCavb7qwM64h3nH+cgIF76XW9RQFQKCjBhyBR6X34GJpCEcZJQWwk1GHpnZZPrIhKBmXwFEPFw+IIrIWN8Zv/Kag1B/FIZaA1IYUgZSGBKCDBESgkwcazHY6RprCEIPUhUySVLEBzmFNAcpK/SMorjgpNLeVi0GyUHKDQKRooNTrhOC4GDhJhfxQYgR4o+DGoLUg4U80c4aQ1ecqBSD2nHTs5RjChbM27WlEeubCGyTbBwM0yKT4iTy9PHcFVoe2rCIY/A01bELniYWuheXpeJ06BAtL0K85HDQKQxxvamvNDRvLQynzp8wXMgBy60pCQnEC22RzQXlIJ9vw4ig5HmR15cu3czLeTcTdUPjQhICfMSfZiIJSCZSBmomkoYUg6Rh4RdP4hrXENQzRwsKTCFOJCoLzKhiOgGIdLg4uyg0OLUAPuKPigMakNOM7CMK4RHznqUzlCH0zqhH6Jr1CBNORTprGoWbdY05RclE0JDKhRlP7dBth3wYDEetW3kGNQr1BYwnqw4X6ssVTw0HnSjUHMQ1aXIUgoaU2xzAqghEaLmtMyds5sqeXZ2pZKpCZk4KYViUW7O6EBAkEztRqHUiEPl6puH55QVit04kELUkZKAQ4CMTib91rnFw/yOkFQg/SvzfjfvfcbQagZKQNKxdYyYZtSrUIXZGl0hDDIg/zURycLOusZ5XnZIQTCT4yEROMP6JfrGechQg2ikjBDkgBIlF+sJ1VUenJKxFygcST3j/TPAnQl4k23aO2pQkLAL8tUO3rVikltcZf17A9HVLX7p08kRHLeqrlM7g63OBs1BckHouQrwCwbZ1NHbclYaSkC1qtI+s3WSNQq5Kph6sPWVCkMKw8JQLH7lQi2DiEovEDiaieec413gd+HK3EjKRccAkCVsmvundjWRijG9G1JrFizlrnKgXYxsfjBfzX7+TSL84D6Iux/1WYhFovybxtXYlfwZfPJdX76dxjFkMplX9mDxfy2hwbrRuIb6aB+td4wgIvhJT+vgLSUv6GR88m1b4p2c+l6gl4WcSdWA+T7P4Urv+P4vB9DC5xjE1Akg3kY8lvhDjC2l5g7R+cXw+xnWucYzPxbUyjisSn42pHUCWgWm1w7PpJpclMibYusZsEyAfyLrxJZGn4giIeaKmlgEhLQtbi+4zv8mBVoJ60lK/cAJDvGw5FgfDtNQEQNTCkLHdccJQ01BHDCHS9UVL01CdlNSOgdcnfTWCqSnJ9RVIhyO0MAQHKcC30EeGQtQlNYwYYgD8kYYbakPw8fXWiX5d5LV82/IzS791HgbrfGfdzRhOceEac20J88VwigvX+AcwMfr/4cKb3v1/Ud707uYQ/q93N/t4Ma9avyjyXfQ3DppfR/kuuBud/698/5hvbg7yncRfubQkK6/Qkm+j3zdwf2wffiPxrvxXrOR/NK/hPycp5HQuv3nCYvonzTHn9vnwcPDHnD+X/3osyMMuLWj9W0hrGP4Q3FEXqAqv5qULR4M8lF/zRX7NQ/n+rMjnafGDfzCEU407lXsBfBb9nkFa4YA1Xp9JOOxC0oPB7XH+gXz/ksineXB/cIddeCGEX7jmJh/uj/ICFr2mFQtpqcNz3nEN7HOS5uFz3h0K4Yx3h3zi4LP5BafzItlncl+A3T7g4em8LiItgRik9WFoE3A6uIMufKBaBjyVV4kdyCsidg3cPRmCT+VVsb/L6yJq15go1GKQ+Cv0C1uqbB8WB8O0Do+XMYYLIdUpDHW4EIELSngt2HUAl5KQPvJ0KAQNoQp18kRfcjpRSKvOrLqwVoUUhjUKX8su83IDcU0nIjROAo5zjYlCqEKGC+kLj2KFmYn/17n/ErmYmZgChTH8l3M3h3jBNzc27uYgF7y72blfR3nMNTf78FgIv2qam11uZxL8z9eYGH/p3M8b9yhWaPnwx8w4rFo95sOjIdzVNHfFpCDO5QWqx4Kc8+5Y4lo8F/zQub1NYuKreSF96nQi8geXVrByRnEupeVcTep98kUiXeLd5yIPuebOmJi4x4XP8vOZifGUc4cb94DIA645HIRMTA99uD+EO5rmjij3O3d/VoKYbC94l5e+puYoCYItE69IfC742/Pyr2czE5MejOE+5w6FJAM/kvhs+wIw8WBICvGE86fT2q94wrmDec0s2gRgWt7jmgM+3BvCbU1aJ5tXg8Xjzh1oEhPfFwmKiQwUEoW1JOSM1QTUYzhxcOu2YwoNhqMeDdpNZmBXq8LCR9aSkOELoLDV6UkP9vjIrUIftWagNq/dZDKRwhDXm1p382JTGHYGPrKOGJKPoCHd5NdyDHG5/WWtT0c6EQpxQ9dYQ7DkIN1hkaQTE/6Sp3zRJ+rlaup4MfobXbiQlGC42fmbnX/Mu19lJv4q9bZLtz+2S/d/6XwS6j61LflljHe1TMRK/rvyX/VKfrjM59JS/3DM+aPOP+zd3iYt7/8yd3b6c1rK2hz1YZjX8/8+r/ynuCAT0yJ/H+7MfVDaFf4jGaiZeEdezXoqppWwD+SV/w94d4dP0PwkL/j/RXaQX4jxeZEzrvlFdpAx2Z5TTDyUGwEcavyz+WUnk5uc1sA+mxf/5xkYn82rXC/njim5UUp6AZmY4oOZibsbdyLGE5l097jUUoVMPJ5c4+QgPyWJibsadzzG4437XWbik2nNbHwihv1N6igFtaInqq6A40QFBPmQhcG6BATLJLYJi4Nhum4xrAH8MaAxzkfelDDkYsfaR54uf6JTUsXFhop7w3V4DBfWNYYMF17M/RoYK+SyE4JP07DIn4CGcJMBxG0qJ9Akmp9xYqJuZQws0iPmoEgWE4gsmtEp4++CG7iAVSUXMhOTNnT+10kDJp14c5DH3ODnQc5798uYXePG/TL1tvOZiQLvGEwcuHBNRkzMyJOvsu8MB3ltJX/ua3IuN7x72A2OhrSY/6hr9rqRTnwl+8Wp+V30e124Gv2Rxt2ZWzl9EdwRP4oP5sYnkpxiFz7LrzmVX/NpWvbfHPapJ+iDzt2RuwN8KvGOJmnANmscbnIhKY7o9zTuF3kZ//MiV6K/qXEnsx6ER3x77hiaGkY17pBrdqcWAKlH3m430onPZCa2zzS7fdKJeHgiC8mn2556H0i8zfl78/FckhET0SbgtuwOX4o+QTCNfciqcOBC6qnXuLvzHpWPZ0rud80uFzAz6cQVE7XYlINJT83BzrzndmARP91OFMJNnpmPjGsPk1RFKrkQhjUKYeQNUchwIZkIArLAEBxEuBDI60ch+MhUMsOFoCF14jadu/mBYHEkAwKR2RJyUKtClMuQjCQgnsdDpIyBwjZzMlqEUBcSIjvcmTJGBhm1MnoZP7ONuoyGS0owYJgJ4fYiZaxlBQVFnTKusiW6VTL6QeVsSYtCOl/wv7QXti5bQnc4D3QGmTJER+t1wH5cISGD94WnpkNXmJOcmUXKuJiihSSkDKxdYwJRpzv1mMH+v2xn6QYkjD5lGoXIorRXrFEiCydIXJ9o8wAAIABJREFUl9SwupOuMQfFWdCZE6KQCRMOdFgWUYjCzsXFBnZGtKG4wHSiELalKuRAp00YGayrC1FgSCZCDNJH1jRcNSCmCy2YOC4+iOoZDT4KQ10r07nQmEvrWFCtU8adpTOagxy3KeNRwpGLSTgoijAKDtK30uzTYwbgGYNn1Al/0vOKpTPkINxhclBDEJlKzC6drCT4+CcdlgIfawiyyrfmIIUJazvgo43jYOEXF2EswK6GYFH2AbVSQ1A7dJQwb24nFiEYB8Pc0jU3McQZ1Chk/kTHCvUJAhZ5cdJnAWcHMnBTNYakIXQ3OUhhWOhuWpi2pSSkVbU2rPPIYOKGNNQRQ+0jrzgNIRgTEwFEuMN6DPVXAJF11JqJPUvruGIfEIQ8JBDH1Q8WQGRBNcUg9aBOkiAmyLg7wYcBhSHYB5+LHKS4IBCBQkJwXJUG5hVmWl2uUYhBDUHMNMw9zUQqET39dIEbxQgG5GARwqcehELRHCymKERKHR8EHClb6BQXHMS8ZSkcqoL16jF4czNQHNCMg2HS8ix9r0tqahTiKsVrldaGNQrH+chMJROFtc217qbQ5qBGIZnYj0LGDTvDhdSDHJCDhTZckcxy4SwXDxMTST2tCoE8qEKNP9ZUs/eMLqjWkpD40wTkmNTjsgS6xqxBoxLkgJKQYrCQgUyVaAJyzMUkRKEmIMfAH2lISUgxqLWGLtfQBOSY1OOU0wTkmNQjCrU7zDHBp1HI2ahD+JyQNQEpWEg9zlVNQI5JPWCRE5XesXbl9EoJlsLNuEM94Mjzpd3kWrB3usm8MpGAHOi4RG15+shFFKIIF5KD+kqD64o2Ly8wsCR95Lo7A7RhZ+ZEoxBBQ+pBDIjCGVy3CgDN4cN1TKRfzHAhCcj4IAuqC9e4iA92qkJwUC8pAQfJR70sgZKQHIQkJA2h/jQTGW6nQiT78CftC5OPdI0JQUoMTCrtdmnXGGPMKIwLDnKyEXzaIyP7tJtc+8VkH+Uh44O1awz8kYaQfnhSy0A9Jvj0LNUTlRwkASkJdUkw3WQ6dBqIO9KNmbJR6/eeVDJPE/CHE8QzQvvzjBCIum5JW3urfGRaEoNN5U8QOtT5Ew1EmmgO2bRTh7TGRC0G9biGIBeWTBgfrCGoV6pCA5KGQGHBQQ2+2jXW1bkFBPkQ4NNMRE2G4mBaT9JCMO0zqcRgfL6tpLkiaZEJVpK0TMQyklSw9tHaqpJUNgjYaQ5ysvVzUMcH6xlYi0E6axSAemYCdpqDcH7riD67z4OD9H8L5ULxAg4CgjrpyXQnfbodYSInFWc+fWQMeIJ4OjjoRCHOBVHI6IS+CNHyWhjiwsPLD+1Mw/IyQ9tSEnIwdf6kyCOj0hA2oYlsQAuManEYJdTZEijBOmXMZDG0IZBHYUgCMlYIGag9YrrJIGDtGhN8pCFjhXVwULvGgCBRSHcY4UJKQkbfR5IwrzM5k9d7vNDWCV6RVFiDjSXxJ2yjkfeZ9Kgo/Cj/E2w7+WzeT+P24A/lqmlsPnm5XVjCtQ2Uh3SH66UO8M7oJvdMQsxAzkMKQwwYwt/QNaYwxCzlFGVon5JwnGtMLcMwP8k4Py0DCEdWF+J0bC0KaXZcezpRSNHNsAMHFNq8onDAcGGdSob6M1VItE09WMdESkJysJCEpCE5yPggw4JkIsFHJm5WEvaUzoCD9H/HucaEIAc6VdKqQjnj3JlcH3Mmb652xmH/oHDIhfvyxpJnQjjZNLfH0dZCKJ++PY62nTwdwom07WR6fVpVkpmYNxUaLSy5F1uSt6uJGZmiBqRfBg5qCGpVyFiVhqAe15KQE1K7xgAf1SLVCghIIDKuz+lK8FG8EHyYt3yoZ+8cRqkIx8FQr/seLffmedGXpeJE0OzU5vrCQ7MzH8UQBM1LqzLsQPMSgrRnZyqZRtbucJE/0d90akys1D9cW8fCfjMFB5kqYQM7cvD644M6a1zHBwG+QhiCgxqCEIPkI/HHQREfLBKRV9aEYVpwgpUkZ7w76dMeaXpjyWfb7da4pOS03nYy+t0+plUlLRN3N+62GG9r0v6T/RwEBBkfLOJT2jVj5J5TUXNQg6/HNdYQ1EqQk5PTVc9SPWZIi5OW8xMDHeyfQybqSa6pMRiudcHQVyZGJ3AuOvU4mKi1Ia89NDgHvN7w6kLzbtZHZp4ENCy+jv6mNp7EAiMmosKrM2tcN+gvnGLKQArDntIZBArHucYaf/SIgb/aKSYKwT7ea7+4pqEummHo/UpMDm/ePTKtJ2lvWfepjSWxnG7QvjI5XPmvJ9ICFXewGexu3EHndg/S0uOn2oUlt+XFdlSChQaB+hhHQ4gR4I8Q1JHBWpsUCqV2iqFTarVSOMWYopyoVC50jUm9HhrOj9c8yWTAawqmAIJEIeUhLM8YRX0FojDU6rsThTCyRqE2Ke0MqVj7yMUBT/5N7ZWdFlhjIgtfKQN1uFBLQrrJYB+Z2OMab5gyJgGBRS0D9Zjxwd5sSUqVMEnCQZ0yRpp4w5Qx0pFIlSBKyJgg41AfSDjowqhtcvQHfSQEdelG7Rq/K8JQfe0aayYSf5yHVIUYkIaUJ5yW5CB1SqckJAcpXigDNRO1H1cEtjCBMaUxVzt/dgv0ZEEc/bAwO91kGJk2h+imwWlbfb0pwFdobVxa9Efr8QIZcyEOdR0TccTo807w1fHBzqxxZ+lMv2sM2GltyNyI5iAEYKdrTEnIEkLIwB4O1qUzun6QJYSAHf9ECD4d/IkofMjsJF1jRqA0E/vFYKdrXIBPP6R3VkCwzmZqhaLnZO0ac6ISglq2FBDs4SBVzJz7y1syOTWYtnu8JQdsbzKJBTqYCMEI9cd7nTWuXWOWznS6xrqOmjKQwhD40xDU+KMwrF1jclCrQrrGa36xWlzM+sHWO0Zn1rW+T5SEYKK+B/V4r5PFwJ+GIMkIGvK+WFKiZWDhGjN3STECApKDVCVaDFIG1q6xZiIJqKUKaKiZqEVfoVxqSurlYqsAxElml71mES3QzUT60QUK0dyYpTM9C+w6U8ZFYzuwT9OQ4NMo1M2ddNZYp0pIQFVUyLBgas5KCEL64SHGBB9LdikD8SdqQK0KNQH1uJCE9It1WErjr4hP1UVt41QhmajxRyaSgOMkIWkI8GnXWAezJpGEeD0UIuTSIs4EO2azACwwlomjPw9TJzFCkHoQSRIuKWHxIMsJKQMpDAu/mA+1a4wxwMdqaurBHr+YTNSusQafHpN9mokAn4Yg6wc1EykAdapEZ43744PMGmtfuJCE4yAI11jHqnpcYyhBgo/CUMtAPdYc1LGtQirSNa7r4IyGxpTlsMAGTNRkLIBI/E3iGusGnz2uMeODOl9cu8bFEuN2Pck6PcgVC4wJ0i8mE0lACkPijwNoQBBQc5DZEghDoLDTNS44SBoyZ1KkSsBEysDCNS44SBlIYUj8cQAN2OkaE4U9HGRfKQCR91wdYTRcDhbYtxjhbnJD4KdPApKJnZKQMrB2jcFEusnaNaYkZDU144N11riWhMyQaFUI8GlJSAKSiZ2SkAQsXGNNw/5CQtAQECQByURGBslEzUGO6RprvxgELBKaYF+BQqZKqArJwU6/mIHCHkloNJx81tgrF84CE+lE/a1ARiZG+l1jgk9zsMc1Zr6YvvC4+CBDhIBdDUHd7qkHgqPqmXaFCXhXQLCu3S0qeHc2PrjhQmMNwU4O4gUUgPphsSiCrzFtqCeFjZfJAptmIr48pgS6eJKPBJ/2jolFxgeZJ0GSpOBgIQzZ2YkQpFNccJA+MtQfOKjHEINwiikMWTyoOcigIfPFGoK6dEYnjnURbyEGmTum+sNA+8V0iikM2Q5A+8UkIGOFtRKE1qPi6/GLuTebjg8CfBSD5KD1DlimmW/fZZwFpmQi307Dkfhj1nicJCxcY1ZNUx5qAnJM6mFz98IdZpSQ1GPbBRJQF9AQfLrhgpaERcpYF1TTHaZCJPV0woTgo5vMDAkTJvR/wUTGB+ECc20JY4Jgok4TA3lwjTeUhAClxpymYacq5Cm2Chv+7G2wxBa4XibSNHrmAI7IkzBbMmHpDBMmWgbqMaUfIbiha6zzJBSGDAtysCkI9sQH2UGeqrCzmlpDkEpQM5EcpCRkTFAzUXOwloRUi+QgIah76hX9lk0S8odtg1WzwJYxURuOfNQpY/Y6ZohQ+8VaDIKA5CAjg1oYsg0y8ySMDOqUMQlI11jXzTBlrF1jFgzSL9ZikAqRiRGtEAlBKkQmRrRCJPgoEpkYoTwkB2vXGBAk7GoOkpLjXGPqQYKSA547fUJtbBZYHQtsCxNpPk4wDCZ0jZk+1kqQY7rGlIf9rjHTx2xPXaOwxh/Yp2kI9lEeknpaFRJ8DBSSeloVEnyUhz2SEEwE+Ag7YpFARPIEzxNwk0jC4hzx3NnALLCaFtheJhY21dOP4KMq1DJQjwFBusxaBuoxXODCTS7ig/SOi0JCErCAYK0K6/Yn9IsLDlIhEnzkI1UhEybaFyYfaw6SgHqgOajHPa6xPhHFObKHZoEVt8BMmahtraflYJi6KlAJUgDSL+5UghSA9IupBNl6S0OwP0lCAQgO0jUuIEjw0U1mmlhDsODgOAhuGB/csHSmB4I6RFhYW58IG5sFzALaAjvGRH0QXF5dTF3KQM1EjUKdO4ZHTBoW1dT0jos6ao3CIjLIZLHGH5lIApKJjBIyWUwfWSeLC0lYKz5gTtMQzzCAqLstwE1mfFBvwKaNWVjbHpoFzALjLDAvTOw8Pj2rOSYTqQoZH4QqBP5YRQh3WDNRc5BjEJBYLDioUQj2kYmdkpAZEq0QgT/NRGKO1NOI5F91fJAhQsNf52/GnjQLXKcF5pqJnd+NcCwGzB0zJggOal94q+KD4OCG8UG4xj3xQS0GSUPtDmNcfFM+7LSPPWkWMAtcjwUWj4njvi1J0T9goLB2jbUY1DKQ7CMK6RRrGUj2EYXEHAYAnJaE/YfKv477yva8WcAssOUWWB4mTmgagmYeBhMes71sTiywrb+ZOfmOdhgrx0Q75WaBSSzQib9/iuD2kwhvP4r8KPKP9v4fIj/khz/kAe6/F+HtOxHcuFPmNyLfSmpU2nmb5GjtNVtoAWPiFhrT3mpRLVDD6F8i/2oJiMFP+SFQ+GNmYj8NAcEfMg0Bwe8zDf/e3mObzGKvYL39EfZEKo5tUU28OMdtTFycc2VHuqUW0Kz5dyYg7kFAMhEo/GcLwZ+yHuwRht+38hAEBBm/E6lR+K0I9sjkBplfi5CJ3BSz2P5IH7Z15djSX8TozYyJ22FVe885tYAGyr9FiEIM/pnJqFWhRiFoCB8ZTISPDGd5QxT+PTvIcJP7Uag3B9bbfhS7YKK7s/5Gc2r0RTssY+KinTE73s1bgOAABzUNoQfpJo8LF9JN/keOFYKDjBgyVghtqCOGUIhEISUh9CB3DC44SBTqbeB0Z3vdy5mt7Pk1N28h+xdrFjAmrtnCRktmATLiP1kS4h4Q3EE3md4xB9pNxtaY2C0de8DhXm+Eif0vsecH+jdjqw/06PusTdcs2dmc2dcxJs7M1PZBM7JAJwrpJjNQyAHSJnSTmT+p3WQmkTnoT54wYnitDR32RAzJQY1C7oipdz3Smx3p5vbsW4pezrTDjOy+LB9jTFyWM2nfo9VH/xHBjZ7yv9rQIfMnrKoBCovCmnGeMoKGnZ5yUVjDbDJCh/2esqah3h+Y+8F1esrjaFhs9BZbs9gPZEILGBMnNJS9bK4tAE1EFPa4yTpiSG04YTaZSeTv2gqb/mwyvWPIw68lbZX+lQgGdJOxSzDCheQgBogV9rjJWhvqFs7s3IympR8ZGSf+/RoTJzaVvXAuLUAa/jvLwzp/Ml02md4xB+BgUWM4eTa5RiHyJ53Z5A0jhkAh932jNixQiPb1uok9zDWXZ3JeDsqYOC9nwo5jsxbA9J4Qhay4RrhwU4U1tSqcAoVQiJ1uMvIndJBrVYhN37j1W4FC7nSE7T24o5FGYbGTh5Gx58dmTOwxjv1pfi0wGKagoY4Y6qoaXVvDWCEd5HHhQkpCRgxZVYOSGgQNpy6sgY+sI4bgIGlYbAs8LmKo930r9v4lBwlBNrTXPZvRttlKvjt/38bETrPYk3NtAQ1E5k8QKCQNi/UnE2aTGTHkgBHDWhuOyyaz2JARw343GZ5ykU1mYc0UbjK27iANucsbUMj29ZcsyNj1MzcmdlnFnptXC9BfJgqLVHIPCtmmAXpwwvUnXJXcWVgzSfKkEIbMokyCQlTVaGGIvdH73WRuZ8QBNzViy3oM0KneBKP+vRsTtTVsPNcWGAxHznKnm3w9EUOqQjjL/YU1RY3hOFU4taesU8mkoUZh5/6XVIXwkXHPLX9BQG7mwT1+2azesMifvjGRprDBXFtgMEyNargwGdlkFtawzBCxQqZQtDbkgjxdZlgUXZOGUIVTa0MW1kAVTl5Y84kIUihFKhkcJA2xNzo5iAGcYsYNe7QhN/Dgxpbvmh/d/vyNia0l7P9zbAEAsd9NZhevev2JdpMpCTnoiRhyefKmtCEXJm/KTZ4um0zvWKNQRwx7tCE3MuKWlqYW0355czwR7NDMAskCg2Hq5DpJ8qRQhRqF7GO4IQrZtIYNGjBAgWFRbs0eDQwadhbWIH/CLMqnInVhDdzkorCGFddMKF8WoTzsSZ5cEmHEkJv9UhVyNzds5YZ9irCRkWHRmGjcmXcLgInwjukjb1VhDVMolIT96/DQsQb39foTLQzHFdYUeeQiYsiia5QZEoXgYEFD6EHuh05JCAjSQUYihUDUu7lxQze9lduKY9GYOO9EWPHjAxCZPwEKtZustSGb/hcRQ2pDXWY4dcRwQm3Y2bEGDvIM3GRkUZhC0W4y97PkABu3YV9f7OK7ylg0Jq44c+b662uFWKw/GYdC0rBzKR5VIYDY4ybXS/E688haGLJ1zWcinW5yT2ENa2uYPOkRhkU2WbvJNQqpCukmd6KQ+5sbE42Jcw2FFT+4wTBt/6RVoV6CUqjCOmJYFNYQiBqFiBUydFijUK/G08kTppI3RCFV4YYRQ3jKiBiCiT0RQ+0p1yisI4YahdpTfkuE+/r+RQQ7+ppOXPGpZ19/Ti1AJqLX/zhtCBqO9j8J7samubFp9jl/Ie+ColHIzl0YoLSQKZQaiIU2xCK8Whv2uMnQhhMW1myoDTUHmUKpgUhtSA7+VQShw9pNBhCxoTmAiA3NVxaLphPnFAd2WAAiev1vYv+T4G4OaUOov0e/z4VvJJ6P8Xxc2w3qmsTXYurW1aIwnssPv4rx1RjPxfiqyN8k1jS8KvFsxE2yNkzj1k1Og5fywzZiGF+MQiA+H+MLMT4f5YpEZlFaNzkChc9GyYU18Zk8yPmT+LTIqLAmxksSyURw8JLEEOMoeRLjE/n2uMi7EkFAMnEcCgFBohBkfFPkjZzuX80foTFxNc/7AnxrzcQN3eS1GsPg9vnwWAiPeffzIOd9s8+HP3q3z4UEweD2Of9Ivj+XH+51/uHgjrnwaghD1xz14Q9R/uybo0GuRr934H4vAmF41jd7fXgw+CPOP+jdnjw+7PxLIi/7Zo/zDwR/uPEvinwS3B7n7w9ut/MviMTodzf+TAgnG3fSN4eCsHXNZZFn8zOnnTsR5XL+J6fz/TMiz/hm0PinRC5Fv3vQHHDNgSDvS7zN+SDypHe7fLg7+APOPyHyeAi3uma/D7+J8rhv9gdBzuRP3t0Sk3dcRAzpJv9F5E0R3L+RaWhMXIDpMc+HiBW4/ffzfPxze2yDYdpInotPeprW6MUn32Ym/jGMOAgmPpqZ+LXII6455sMjIQybZhjlYecezk1ekUr+s3fDmAj4im+OhDh07kjjHpKkCr8QOZuelM8knnL+ZYkvB3/KuT1NYuJLvjkckiq83zW/iHK/c/eLRJEzrjkZMxNduJIeJibubtwh7++LozLDDL4Eyg9FTjt3bxaG97rmRJSn84sPBHnKuwPOHXDNLh9+lyH4pCQ4PhH8rc7tavzj2TV+3LtbY0Lh4765oXH7vf9NFDBRBw2hCiEJgUI4y0AhsGg6cW7nxbwcWA/ydNSfE5jZT1SB9PzzefmG83ccYCJjhXUKhdqQEcOUTQ7uWEh+8TcS72r8o745FuJrMRxr/DmRh11zFxzkGPFwGIVlhq94d2dM+HvFN3sbd2eMpzITUWn4smLiHa45FeVTiXdknfhiZuLHmYkn4wiFGYKJiVei352ZeJ9zt2dV+JGEQ407nfH3jG8O+nCiSTQ8nVH4gcg9LRMPhHDAJSV4T8JicyDEEMPxLAzvds2tMbnJt7o1JkISQie+LeFnjftfWScim0xtCAjW2vCiyMUsFS+a7zx/M2Inj6hGGAuGMQAH9cbn3OpX05C9SFkWxxIQVgjXn7WT33yePnswFBqzWJUMewKFNClqrb8Jbl/jjjm3r2mO+XjON/lhs8+FVGgd/d7GDb3b6/yfRb6M/ujoYcgoHDHxrG8GLnwuiYkPtoU1L2fwfZY5+EB2lu/IOvEFkReSk+tOegf2xehvah9+JPGkaw75eFkETNzduIOu2e0CAoVP++ZgkA8zNy9Ff7BxJ7zb5cL7IsEnZ/l3bnAgSMhM3B9GEEzOsm9ucP6WVie+nZ4Zucn/nXXiz1xzgwv/7d3/jKNs8jg3WaPwgsiFTEbLsczTbNihYyGe2GgA68lYMAwUsr+ADvxDxdRaRs9ecpBJT+7XoTOePIyV/VHy/AOLne3+qQ0nKazZsMe1Lqxhm2vIw7rHNWtr0KvmY5Hns/orkifTFda0yRPB4hMUXU9YWAMHuS6s0SiEg0w3marwYotCMPG86UT+CldtoAHEPX+5yyXbrrBErvCU6SzTxdO7nqMLqZ69rAVhQRw7TWG5GNdIoBSOh7dq5wXfF0zEdaW+utCYvMaobPK6raDqGkPW03DAbobj1iaz4pqr8djj+rngk48s6dZmk0fhQuSUdf8uNnZlEnmKomtdYKjXn4wrrOl3k6kNL4icb28re0le0bwzWcMN3qgN2W5Ay8NObahbDIyK40QwdRn1Z5/6oiczWgkUQGRgCxNVixce8ErBcTBcsyd8ZNyP3ORcT4OrC68xWnEXlxm0aRhXYzgOhbqbYbExHhaf6DYN47ThqJ4mBxCJQg4gCbE8mauSJ9eGzJ/oGkOtDXU2GcLwjewdaxSShnhyZYG4in1xABdubKRb8unOK2wx0ElDqsIfMgQZNyQKyyBXWw2HqVvP2x4acq5igONfHTIOhtJpzHEorN1ktjKsO9b0u8lFK0OqwslRuGFjV5Zbs00Dy607l+JRHiJnMp2b3InC89l3xp8urLDjvFpMBE24BTA3vewRhnUWRccNdWcBykN6yhSGDBpSG46bt5y09OPakuDUZxSBLUzU1ZGNg2Eqt2YolsakMIRVYVIIw6LcWotuQBD3/X1r6ClrbchVyXXTGvrIbGgIbThJ0xrdoAEoRK11Z9MaVhoWqWSWW3cW1iCLgnuCj25y8cwqi8RVYWKhDUlD3aO001PWi8lqT5nLaetQF4HI1WOYtOy+V8QNtUO3IRC5bDbm6/nS/4KBRUKQg1puw6rcMVlbtaAhLzZ1CoWLT5BCYeak6HE9tZtcdzOstaFeiqe1IYE4oZvMFIrWhjUK6Ti/vtoKcRTFXm4vrKAhPGWdS2GRDXzkwlPWNcO6LqTIhBahLob8OXu1liENGd5imJ+uHGdsIQ9JQ707x5UV+B0PhqOleIXW1hHDfhTStp3Z5CncZPZ2hR7UbjIDhRx0Rgz7Ufi2jBaiaDd5HArHZZM1Cgk+qkIMzou8nvMqr+fB0l9iNyTe0uZYOmlYC8OiR+k4YaiLbCgPi80t6d/p7CeFId26OrwFYfhF9o4RNCzEC5ULQ1qFZvloBQTjYJgWKdNHpj07Q7FUheNQCAuPy59sYcSQqpARwyJ5woXJSB93qkK9KlknT8ahsC6sgTbUNCQKMXhN5LUVuLhuCMSl9Z25/2+dVmbJIZ1lplPGAZFxQ8pDFtn0hLpqzw7C8Mt2rZhOK1O8cK5iQBrSjysiWdqDu7zUZMRFrt4xmf276mistir3jx/X5rr2kWFb1tYgUIi4IWOFG4YLi2zyhtqQ3rHOJnM1Hhcm1zScwk2GMHw909CASFwuoU4kEFFmyCIb0lCvRSEQJy/A1kDUcUOG/0nDTs+OnnJP3LBTvzDAz1mK+clZSvdtid2fwTAtxet0k0FACMMiWc8QhAaiTp5AdxfqW19vtJFpZwKRBYYgILXhFIU1ZOIUbjJTKJ0RQ/jO2k2GNgQNl/g3Q9hNOFgqJtJfZoVN7SzruCELsOtN0It6Q51FYYlcETfUWZSChjr1SU+Z87bHUy7ihqShbjuKKaorgS8ttRM0GI4a1dRXF5oUA6CQihvrTzpRCBrCvEShjhgym1z0uNYRwxqFhSrscZO1KuSq5M26yRuiULvJr+XooSVValAuDxM33BB93FoUALFou4KgIStsGDpk0JCqUNddA4v1qgkkQClhCp9Oi5d6jUThLEOwYIrWNESfUUzOJb7y4+LHoCHtCRTCTWYUgkvxCttSd9cW7jQy667BQW1qvRsUC2sIxMkLa+gj99AQ5dasrWGIsAYinwEK4SlDG9JrXuIfSQ27CZ9ZEiYCiJSHLDnk4rwNlyojrax7DRCIuuSwcJZ1GpShrsK5K+KGyClrIdPjKWtvDhO1cOIgW6hW2HsZs3S5f/GDYdr2hNqQEUPSsD+bDBQW2vCjdqfQ/mwyJSEHQCHyJ6gxZNG1LqzR2eRON1l3rKmDhvX6E4KPcGR+udNN1jRc7p/HhASsX7YMTOSG6Bt6yhtmUbQ8JArhI+Oe5TXaUx4nDDtpqD3lzklL/YL5eUVS+2U9V4t4FoJZBQ3RO+DdpXaiU4pwmG40KQadVu2PGGo3GVugMFaIQW3k/uRJ4SZrFG6fmww+AoUbtLSwAAAPmElEQVSdbjLSKTBazQJ7BhZYeCZSIWptCDe5yJ8gi7Jh1wauz+vPKbMoZBwQ4S9DyGifTnvKcOvqChtmPIlCxrMKDw46hWqFBR9w3CBVll4OYJJTbjNiqKOxnRFDbV6NQhp5HAppZwpDrj+hKmRtDVbgaVXIJSj0kTF4I7e8hjxkHrmzsEarQp08IQqBP6pCo+HkxF8GJuo2NqywwX5venHeZguwETEsEimMHmpPmSVydTlIsXtRLWSiiJ66oCHD/IWnXCRSCm3ILGfhuy09E0eX96wZWbTE2pqtDReyeRdpOF24kDTsX4qn2Ve7yXymYJ8OGrLwcEV+BpOzb9wrF5uJ8Jq5FoVFNlCI4zzlogAbwpBZFKaVmUWBv8wKG9CQHGR93DhPmZ4dg/0UMsW8LdLK8JHpKSN0CEk4IQ3hwb297B60/nFDMw6GqfX/hhFDqu9NZZOnKLrWhTWTRAy1NiT4aj5u6CZbnY3+bUw4XngmMotCfxkopKfc6Syj1KbOoui0MpejUBsyray7DFAbdjrLujKuLsAu5i1cOZ30hBPH2BZQSH9Ze3CcqNyqDSsi4MGtFBbx0yccaU+Kbu0mM0lVXGzYsUar7yKVPM5NnjxiuFk3eZKIoXaTTRtOyEH9sgVm4mCYdkPX2rBfHrLkUAOxM5GiaajlIUOHen0eUaiXkWltyDgXVyvreD+1IWYs5y3loY7xs+aDAf7Cg+MsRfSK3UZXkIn8lROOVIX1labzYkM3WQdnp/OUx60/QWfDyQtrdCoZ7GOZoaGQZ/w6BwvPxDpuuKkCbArDIm4IFHKBLRs3dHrK42gIYUgU9scNSUMG+GsakolMK3eG9qkNtWB5a5U86M5ZQTiO04Y0b6ENCw4yIrFhNnnL3WTEDbn+BA/5vUwVdp73zT65qEyESCwyyzqLomqw46+d+69RB+z4K+cfk7U2pWQio4f9njKZSHmo6w1ZIleHDnVbAca5mPekN6ezKKw61GlllgS/k7Y2l2K61jTUZcA2ZzA9NEQQf6Du1hebwrxAISxMAa6vOlx/0onCrXWT9VfY7Jy31/dbYLGZqNPKelv0sq9XcDf6mLIoafPfmDgY42vplpqV5hRKesgC7HMxvppu0vbji3/O2/5+IXF9IiVqIObQYXwpbXGZtvptEynx+bxTR06nRF1kk2vi4jMxbex7WdK+bk/HyNDhJYlPR8FcTfcxPpluiYPvStQopGzhRGX7ZQCRU9SYWE8GDZfBEOZdu9gwFqFRyNoaltTQzsilwOB1YQ0rrpFCYXG17nHdEzHUh1p/EXtmqyywwEwcl1ZmGxtVgB1/1bjHJP6ycX9MEEyDu4I/1rhHRM55t9eHh4M/5tIWwHm7S/+HtC26+73I1ZD2vXwI93mH3y9Gu56nTdAPB/k0+j0D94DIJ8Htcf7+fP88KmyC2+38mXz/bNrKMu32e1nCIReSp5yfP53v7/XNbufvDf5A458W+SC4Xc7/Lt+HvLv58cbdGvz+xv02b2K5P8g70e8auN+IaA8O0xWChQqRU9SYuOG00dzhGMFZFhgChTSv5iBNDVVYhAuJwn4a8nOLwYYHby/YEgssNhPpLJfCUERviJ6EYdr2t4FIvCbhmAvX0p7oiYlfSTwX/NC5vY1/FUx04UuR3zv3ULpvjvjwUAh3Ns0R1+zx4cHgjzj/sshLiYnxDucON4mJ97vmJh/OhPCLJrEvipxx7kxegnLGNbfHxMRDITHxoAuX8wbnB324N4QTTXMwbWcu2Oz8eExbnh/w4e4QjjfN8aQNw34X0u7mTYJg3tE83uLc/vyQMxazVGsWzExOVGPidHOmYNO4h3orKEhCrk3mjsnj/q1+frqDtH+1VRZYYCayd8OGQPw2a8O7Gn8ennL0+3z8OjPxYZGHXTOMiYzDdh/0vS5cFXnIJZ34kGtOxXg23x7MEDwbwynnXxJ52Td7GndHjHc07v7MxJMxvhDj8zE+J2BiQuGVrBBvTwoxnvbuhPe7WyaeiPGZGJ+O8Z688fklkd+55raY7o/HGLK//IRkSejjOxJvaXXiDY27JaaHv5G0nXmnE0cgYq5ifhoWt2rm1O+judY5rv+JPTOHFlhgJgKFRQG2LjnkPqLnk5vcHAupUXOWh4O9jTvm3N5BczTEc77Z60Y68ZVExuaIT3HDh5x7UOSL6Pc07pRPfnFmonyafeeXsk4cuPCJxF80SQ/G6Hc37qRP/vKz2Oc3+kONuz09k4Rhm0hJOjGlPqPf1bjb8uvv8c0gj3e5kJKe+U+3+uRBP5Hk4eCGxu137oZB87MQH/fNwIW3MiL/j4j2lFnzgWAW1YoBcQ7nnh3SfFpgsZk4ro0Ns8ltCiUlUtrlKMlxRn/Dr6I/6uMkbWxYb4jBuLSyXpnXX2+oc8rvizzlk++sC+KYRXknO86jesPof+ajznXSUx5HQ70iwkTifE5CO6q5ssACM1EDkY0bir2A2camrrDpL8BmEypdXlNUX3Npbb2iln1WIA9ZcqhRuJZTFgnBH48yYQE2PWUd3ddNBBjGKoL6xsS5mnt2MPNpgUVlIvpEFYkULlXW8pAVNroAuy2yWdexueiATRrW2pCdbHRfr6Jxg141oYuEi6XKen0el47pEhBW2HTKw04UgomI6zPFueIbmc/n9LOjmkMLLDYTi5V5EzZ8ZfsGLlXWW6PU+4hqT5ldGzjg4jxqwzZumPLIVIjcsoMLaQtPGRXCpGFdYaPlYY+nrJ1lFLuxd4DpxDmcgXZI82aBhWciQ4eIGGpnuWhxqLUhSq+5FqXwlCkMdfV17SkXBdhaGLL0unaWO4UhoodF14ai9JqhQ2jDzgo4akMtDzE2IM7b3LPjmU8LLDAT4T53akM2btB7RSGXAg6uX46SGjUXmwFMslT5ejpg69AhtOG45ShcMaajh0VaWWvDgoYGxPmceHZUc2uBxWYisKjb2NRBQ6AQEKQ81O2vaxpSHqLhK1IoulFzkVMunGVEDIu4oW4rwKXK2lOunWXSsPCUoRDZh5nasG60h67L51e++8PcTj87sDm0wJIwUaeVmVBm3LBu3FBsbERnGVt5tEuVU901WxzWjRs25Sy/37ZsKDoLwF/Wa1F0DbbWhtpZrjPLOnRIOIKJ5jXP4cSzQ5pbCyw8EykVRyWHkvZEpzbU8lAnUrhBSmfPV6KQ2rA/kYJcStGUtG610ikPmVaulyoX8hAcLJbQdnrKRftlY+LcTj87sDm0wDIwEVikPLzaMrEzraw9ZcjDuv11XWFTOMtFw1fdkZRpZTb1qoXhqAA7t2/orLAZR0MdN6QYZFqZnjK7jaL1/Bz+7OyQzAJza4ElYSKwWMhDpFP0TvMoOaSnXMQNIQ+1s8z+hmDiOGeZ/Q2hDXWRDYHI0CGEYe0sw01mTnlDT5kovCCihSGA+Hq7z+fc/vLswMwC82mB5WEisFhoQwKxKMAu0sq1s1wXYOuG9dfZARsRQ+0sA4WbKsAmE2t5CCDO5w/OjsosMOcWWComAos6blgX2VAb6npDMrE/bthTgA1Pud4oalyFDYoNmUKpacgsSpFW1igEDbWnzGb0c/6zs8MzC8ytBZaNicDiYDiqN6Q85FJl5JQn3BqliBvqHdDpL9ee8iT1hm/l3c3JxHH1hggg6pwykircq0jv5GtAnNtpZge2QBZYQibC+oNh2gOANyZSdNCwSCsjXIjQYWfJoV6fh+UoACLXKUMV4l53q68TKaQh4objSg570sqUh0ChBRAXaNbZoc6zBZaWiRSMdJZnWYDNqsOahkVOeRwNi7QyHo6Th5Zfnuc5Zse2WBZYZibiTAyGo9JrBg11l8O6cQOXKmtPWVfYUBtuYb0hgob9njKih4WzDBpaBeJizTo72nm2wPIzkYJxMEzbAKC8pkgra095awuwx63PYwoFg55ECrWhOcvzPJHs2JbGAivBRJ4t7JKxYQE2lypTHupECnvYMKfcv1S5cJa5HGWKAmxmUfBF+L1sYBYwC2yVBVaLibAa9w/qTCvr9tedfb1YfU0UotJwXL0ht83roSErbFCATW1YeMqGwq363dv7mAXGWWAVmUhbEI7F4jyikKFDvRyF+ROsRWEWpSg51CjUNIQ8BATrIhuWHGpPmcfJI7eBWcAssE0WWGkm0qaETr04j3tF1fJQ05BA7PGUa2eZ8pBZZqKQh2T5E54mG5gFZmABY+I6I2sSDYbCekOGDse1sQEKxy1HmSStzAJDHMO6w7IHZgGzwKwsYEzss3SByMFQEDTUW6Po6mvduOGiCG4Ug7oAu35n04N9Z8L+ZhaYlQWMiZuzdCfLpnhyc59qrzYLmAVmZQFj4qwsbZ9jFjALLIIFjImLcJbsGM0CZoFZWcCYOCtL2+eYBcwCi2ABY+IinCU7RrOAWWBWFjAmzsrS9jlmAbPAIljAmLgIZ8mO0SxgFpiVBYyJs7K0fY5ZwCywCBYwJi7CWbJjNAuYBWZlAWPirCxtn2MWMAssggWMiYtwluwYzQJmgVlZwJg4K0vb55gFzAKLYAFj4iKcJTtGs4BZYFYWMCbOytL2OWYBs8AiWMCYuAhnyY7RLGAWmJUFjImzsrR9jlnALLAIFjAmLsJZsmM0C5gFZmUBY+KsLG2fYxYwCyyCBYyJi3CW7BjNAmaBWVnAmDgrS9vnmAXMAotgAWPiIpwlO0azgFlgVhYwJs7K0vY5ZgGzwCJYwJi4CGfJjtEsYBaYlQWMibOytH2OWcAssAgWMCYuwlmyYzQLmAVmZQFj4qwsbZ9jFjALLIIFjImLcJbsGM0CZoFZWcCYOCtL2+eYBcwCi2ABY+IinCU7RrOAWWBWFjAmzsrS9jlmAbPAIljAmLgIZ8mO0SywIBYYLD5RFv8bLMhvxQ7TLGAWWAgLGBMX4jTZQZoFzAIzsoAxcUaGto8xC5gFFsICxsSFOE12kGYBs8CMLGBMnJGh7WPMAmaBhbCAMXEhTpMdpFnALDAjCxgTZ2Ro+xizgFlgISxgTFyI02QHaRYwC8zIAsbEGRnaPsYsYBZYCAsYExfiNNlBmgXMAjOygDFxRoa2jzELmAUWwgLGxIU4TXaQZgGzwIwsYEyckaHtY8wCZoGFsIAxcSFOkx2kWcAsMCMLGBNnZGj7GLOAWWAhLGBMXIjTZAdpFjALzMgCxsQZGdo+xixgFlgICxgTF+I02UGaBcwCM7KAMXFGhraPMQuYBRbCAsbEhThNdpBmAbPAjCxgTJyRoe1jzAJmgYWwgDFxIU6THaRZwCwwIwsYE2dkaPsYs4BZYCEsYExciNNkB2kWmBcLLMEOzv2mNCb228f+ahYwC6yWBf5/AMe+6gTGqGAAAAAASUVORK5CYII=;" vertex="1" parent="1">
          <mxGeometry x="1510" y="7" width="433" height="326" as="geometry" />
        </mxCell>
        <mxCell id="BiONEzgEwyhmPc-SouFR-35" value="" style="endArrow=none;html=1;rounded=0;" edge="1" parent="1" source="BiONEzgEwyhmPc-SouFR-32" target="BiONEzgEwyhmPc-SouFR-30">
          <mxGeometry width="50" height="50" relative="1" as="geometry">
            <mxPoint x="1250" y="290" as="sourcePoint" />
            <mxPoint x="1300" y="240" as="targetPoint" />
          </mxGeometry>
        </mxCell>
        <mxCell id="BiONEzgEwyhmPc-SouFR-36" value="Ввод названия комнаты" style="ellipse;whiteSpace=wrap;html=1;" vertex="1" parent="1">
          <mxGeometry x="1310" y="150" width="120" height="80" as="geometry" />
        </mxCell>
        <mxCell id="BiONEzgEwyhmPc-SouFR-37" value="Ввод пароля комнаты" style="ellipse;whiteSpace=wrap;html=1;" vertex="1" parent="1">
          <mxGeometry x="1310" y="10" width="120" height="80" as="geometry" />
        </mxCell>
        <mxCell id="BiONEzgEwyhmPc-SouFR-43" style="edgeStyle=orthogonalEdgeStyle;rounded=0;orthogonalLoop=1;jettySize=auto;html=1;" edge="1" parent="1" source="BiONEzgEwyhmPc-SouFR-38" target="BiONEzgEwyhmPc-SouFR-32">
          <mxGeometry relative="1" as="geometry" />
        </mxCell>
        <mxCell id="BiONEzgEwyhmPc-SouFR-38" value="Ввод количества мест для записей в очереди" style="ellipse;whiteSpace=wrap;html=1;" vertex="1" parent="1">
          <mxGeometry x="1070" y="280" width="120" height="80" as="geometry" />
        </mxCell>
        <mxCell id="BiONEzgEwyhmPc-SouFR-41" value="include" style="text;html=1;align=center;verticalAlign=middle;whiteSpace=wrap;rounded=0;" vertex="1" parent="1">
          <mxGeometry x="1241" y="10" width="60" height="30" as="geometry" />
        </mxCell>
        <mxCell id="BiONEzgEwyhmPc-SouFR-42" value="include" style="text;html=1;align=center;verticalAlign=middle;whiteSpace=wrap;rounded=0;" vertex="1" parent="1">
          <mxGeometry x="1241" y="200" width="60" height="30" as="geometry" />
        </mxCell>
        <mxCell id="BiONEzgEwyhmPc-SouFR-44" value="extend" style="text;html=1;align=center;verticalAlign=middle;whiteSpace=wrap;rounded=0;" vertex="1" parent="1">
          <mxGeometry x="1100" y="220" width="60" height="30" as="geometry" />
        </mxCell>
        <mxCell id="BiONEzgEwyhmPc-SouFR-50" style="edgeStyle=orthogonalEdgeStyle;rounded=0;orthogonalLoop=1;jettySize=auto;html=1;" edge="1" parent="1" source="BiONEzgEwyhmPc-SouFR-45" target="BiONEzgEwyhmPc-SouFR-49">
          <mxGeometry relative="1" as="geometry" />
        </mxCell>
        <mxCell id="BiONEzgEwyhmPc-SouFR-52" style="edgeStyle=orthogonalEdgeStyle;rounded=0;orthogonalLoop=1;jettySize=auto;html=1;" edge="1" parent="1" source="BiONEzgEwyhmPc-SouFR-45" target="BiONEzgEwyhmPc-SouFR-51">
          <mxGeometry relative="1" as="geometry" />
        </mxCell>
        <mxCell id="BiONEzgEwyhmPc-SouFR-45" value="Редактирование очереди" style="ellipse;whiteSpace=wrap;html=1;" vertex="1" parent="1">
          <mxGeometry x="840" y="150" width="120" height="80" as="geometry" />
        </mxCell>
        <mxCell id="BiONEzgEwyhmPc-SouFR-46" value="" style="endArrow=none;html=1;rounded=0;" edge="1" parent="1" source="BiONEzgEwyhmPc-SouFR-45" target="BiONEzgEwyhmPc-SouFR-30">
          <mxGeometry width="50" height="50" relative="1" as="geometry">
            <mxPoint x="1170" y="280" as="sourcePoint" />
            <mxPoint x="1220" y="230" as="targetPoint" />
          </mxGeometry>
        </mxCell>
        <mxCell id="BiONEzgEwyhmPc-SouFR-47" value="Удалить очередь" style="ellipse;whiteSpace=wrap;html=1;" vertex="1" parent="1">
          <mxGeometry x="1020" y="-100" width="120" height="80" as="geometry" />
        </mxCell>
        <mxCell id="BiONEzgEwyhmPc-SouFR-48" value="" style="endArrow=none;html=1;rounded=0;" edge="1" parent="1" source="BiONEzgEwyhmPc-SouFR-47" target="BiONEzgEwyhmPc-SouFR-30">
          <mxGeometry width="50" height="50" relative="1" as="geometry">
            <mxPoint x="1061" y="112" as="sourcePoint" />
            <mxPoint x="943" y="69" as="targetPoint" />
          </mxGeometry>
        </mxCell>
        <mxCell id="BiONEzgEwyhmPc-SouFR-49" value="Изменение количества мест&amp;nbsp; для записей в очереди" style="ellipse;whiteSpace=wrap;html=1;" vertex="1" parent="1">
          <mxGeometry x="910" y="280" width="120" height="80" as="geometry" />
        </mxCell>
        <mxCell id="BiONEzgEwyhmPc-SouFR-51" value="Запрет на ввод новых записей" style="ellipse;whiteSpace=wrap;html=1;" vertex="1" parent="1">
          <mxGeometry x="770" y="280" width="120" height="80" as="geometry" />
        </mxCell>
        <mxCell id="BiONEzgEwyhmPc-SouFR-54" style="edgeStyle=orthogonalEdgeStyle;rounded=0;orthogonalLoop=1;jettySize=auto;html=1;entryX=1;entryY=1;entryDx=0;entryDy=0;" edge="1" parent="1" source="BiONEzgEwyhmPc-SouFR-53" target="BiONEzgEwyhmPc-SouFR-32">
          <mxGeometry relative="1" as="geometry" />
        </mxCell>
        <mxCell id="BiONEzgEwyhmPc-SouFR-53" value="Ввод времени ограничивающего ввод записей в очередь" style="ellipse;whiteSpace=wrap;html=1;" vertex="1" parent="1">
          <mxGeometry x="1230" y="280" width="120" height="80" as="geometry" />
        </mxCell>
        <mxCell id="BiONEzgEwyhmPc-SouFR-55" value="extend" style="text;html=1;align=center;verticalAlign=middle;whiteSpace=wrap;rounded=0;" vertex="1" parent="1">
          <mxGeometry x="1181" y="230" width="60" height="30" as="geometry" />
        </mxCell>
        <mxCell id="BiONEzgEwyhmPc-SouFR-57" value="" style="shape=image;verticalLabelPosition=bottom;labelBackgroundColor=default;verticalAlign=top;aspect=fixed;imageAspect=0;image=data:image/png,iVBORw0KGgoAAAANSUhEUgAAAxcAAAEvCAYAAAA3ljzVAAAAAXNSR0IArs4c6QAAAARnQU1BAACxjwv8YQUAAAAJcEhZcwAADsMAAA7DAcdvqGQAAICpSURBVHhe7b0HgBxXle5/RjlZyTnISiPZluWcAIMjSatd0PvDM49dwEuwZ0kWPCObYHDAsMAAu7OEZYyTDLssXt7b4YEYJzniNc5pPJZmRtGyLNnKWZr0v191nZk7V/dWV/X0hJ75fvbRPee7oaurq27VmeqqLms3CCGEEFIgZWVlwkMJIWSgs3379tgrDsOHD5fKyso4EvnwgvdH5e9q7pEvLbwq8l3uve9+OfmEqdG8e/T0U+TrP/1/ct7pc+Tc00+KWySzdfObsn/vHjnquGlRvGHdann1hSdk68Y1MmPGDJk6daqsXbtWGhoaZPT4w+Wv/9eVUTvlqRdelSdfqJcfLFwQK10pMzYk5xJCCCGEEEJKjbKydhmS0g497HA5ZsrUjhj+CaecJZOPOl6WL18uzz//vCxbtkzGjD9UTph7Zpe+MLxWPphcEEIIIYQQUsKUlRVuU6bPkpPPfIeMm3SE7G0pi8oTTjlbTjz1rIPapoHJBSGEEEIIISUKzvm7a0cfO1U++NErO+zEU0xi4WkHyweTC0IIIYQQQkoVc8bvXmHoKUuTXTC5IIQQQgghpESJzvmtBKBHLfeSiTC5IIQQQgghpAQ5fNIhMnL4UDmw/4A58W/vUWtpaZFhw4bIiBHD4lf3w0fREkII6RZ8FC0hZDDQHx9Fe+8Tr8r23Qdkwvhx0tLaFrfqGYYNHSL79+03ScYBuew9Z8ZqV3Blg8kFIYSQbsHkghAyGOiPyUVLS6vUPl4vLzSsk737m+NWPQOuWJxafowsuPDU4NULJheEEEK6DZMLQshgoD8mFzYd90Mc7ER0jQwHCbbkVMahp0sXUM97LgghhBBCCCFFgckFIYQQQgghpCgwuSCEEEIIIYQUBSYXhBBCCCGEkKLA5IIQQgghhBBSFJhcEEIIIYQQQooCkwtCCCGEEEJIUeDvXBBCCOkW/J0LQshgYCD8zsWa1atk/bqVMmZEi+zcP1za2nNthpTtMmOulw1vHCLjJ0yW3Ydsl03D34rqrjjnix1DdR3xYFDPKxeEEEIIIYQMcHZtXSFNy5+SNSueksPHvyBHT3je2HNyxMinZJI8JRPbXpSJ7c/K1pWPyZsNT8rWTa/Kuta1ce/0MLkghBBCCCFkgNLW2iob3lgvr7z0pGzfVCeTxm+UCRM2yWknbZIzZm2UU6aul5OP2SRzjmmXt5+0R044dLlMHbJBjiwbIkPGxINkgMkFIYQQQgghA4S9+w502L79LbJrz3555sk/y2P//aocNnm3nHvWMHmmbo+8+eZ+2fnWHmnefcD0apOhZftl3Jj98vbTXpfZ07bI7n07pGnDi7lBM8DkghBCCCGEkAHCPY+9EludPPj0KnllrUkaRh2Q//m+Q+XQiaNlzfoDcs6ckVL57Zelvi53H8kw2S5j5dnImt/cIAe2HZDWAyYx2bQrqs8CkwtCCCGEEEIGCHv3NUvL6GNk/OSj5dCRO6Vt02Ny0nE75KVlW2T1uuGyfethUnNPs3zoozPkxcZmufe+tbJ62XppWCZRsvHYM/vl2ed2yYbV26StrS0eNT1MLgghhBBCCBlAjBo5SkYO2SsjWtbJqLbXTWKxUdZvHi7rNg6VDW/sk7FDWmTtm2UyadxW2bBhjdxV85r87D92y6//sFPue2WyvPrmYbJjz8h4tGwwuSCEEEIIIWSAMGncSDl2gilHtUhby37ZsbtZ1myeJFPLT5NDjyiX/c2jZNLYVql77g1p379RNu3cL8+vO0I2lr1Dto+6REZN+4AMP+JMOdA2Tpp3NMejpofJBSGEEEIIIQOE2VMmyFnl4+T0k0+U8YefJivWD5cPfPhD8sEPfkD++q8/KNNOuFAeen64nD99s/xpqchL606Vef/zSvnhT38i//iT38q1131XLrz4Ujlk2CEyetPYeNT0MLkghBBCCCFkgDFm9HA57dSTpOKKz8iMY6fLyOEj5bDDJhptjpx5zvny5KojZMEnvyJf+c4/ydGzTpcfVX5Hdu7cGfV9+9veIdd96TtS/aXfRXEWmFwQQgghhBAywMCveI8YMVwOOeQQGTZsWBQPHTJEjjjiCLng4vfKhz99vbz9wr+S446fJkOGDY9+gVxv4B45cpRMHD9JDht/RBRngckFIYQQQgghA4S2VpH2dpFNmzbJsmXLZMWKFdLS0iLr1q2L4tWrV8nOnbtkyIgJsnXbDuPviHsWByYXhBBCCCGEDBA0udi3b190NUKvSOzevVu2bdsub23ZLus3ddrO3fvinsWByQUhhBBCCCEDjKOOOkpOO+00Ofnkk2X48OEyffp0OeXU02TWSafKodNP67DRk46KexQHJheEEEIIIYQMMNasWSOPPPKIPPHEE3LgwAGpq6uTPz/2iDz/5KOyvu6RDtv15pq4R3FgckEIIYQQQsgAYdRo3LgtcuSRR0ZXLubMOVnKhgyTKVOny8lzT5NTTsnZETP1ysWRcc/iUNZuiH1CCCEkM3gCCQ8lhJCBDu5dKCb4qlJlZWUciXx4wfuj8nc198iXFl4V+S733ne/nHzC1GjePXr6KbGaoywu//iH35vkor0jBq2Yoq15us3UbtsX64bNG1+X15pelhtv+p5MmjTJKHZvQxw66kGgnlcuCCGEEEIIGSDs3r1H1qx9TZY1NHZYY6OxpqYOW9HUKJtfb5Rt63M2tHWPzJ17avTo2u7CKxeEEEK6Ba9cEEIGA6Vy5cLjRBx01eEgwZacyjj0dOkC6nnlghBCCCGEEFIUmFwQQgghhBBCigKTC0IIIYQQQkhRYHJBCCGEEEIIKQpMLgghhBBCCCFFgckFIYQQQgghpCgwuSCEEEIIIYQUBSYXhBBCCCGEkKLA5IIQQgghhBBSFJhcEEIIIYQQQooCkwtCCCGEEEJIUWByQQghhBBCCCkKTC4IIYQQQgghRYHJBSGEEEIIIQOU1jaR17Y2y789v0t++Oj2yH7639vlxdf2yK59rXGr4sHkghBCCCGEkAHK/pZ2eXDFXtmxZ79MGnFAJg/fL+3Ne+WRlXvkrV1MLgghhBBCCCEpOdDaLk+9vl+mjBd534yh8v6ZQ+Vtxw6VVza1ytb9bXGr4sHkghBCCCGEkAFKe7uxtjYZPbRNRg4rk9GjRspRk8dJWVQZNSkqTC4IIYQQQggZoCCx2LFlu7y5da/sbTbxkOGydW+ZbNu8XZoPGKHIMLkghBBCCCFkgDJ6xBBZcOokWfZmi/zkkc1See96+c1fNsgFM0bJ0YcMjVsVDyYXhBBCCCGEDFBGDC+T88vHy1nTDpH2fbtlw/oNMmNiu1xy4kQ5bMLIuFXxYHJBCCGEEELIAGT7vjZ58Y398sbedpk8brhMHtUuY4c0yzEThsqutmGy7K1meWNncZ8YxeSCEEIIIYSQAcjabS1y+9M75bandsq/PrZJ/rJxuKxqmSx3PrNbqv+yXW59aoc89/r+uHVxYHJBCCGEEELIAOTEw4fLTe+ZLF995yj54vmHyNlTRslxE4bI358xXD57Wqtcd+E4ubR8VNy6ODC5IIQQQgghZAAyfGiZTB49RI6aOEZmHX2IHD5+pIwdMURmHj5SZh0zSY6cMEpGDStuOsDkghBCCCGEkIFKWZkMHzZUhgwbKWVDh0q7lEWPox09epQMHVr8VIDJBSGEEEIIIQOU9vZ22dvcLq9u2Cfb97bK0CFD5KX1zbJ55wFpbi3+r+gxuSCEEEIIIWQAgsTiQGuZrN7SIn98cbPs2rNfjh4/XP706m55ds0O2brrgLThJ7yLCJMLQgghhBBCBiD7WkRWbm6WO57dIadMGSMfPmOCvPek0fL/nXqI3LNa5InVu+Wt7XxaFCGEEEIIISSBtvYyWbO1RWrqd8nZR5bJnMOHyrGTR8m0IyfKqVMnyCXThsnyza3y3OsHZM/e5rhX92FyQQghhBBCyAADX3caM2KInHTECDnjmOFy3KSRMn7MSBk7eqQcNXG0vG3aGDnlyJEyYVSZHGgr3lejmFwQQgghhBAywBhSVibHjB8m808cJ0dPNInF2FEyYvhwo4uMHjE0SjAunDFa5hw1UoYZrVgwuSCEEEIIIWSAMaSsXYYNaZfhQ9tl3OgRpjz4tH/M6OEycewIGTdmRKx0HyYXhBBCCCGEkKLA5IIQQgghhBBSFJhcEEIIIYQQQooCkwtCCCGEEEJIUWByQQghhBBCCCkKTC4IIYQQQgghRYHJBSGEEEIIIaQoMLkghBBCCCGEFAUmF4QQQgghhJCi0C+Ti7IbDzZCCCGEEEJI/6bfJRdIJNqv325sq7HNxt40toEJBiGEEEIIIf2cfpVcaGIh0hZba0fZfv3aOMFYgX8IIYQQQggh/Yx+k1wkJRbqt1+/wrSbaXxCCCGEEEJIf6OffS0qnFh0luDVuCSEEEIIIYQoix/YI7f+cZv87D/flH9a/Lp8/xcr5dv/tFyu++7Lcs11z8qtdy6PW/YM/SK5yF212Gq8fIkFrl68atqfZHxCCCGEEEKIzQvLd8nokcNk5rFjZObxY2Xm1ENkxrQJMmP6RNmxq0XqX90Wt+wZ+tGVi/yJRWdMCCGEEEIIcdm9bY8cOm6ITDt2tMyYYpKLaeNl1owJMnvWZDn00NFxq56jHyUXaRMLlIQQQgghhBCXPSa5uP/JrXLnH9+U2/5rvdz62zVyy69Xyi/uWC7PPLcpbtVz9Ivkov16fDXqCOPlTyzKbjzVtH/W+IQQQgghhBAbXLn4m3dMkEWfmCLXXjFTvvaFk+S6q0+Rb33tLLnwwmPjVj1HP7uhOzmxyJUAPiGEEEIIIcQGVy6Gl4mMHT1Mxo4xNna4jBk3QsYcMlJGjBgat+o5+k1ykbt6cbzxwolF2Y1nmHZPG/8cY4QQQgghhBAbXLmorV0pt99RJ4vvrJO77qqTf/tVnfzm3+qk7qW34lY9R7+6ctH5OxZJiUW7MUIIIYQQQojLeWdOkr2798rLL66Th5Yul9/+pl6e+UujrG3cIJMnDJE5J02MW/YMZe2G2O835H6Juyu8YkEIIf2TsrIy6YeHEkIIKSrbt+PHnovH8OHDpbKyMo5EPrzg/VH5u5p75EsLr4p8l3vvu19OPmFqNO8ePf2UWM1RFpdwmptbpLFhndTes0r+dP9u+dTHJshFF5woRx97qAwdGn81qqNDJ52SUxmHni5dQH0/u+ciB74iBevqM7EghBBCCCEkHyua1sh//X6N/OGeXbJrd5vc/uvtct/SBlm/bmPcoufol8kFIYQQQgghpDDuuX+77NnTLG8/d7SMHlUmf/WesfLiy3vkmRd2R/V79rfL3Y/tkV8u2S4//z+bpOrfNsgPb3tN/vFnK+WmHy2Xr93wvNx6x7KobVaG4LJKfzXg02k0Go3Wf4xzNY1GG+hWasw56Ui55JIZctZZR8vIkcONP00uunC6HH/8pKi+paVd6pr2yOjhQ2TGMaNlxrFjZPpx42TalENk6vETZNuOFqlfVtgveQ/B92T7qwGfTqPRaLT+Y5yraTTaQLdS473vOVYuvWSmTJlyuBw6eYh5D6OMNlXOOuOwqL69rV327Mj9kvfUo0dFv+Y9fYpJMI4fJzOmHSKTJo6I2hUCvxZFCCGEEELIAGTSxCFy0uxhct/9r8ryZZtk06Z9Odu8T3Zv7Zlf8i674YbC0rFp00QuvzwOUnLxYpGHV8dBD3CRWaaHMixTTy8PIYQQQkhfcPpRIs9XxAEpCqX0tKgcZfLWm1vkvx+vlz//Za+sXtsmu/fGNUPKZMSkibKw4iQ55aRJ0tya+6oUrNnY7363TDZv2CY//v7b4g5diiCo75ePolXwSFp9ahQhhJD+CQ5ypfi1AUIGMjyHKj6lmFwcONAs27bukLc2t8qunW0mccjV7NzVIrf9ZrV8+fOnyVlnHC7NbSa5MAkGkgzYf/xbnbyxdnNByQW/FkUIIYQQQsgAZMSI4XLEkYfKyXOOkLedd5S86/ycnXv24dKy/0CP/JI3kwtCCCGEEEIGESOGD5EzTpkke/fskxUrNsuqlZtl7arN8vqazbJh7WY5dOIQmXNiYb/kza9FEUII6Rb8WhQh/Q+eQxWfUvxalM1BX2k6SLAlpzIOPV26gPp+e+Vi2z6TVQ3NlYQQQgghhJD+T79MLpBQ/I/fitz1P3IlEwxCCCGEEEL6P/0uudDE4p/eJ/KRk3MlEwxCCCGEEEL6P/0qubATCzyfGaBkgkEIIYQQQkj/p98kF77EQmGCQQghhBBCSP+nXyQXSYmFwgSDEEIIIYSQ/k2fP4o2TWJh88IGkS/fK/JfHxGZOCoWC+TixSIPr44DQggh/R4cJ56viANCSBA+irb48FG03i5dQH2fJhdZEwulmAkGIYSQ7tGbv3PBEyZC0sF9pfgwufB26QLq++xrUYUmFoBfkSKEEEIIIaT/0SfJRXcSC4UJBiGEEEIIIf2LXk8uipFYKEwwCCGEEEII6T/0anJRzMRCYYJBCCGEEEJI/6BXk4tP/r64iYWiCQbGJ4QQQgghhPQNvZpc4OlOxU4sFIyL8QkhhBBCCCF9Q5/c0E0IIYQQQggZeORNLmorKqQ29puqzpeqpjgghBBCCCGEEIu8ycW8RXPk5iijqJXK+utk/pIqifKLpqpcotFUK1UmAamoqIqTkDiuqjXtmqS2yrQzcZWJa2tNG+1jnCaNTWnH6BPpHeiYudduisuOZTBRVZVVj/EQdyxT1/ooNnXQfMtBCCGEEEJIKdPe3ibNza2ye1+77NzTLjv2tOVst1prZNthu1oi27G7RfYfaIn6Fkr+r0WVL5Tr6ivNiXqNzFk0Txrr66URemO91BunSWbJ/EWLZNGCeqkxZ/q1pt3s6mqpnj/LVJbLvIULZbZpPnvhPJnVUC8NjeZkvrFB6huMiBgn+jV3d8Q1lRXSMH+hzCvHi+ToHFOk0ryGuwy1FZViFkIWxfUYR+ab9oskXianvmmJ1M+ZLwvnz/EvByGEEEIIISXMjm075JXGN+W3j+2Vny3ZKf/y/3ZI1e+3yT/9fov8+L82yY9+95ZU3r1BKv/jdfn+b16TH/xmtdxS0yQvvLJWtm8r/NfIU91zgasXdbJAFpoTfvg1uIpQUxfVNS6plMroTH9OFHdQXo7/D6K+oVEacfIfU1+5RGYvuiyOcmPWLwlcPSg3aYrJJtxliPo1mnEbZ8sCk0B0ELf31s/uunBdl4MQQgghhJDSZPvWrdLwerOs3z5STpvSLP/rgkPk45dONDbZ2KHysUsPk7+99AhjR8r/uuQY+cglx8kH33WsTD92gixb1yIvN26VbVu2xKNlI29yga8MVVTWy3XV83JC+UKpxlWEBXNzMU7cTcKwpObuKDWYt0DMiX/ua0y4SOAyZ/48mTdfE5E6qZszX+KRDXNlzqJqWVBf2aVv55i5qyfuMswz5d01DWY5asyiIGmok7srq6IrHmjftV6k6nKzrDUmOak05d1LpPGg5SCEEEIIIaQ0WfXmEGnaOETWbR0iqzc2y8r1u2XFup3SuHabNK7ZIg2rN0nDqo2yfOVGWbZyvSxbsU6WNa2TRuO/unKTPNewVZa/ticeLRtl7YbYHzA0VVXIkvnV0ZWWg6kVk/eY5CSXSuCGdRMwsSCEkAIpKyuT3jqUlN0o0n59HBBCgnBfKT7btxf+VSEfw4cPl8rKyjgS+fCC90fl72rukS8tvCryXe697345+YSp0bx79PRTYjVHWVzCqXlin2zf3SYTxojs2NMqra0t0tpizCpbOkpTb/yWWBs9cpgcaBGZduwE+dQHTugY0yqCoH5AJheEEEJ6DyYXhPQ/uK8Un1JKLhY/sFumHD5S3nPGWGlpa5dWY21tEpUwk0+YxKJdmk3ZgtLUNbfk9Lb2Mnn4L8tl967t8rVPn9cxplUEYXJBCCGk2zC5IKT/wX2l+JRScnHn/btk606RQ8aUyRub90lrywGTTDSbMmctcdkRW3UTx4+R3XsPyMzjJsjXr3hHx5hWEQT1qW7o7ms++fvYIYQQQgghhCSCP/hMO2qYzDvnEPnIRZPlIxcfKZddfIz8z0umyP+8dLp8+N3l8qH3nCD/33tPlgXvPdXYGcbOkQ+8721y8TvPkOOOOVzaCnwcbUkkF3e+EDuEEEIIIYSQRPA7Fbv2tsr6LS3y2lsH5LU398W2V17buFvWbdxlbKes27BDXt+4XV7fsM3EW2T9hs2y8a1tsmv3Xmlva41Hy0ZJJBeEEEIIIYSQdBw6pkW2btsjT9Rtlxcad8iKN/bJoy+8JU/Vb5aXmrbIfU+slsa12+XPz66SZ15+Tda8vk1Wr9sirzSul+dfXi4H9myXYw8bE4+WDSYXhBBCCCGEDCDOPL5NZkzeK4eM2CNnlw+V+W+bLIeOa5OZx4yWs0+cJEPa98sl502TyeOHyYwpk2XexafJey88Q848/SQ56tDRct5Jh8m7zz4+Hi0bTC4IIYQQQggZQBxz3KFyWvk4OWZsszzTsEuq/u15WbZyo/z52RXyXw+8LDt27pbbf/uorFy7UZ5+Ybn86+I/yJ3//kepe/FpmTtlrLzrrBly7JTD4tGyURJPi+ITDwghpP/Cp0UR0v/gvlJ8SulpUWD//hbZseuAbNsrsmfvfmlva4/uxTBbRm7ONoYyN3/n4lEjhsgRk8bIpInjZOTI4dE4EQPtaVGEEEIIIYSQ9CA5OPzQsTLruLFy2qzJcsYJh8qZJx5u7Ag566Qj5ayTj5Kz5x4t55xyjLFj5ZxTj5NTTzxGjjpyYtfEIiMlceVi0vdFtu2LA0II8XD6USLPV8QB6VV45YKQ/gf3leJTalcuLCfioKsOBwm25FTGoadLF1DPH9EjhAwIeCDtO5hcENL/4L5SfJhceLt0AfX8WhQhhBBCCCGkKDC5IIQQQgghhBQFJheEEEIIIYSQosDkghBCCCFkgDFtYuwQ0svwhm5CyICANy/2Hbyhm5DeAdt/T8J9Kxne0O3t0gXUM7kYJPT0hJQGTlqkJ+FJZ9/B5IKQ7pPmOL3dbPvunpYvBmn7HJ5iGQbz/sfkwtulC6hnclGiZE0WMCGB0Ift07O0Bfn0NJOWDU8gSBZ40tl3MLkgJB1Jx+4d1nbt7k2+vStfm6xjqO/TFMRHJ7yHgb5vMrnwdukC6plc9EPSJA72JKSEPkifnqUt6O7YqqVtD45KsR54kkEUnnT2HUwuCDkY37F8p7PtuntNd2OQpY/6WfqAUHys5z0PpP2VyYW3SxdQz+Sij0hKINzJB4Q+JJ+epS3oibHtOO04acdWoPsmMoUnIIMLnnT2HUwuCDn4uL4r3k7dPSNfDLL2yTqm+j5NyTcG8PV3teOd9VLK+y+TC2+XLqCeyUUPE0oidNIBoQ/Ap2dpC3pzbDtOqrPJoufT3PopgXXPE5OBCU86+w4mF2SwYh/j8x3XXS1rDLozRhofFBrbelKfqdY6K7V9mcmFt0sXUM/kosiE/nLh4lvpoQ+iGHpPjWFrbn13xwZJY6Ydx9XsiQ3wRGVgwJPOvoPJBRlMhBIK4O4F+WKQtU/WMdT3aTZJYwBff59mkzQGmGaty1LYr5lceLt0AfVMLrqJm0zsNjtHmh1MKYbem2PYcdpx0o6tuLodJ9XZZNHtyQ3wxKU0mV4lsmphHJBehckFGegkJRQg37EpXwy6O0YotvWsYwBff5+m5IuBr82MEkg0mFx4u3QB9UwuMpI2mQDF0PvDGHacVGfTXd2Ok+psfHqWtgC6PcEBnsj0D9x9rxD4WfYMTC7IQMSec3zH+nwxyNqnu2Oo79NsksYAvv5Z+oBCY5Tl1rrvT/s7kwtvly6gnslFCtwJBoRWmk/P0hb0h7HtOKnOJouepGVt79Jd3Y7h99dJbiCSlEBsc9a9+zkpIR8cljA+P9vCYXJBBhI6D4WO992NQbHHUN+nKfli4Ovv05R8Y4CkWH2fpsyKP4/+sN8zufB26QLqmVwESJtQhFZeMfTeHlu1rO1d0up2nFRnUww9ScvXXic5wBOc7uFLJPQRy+7nYMdpfOCrC5XA9+hjfsbpYHJBBgJ2UuFuzb6tO1+brDHI0kf9LH1AUpzGB1lj4BvPpyluPDv+fPpy/2dy4e3SBdQzubBwE4rQiimG3h/GtuOkOpvu6nacVGeTRU/b1o6T6mxcXSc6wJOd/LjJhD5yOe1nk8YHvrpQqfj6gGOcZebn7IfJBSllsiQV+WLQ3THyjam+T1PyjQF8/X2a4sYgXxvfeFn6ADc+If68+mIeKKXk4rVNrbJrb1ss5CgzK7M9XqO5ORuCUWCWn6NFxo8ZItOPmZQLmVykpycSimKMAXpibDtOqrPJoufT3Prujg3S6nacVGeTVtfJDvDEpxN7/8JNkEnrPasP0vZJ205xfY3txxvzc+6EyQUpVbA95XviE3C1rDHozhhpfFBobOuFjmHjG8+nKfnGAG58Yh/MBaWUXCx+YI+s2tgiI4db6UCUPLRJG6ytTdqNtbW2RH5bW2tkra2t0Xy+f/8WOXHqcPnCh87J9Y2HsUbzgvpBm1wk/aVCSbOxK8XQe2oMW3Pruzs2SBoz7Thpx1YKGdet7+7YwKdjwgOD+QRI9y/7oG2vq6w+KKR/IX0U+El1+khjnuiaz5vJBSkx8s1RIF8MsvbJOob6Pk1xY5DURn2fZpM0BkiK0/ggawxs7aRenodLLbk49rAR8p4zxsYi1h2SC1Maa22DtcelSEtruzGRZmP7mkUe+O/lsnPndrnm8rNznTMkF0Ny7uBC/1Lh/iUVvm2KTwNZdFsL6TY+3dZCOrBjXBCzY+DGwNZCuo2r27FtwKcBnwZ8uq2FdGDHvfXeFdVeNdsVTA9egwW8XzXdv4C9rtL4wPV97fL5SXXA9oGruzGw/dXm/cHs900I6f8kzVEgbayaG4O0sWpJsaspoVi1pNjVlFC9xiApVj9kSqGxaurXm88QxvnXz6jhZTJh7JBOGzNUxhsbN9pYVA6TsaOGyZjIhstoY2NGD5exY4bL8GFDpR0nUgUwqJILPQHQCQW4G6zi020tq27j020tpNu4uh3bBnwa8GnAp9ua6q6mBtxY8em2FtJtXN2ObQM+Dfg0kEW3NZ+uE95An/T0PeIqYNakAri+r13IB67uGrB94PpJBmwf2P4q837VBsPnTUgpg/0Tc5Tu07ovuzEoNFbNjUFSrL77hzE1JUusfrHGVC0pdjUlVK8xKDR+JZ5/iR+sozbzT+4KhbG4bG7JXalAecCUkRkfdW2mQ6FXpAdFcqEHfD3x0Y3RXmW2FtJtsui2FtJt0up2bBtwY8Wn21pIVzR2JyrgxsDWQrpNWt2ObQNurPh0W8uq2/h0+JjwdNIbaBOfvidNKvS92+vB9oHr+9qFfOD6Saa4vsbqh0xxfY19/kqzHlYM0M+bkFJG90k8SEL3W2Dvx0Bj1dwYFBqrlhS7mhKq1xiE6l1NcetBllj9nk5cQJq4jnOvQ24NRevK/BMlFmpxEmEnFlGiAT8uW0yHtnZTUQADOrmwJxOdUHKrOofGtgay6LYW0m2y6Lamuvq9dXJvx/ZrArtONeDTQBbd1lRXv7feu+LTbS2k22DSG0gTH95DUlIBXN/XLuQD13fbhUyx43y+HSuunsbXbbPJrJfG+PMmhPQP7CfU2fsuSBur5sYgS6y+ezxTU9LGtoWO1UooVs2NQaje1ZRQvcYgbayaGwO3/uX4M345VwxqcNWhDWY2iFaTI8D0ngo1+2pFh8Uxkov2NhMUwIBNLuykwkY3RN0YFZ9uayHdJotuayEd2HFowrA14NNAWt2ObQNurGTRbS2kAzvurfcObC2k26TVUWLig5XqSSeWG2YnFcD17feczweu72vn8+1YcfWQr9sUcOvy+cDV3Rg0xJ91qX7ehAwEsP+l+QOjG4O0sWpuDEL1rqa49SApVj+kATcGaWPbCk1cFI1Vc2OQNrbNXq6XzGd9qvnMXzL+YAY3fJt/oysWzcZwxQIJRYtJHDquUljJxX7EsOZc2draHj1NqhAGZHKhE4lib4CKrYV0myy6rYV0G1e3Y9uAGytZdFtTXX17B3XrNFZ8uq2FdBtXt2PbgBsrWXRbC+k2WXRbU119d71i8iu1E04sr361UNH3A9L4wPV97ZJ8XZfArUvrJ9UB2weun2TA9pFgLC/Bz5uQgQD2O/w4p+6PwN4/QShO00YJxbbZxwFg+yAUq2bHPgO2D0Kxam4MQvU+DbgxKDRWzY1BqN6nvWg+89MG+Zzb1tpqEgljSCiMdblaEScS+jUo27RdCx5Py69F5bAnEjXFpwGfbmtZdRufbmuqu5oacGPFp9taSAd2HJrwbA2k0W18uq2p7mpqwI0Vn25rId0mi25rIR3Ycb71ismvFE44sYywrEkFcH1fu5APXN2NQcgHru4asH3g+m67kCmur/Gy+PMuhc+ckIEA9jX7V//t/RGkjVVzY5AUqx/SgBuDpFj9kCmFxrYVMxlSCo1DBmwfaPxCiRxjewr8ZgW+2tSRVMSJQ0ciAT++SmFfyYh8U7ZGX4vCVpCdAZVc2BOJohuZb8NL0m2y6LYW0oEd2zswDLgxsLWQbuPqdmwbcGMli25rIR3YcW+9d2BrWXUbV7dj24AbK6r198kPy2ZfrbDfi+0D1/e1C/nA9ZMM2D5w/SRTXF/jfL4dK67u8wfrY4oJ6Svs/Q9orJobg7SxanbsM2D7IBSrlhS7mhKq1xgkxeqHNODGIG2smhuDpFj9kAE3Buq/EJeDjej3h6Qsd9UiThg6EozYj74KhQQDbax2+CoVfgNj0D8tShMLewOzV4lPA1l0WwvpNq5ux7YBnwZ8GvDptqa6q6kBN1Z8uq2FdBtXt2PbgE8DPg34dFsL6TZZdFtT3dXUgBsrPh3+8/30ZFMTC2Avt+89+OpCPnB9t13IFNfXWP2QKXac1tdEGLh1+Xxg+3wuOyE9C/av7fH8BXz7oy9WzY1BUqx+yJQssfruH+HUlLSxakmxqymhWDU3Bmlj1ZJiV1NCsWrPmW3gjEE61w4dNkL2Nw+RzdtbjB2Qzdv2R7Zp+z4T75Mt24zt2Ctbtu+VrZHtka07YLtlx87dcgBZR4EMmF/odicSEHpjPj1LW5BWt+OkOhufnratHacdJ+3YSlrdjpPqbHx6lragJ8a247TjpB0bYPKLJsE47ms0sXCX1Y7T+CBrH/iF9FHgF9LHRuNQCUI+SNMO/slmPQ+EX5vmL3ST/ga2k22e7cTdSrsTr6w6Xz5fP1fmGL+9TuSvHq+WS+BHtZ3ki4Gtqe/TlHwxSGqjvk+zSRoDZI1BUhv1fZpN0hjAjs8028KzZls4M467Q6n9Qndd015p3bfbrI+t0tbaIq1trdG9GK3GR9mpmdiUrdDiJ0QdOHBAzjjpaLnh85dGsQ7e8RoBotvIB0JyYScWaTZCpRg6NEwwXzATzEmRUif1cxbLnxaWB9u7ZHk94Op2nFSXo0keqqqUe2WBVCycJ9NiVUn7miBJy9repRh6urZN8phZH0vN+vikWR/Hxyqw27ljpRu7E5/uapgA+8NJky+xSOODrH1cv5A+CvxC+thoHCpBqA/I6oOBkGAwuSD9DTu5cLdM35aar40dq7+yqkLun18tV5YbrbZCFkm1VM5rklvMMaXRpByfXbhQpptjzC0VS0Tm1IvMXiRXzGqUX1bWRPXvq14oM2qrZOWshSJLqkTmz5f2JUtkZb1pO2eBzJjdIO2m7uLGKrld5pvEZYksbaiXxvo58l7T92KpldsqaqRpzhxzPDdjmLF+0YAlmx0d36c21crt5rWazGu9x7SfHr/WRabfHY2zTP8lstrEF5jx7zTj//08kTvNsqP9Z8x4U6N3ifdWJd+qyS3TTWZcMeMuNuOuMO0uNeNONfW3mdedKbn3eFE87rvMuL8y4358XqPcZZZzhen/KfQ37bvWd54v+dazki8GvjZnmW1hMCYXr21qle07TcKAx0PJgdwcbaw9+tnt+CtPUaxff4rrIEdrrkwmjR8tJ0w/3PhRaBdBUD9gvhaVWy2daGxrwKfbWlY9x1z5wKJq+WG1mVgWXRYlGSvNznOLmXi+UlFlTlzRtlaqK8zkU2V2Kiv+SlWtrDLxKrSvbYrGjPoa3+yB8kvT5hrTZ5XZ3Zea8hYT/9L0edC0+aUZ/xoz/oPReLo8TWayMTu6qbstGqNJbjf+16Ix8DpLpN1Mhv9oJq0H49e4zYz5NTPmatP2IdPudhPfbuKHzGugH+rWmLqHozbmdZqq5CHTdY2pR7nalN8wr3l77D8c16HUGOUjpsSkcqd53dVm3EdMiHaPQjfk3kOt3Gle/1umfo2J15hSX3Nx1K5J7jLvp6Pe9F9s4uvN6z+GdnH99aZ+LZqb+FemDtpd0fo1sfFviOvXxOvjerM+HonqdTm6GnBjxafbWki30fi5uOxrdHnsZQ35IFQX8oGruzEI+cDV3RiEfOD6Saa4vsZpfOD6GtfFJSGk+2hi4dv/fLFqbgxC9TmtTn5fieO8ObbXzJF55rx5aUWlOaYsks/OF/l5lTmmNC2Rxjnz5Yr5c6TRnICvklny7kWmfkG93It6kyzcY8ZYMd+c9JeXy8VRQiIyHX/8M3U49t9Wc7c0mL5oKzh+LxK5z/R90JywTzfnHd81r/WLeKxZs+dLhdRIda057prXusS81hXmte439W0Yr9Ecf82CNMXjrTTj32nGX2HiR8yyi1n2z5jxbsV4+j7nLZSbqhfJpWZcHIcx7oVm3E+ZcR8w7cSMM9Ms/yfMe8Q4GBfnE78y4+J1HjXLOc0s5w3zZ5n10bV+pam3v/YFbB+kjVVzYyQWSDAGG1MOGypzp4+U02aNNTZJTp89Wc444VA588TDjR0hZ510pJx18lFy9tyj5ZxTjjF2rJx76hQ577Qp8rbTjo+sI7HIyIC6odvdoICthXSbtLod21oHZufBSWulmQRq40lgptm5fmB22p/GcTmSEWtn+8PNS6KJ5IGb744moaWmzQzT5vumz79WSTTpzDRDz4gnHUwy3zPjRxOU0SOLJ7JPmZ0ck9GD8UR3pRmjOp4EMJlgssJrdE5OWI5yucia2KabtpiorowmqnKZZsoHzRAPVZr3hr/UmPpVjSbhaZgv3642L1BpEpho/LjOlHg9lLk4N4lhspm6cLbcbybkW03fd2EstDXoJHSjGe42s7yr6+ujJEIa66WpEfW59/PpuB7jYz3cYNYDJrnH4snxk3E91keTWR8fjyc97Y/62+P+OslFk6J5KTXgxsDWQrpNFt1t09vgoOw+Dz5pGUPtbB+4fpIB2weun2TA9oHru+1cA1oCV8/nA9d326nhscSnDMIDHyE9iW9/U9LGtvlOgPUPi5U4tkdXEkCdOV41ysrG2fJ+c5yJmN35l/mVSyrl5+ZY1i5z4vFyf1poXGKdzMfAb6hcItMXXZYTDFGb8tki9WaQGDtubDCvbQ6LAK91i/VaoMnU4zitNMXj5+pzy77aLPu7ddkNqFttDsCrTTd822GNGfe26OXwhbBcvVti3KkHLXe5HB8f71fG9XYfNeDGoNDY1kjvUPLJBU6GtsYnQ0pog8qi25rqrqYG3FjBTt9udvoOPZ4EOtqbnW262dnAX1+Gvy6Y5OCyzh0S2GPoOB2lO8nArInMnujeE08WOpnYYDmmxsuhrwPDRLUqnoeONyfoTUuq5H5ZIBeaGPVN8STVLkg+4oTConM5cq87LX7ddpllEiWzbGZZc3GnRcTv612L5sgDuJJRk5uA7cnvUvN+7Pa5dVQn7aZ+TVwf4Vkf6H+xqccBY4U1CdrL0dnHr4Esuq359GfMdnx2H55kYl/yPQ9e0eUEaXzgqwuZ4voaqx8yxfU1zucn1YGQD1zf187na/yiWe9Y/4SQ4mDvX8Dd59wYhOp9GnATDnDxgrnyh5oGkxXUyApzaL7l8rvl1ZoKubbSlHcvkRU4Bpnj6gM1d8sy077dJCizTILy3vrK6Op/19eok+Vz5stFkQ/q5I+VVfIQ/ji5aJ5ctEDkvopauT2OcfxbXl9jjtF10R8i0b7dvNZD5rWWmwhjzpw/Ty40x/Lca9RJgxn/AjQ1vMss+5/iZV/VmDtuwh6tqpBHoiQFV15A7j08jD9SRnEObY96/JHznZEv8k6znA+a5fyVOZbfFb3HrvW5Pjk6x8ihsWpuDNLEpHcpkxva2/Hkktz9AqWHL7mw8elp29px0jirzY533/z4e5dNVbJoyXz5nFwuV9VfJl82J9xNZuK4orFCrqlZYE6pa0SsuDyO37ME391cII2X18j7F8+Re8wY35tdKV+1+nzKjP+Q2TmlulqmV50vXzbjX2XGXxnXmdN3uf38y+WPc+fKCWbnXVZ3mfzTdfXy5Zo58sU55sR/drVc0nC+/G9ZLP9n/hL5unmN75rX+Lq1HJ804zxsXqM9fo2v1M+V2Was8gWPR9/HfKTifFm16HG53LRbY973Q/MXieD7gnNE/mSSjh/IzXIN+tSZScssR1Retli+b9bHteZ1/8O87rfM677bTKSrFi2SaabvavO6n4iW36y/2gq53izPzHh5bP0GqTZWIX9n3s8/mPez2ryfC8z7+ZpZD/9g1gPG+bhZr6iviOrNst18udxrlmMWJjOzPr5j1sc3TP2VVv/rzHItNsv1bbNc31wYv6Ah7XYCsrQFoTHOMdtzX32fXJMLYC9fGh+k7ZO2neL6hfRRXD9rH5C1j+uH6vCDT3g08WlxXErwngvSn8A2ssUzl4GkOI0P0se1cq05ZH+v2hw8DQ/Gx29c4cg6JsC5xoPmXAPHaWC3Ud+nKb4x87Xp7hjq+zTFjUG+NlnHKNaxtZTuucjR9Q6Jg+6XOEiwJacyDj1duoD6slfMEQE3FIJSnbCTJhIlrW7HSXU2Pn2VmQRwo9cVneeqEb62hbwmxsckk0sqcuB+ha+bueu78USmiUjnXz26kvRa/romubNiiVyMG7ii+OB2SqdeK98yi3GTWab8bbuSRl9r1sMjZj18zFnPAOvjJvPa34pf+8/x+sBfS7K8Zpa2oNAxMPk9bbbjs+O4N9HEwl6ekA/StHP9Qvoo8AvpY6NxqAShPiCrDzQOlcD2Ty/SAbC3YXJB+hvYTjZb24m7dfr2QZ+muDFIaqO+T7NJGgMkxWl8kDUG3RkjjQ+yxqCQMc4128JTZls4Jyd1CyYX3i5dQH30tag6s9Jh2BlLFWxAvo3K1W1NdVdTA26s+HRbm7awM7GwdWDH9mVVGHBjYGswjI/EwtZE5nUkFogv8iQWXdt3jW0DbixSLn9vEgs8Uamr3rVtV32e3OhJLHxtgU+3NVefYtaDJhZ2m9x6nSfftF77fLM+zjelxsDuE9JtfLqthXSbkA58Wm+hr+0um+v72uXzk+qA7QNXd2MQ8oHrJxmwfRCqC/nA9ZMM2D5Qf7D+4BMhxUb3Md23kmJXU0JxqI1d72pKqF5jkBSrHzKl0Fg1NwZJsfohUwqNVXNjkCYmvccQXeEoX44TjJdzUsmhG5OakqQVenKv+DTg6nZsG/BpwKcBn25r+XT1e+u9Kz7d1kK6javbsW3ApwGfBny6rYV0myy6rdl6X+JbPpDGB/DxaOZ5FRVydWRVuRv8YwOdfpM8WIUnqOWemAa0LmTA9oHru+1Cpri+xiEfuL7bLmSK64fqCCHdx97H1HePf2pK2tg2e0xg+yBtrFpS7GpKqF5jUGisWlLsakqoXmNQaKyaGwPbJ71HlFzYhieXnGoSjJeMXyrgEvmhzlUX+z0BOw5NALYGfBpIq9uxbcCNFZ9uayHdxtXtuLfeO7C1kG7j021NdVdTA26s+HRbC+k2WXRbC+k2uGz7pNmOi3HZtlB0mezlC/nA9Tvr58oHF+WeoDIP9wQZBY8ixpPGovqm2uhRyyvjxwD/YHaD3F9bGz1qGY9e1kctR+1NmXukcg48shmPP8YjjaGj/uumDx6XrMuTW45aucPo34gfZYxHH+OpY7gn6s5ouCa50yQ218U6lg/xt0wyhEck6yON9ZHHaH+X9UjjtaY9HqGM1/+V9QhjoL4dK64e8gkh3QPnBYeZedXdx9SA7YNQvcYgVO/TgBuDLLH6xUyGgBuDLLH6/W25gMaw8+Jj67moIL3GQckF7EXzQeDmwlJKMID9HoAd2wbcWMmi25rq6rs7HHBjYGsh3Satbse2ATdWsui2FtJtfLqthXRgx329XoGthXQbn25rtt4X4Gql+0x4d7lc323X1fTZ7+fLj2WOzDAanq/e2NiUeyyxNESPQcZjgJvMf7dEjyeeFT1qGW3xqGU8BhmPTL4dTyOxHhFsP0o5ek77vIXynepF8l6p6XjSCsDTVPBI42/PF5OsmNetj59kFj/SWJ/njkca43nu+kjjGxeJSXKaDnrkMR5pvCJ+pLE+Hx6PML7LLAceYQzw2rp9go5ljst8Phisz2MnpKfA/mUfN4C736WNbSt0TNXcGITqXU0J1WsM0saquTEI1buaEqrXGKSNVXNjkC8mfUdHcmGDOHpqiTnIvZiT+j34K8XhZnn1/aQ9CQU+3dZCOrDj0GRja8CngSy6ranuamrAjRWfbmsh3can21pIt3F1O7YN+DTg00AW3dZCuo1Pt7WQbtMf/rLiLqdiL28+X+POZ78/Ln9YUC8/rY1lA37R9polcWDA44lnxs86d8drjB9dbOug63PZRdaYbAHPdcfvs2hfRR/VfOGiOdHvqlwXP9LYfmQxnufe0Sd+pHH0qEXrkceg6yOec48w7ny0cucYaXzg+nZMCOk+OC84Ik7WdR/T/cyNQVKsfkgDbgzSxrYVMxkCbgzSxrb1t+UCbmwzWK5atLW1yeY3N8jra1bK6hXLc9aktqyLrXKt8WBb2WGvdrWGnK3IY03GOn7nwvcBPW8+FDy9pFTQicR+D773ZWsh3cbV7dg24MZKFt3WQjqw47TJlK2FdBufbmsh3Satbse2ATdWsui2FtJtfLqthXSbkK70p8nPXs60vm53oLOuTv6f9au1758HvU7+UFMp95gkAOf7ANqr1jPcO/vn6paZutyPUnXqGBu69nnIJCtL4wet566K5OyCBWKSCfzae41JXuaZJGOhfBtXMhbMRVNTP1dqaxqkPX6eO8atrayKfsQR7d9p6u/peN67yF2X3y2NNRVyQ6Up714iq017fU67vqYasH3g+r52tk8IKQ4bzPx6pHUe4+5nGqtmxz4Dtg9CsWpuDEL1Pg24MSg0Vs2NQajepwE3BoXGadoobuyCY+tfzGef1GYg0G4Si43r18oh48bJcVOOk5kzy3NWXgybVZCVGyt7wXl+oO+DOAMn7OZDKhXwNQ9MKDahDcyn59Pc+u6ODdLqdpxUZ5NFL8YYIO3YqqVtD7rbFvTUGCCku+jkd14c9xXYX3yPcnbfh8ahEoR8EOqXpg/w+aFS8fUBro9HGj88v1o+7jzSONeuVm6oELk+fhLboyZp0kcaA3sskPQ6SsgH+CHFUppvAR9FS/ozG4wdbbabN6ztxt1affukT7NJGgMkxWl8kDUG3RkjjQ+yxqAnxnBB/dviYyso9vG1vz2KduLh02Tc2NHGjysd9u7dK3/+85/l6aeflg0bNsimTZsiffLkyXLYYYfJOeecI+985ztlwoQJkV4soisX+DDUFFd7Pi5LARx4jsIBCH5siq2FdGDHfX1VwNXUgBsrPt3WQrpNFt3WQjqw49AlVlsDaXQbn25rId0mi25rth4CbfpLYqG4y+76SQZsH7h+kimur3E+344VV8/nH7+wa2LRtd28KLFQ7Z2BxKJrn/w+cH07JoQUh6PiEgmGvZ+p74tdTQnVawySYvVDBtwYpI1Vc2OQFKsfMqXQWDU3BmljW3PReiQWAH5/Ob72JGPHjfEmFkgqFi9eLAsWLJB//ud/jpKYSy65RK688srI3ve+98mkSZPk1ltvlQ996ENSVVVV1MSp7Hnrz02+Dw4abjDEjYZn5qSSAX/hAuutv1bYuO/XjpPqbLLoadvacdpx0o6tZNG7O4YdJ9XZZNGLMQYoxtg+7LY68fWnxAJgX8EPTtnLqn6oVHx9QKif3Qb4+oAkv5A+NoX0L6SPTZp2+CHFp8zn0JdPDSsEXrkgpcAbxo4x28/r1vajW21on1RcrdDY1gsdw6a7Y2hs61nHAFn7FDKmi1uP4+sT8Wf7tlxRdPrblYsp0+cYpeuaWL58uXzzm9+UUaNGyac+9akokRgxYkRc25XW1lZ57LHH5JZbbpH169dH/c49t/tf1O7ytCjF1Ur1CSY4ACGxwGQCizTLgB3bBtxY8em2FtJtXN2ObQM+Dfg0kEW3tZBu49NtTXVXUwNurPh0WwvpNll0WwvpNiHdh9sWk55OfLD++BcVXVZ7udW3Y8XVk3w7Vlzd5wNXd2MQ8oHr+9ol+f77SsI+cH1fu5BPCOkZjjaG84JjzVys+5y979k+CNVrDJJi9d1vP6gphcZp2ih2rH6xlks1NwaFxrbm4uujx1ckFT2VWPRPuq6phx56SK666iq5+OKL5Xe/+538zd/8TTCxAEOHDpWLLrpI/v3f/10+9rGPRckF+nWXxBu6gU8rJXQywV8qkGDYk4q7YwE3BrYW0m3S6nZsG3BjJYtuayHdxqfbWkgHdtzX6xXYWki38em2ZushfG3dpKI/T3z2sqPMelLt+t3pDzQOGbB94Pq+diEfuLobg5APQnUhH9g+cGNCSHHBOcFxZl6GRXFsStpYtaTY1ZRQvcYgbayaG4NQvaspoXqNQdpYNTcG+WIXrdc26uP4+vb4GDu4koqDwRWL733ve/KlL31JrrnmmihxyMJnPvMZ+fa3vy2/+MUv5IknnojVwgg+itanlzLHGMOE8lo8qeh7s9+r/X59Gsii25rq6qc9AQc+3dZCuo1Pt7WQbuPqdmwb8GnAp4Esuq2FdBufbmshPQ2+9hqXSlJh476fND5wdTcGIR+4fpIprq9xGh+4fpIB2weu72tn+8D1Q+0IIT0LzgfWGpviJBj2fpglVt8+tgPbB2lj1dwYpI1t62/LBdzYh1tvx5pUDObEAl9Hhe3Zsye66oB7LC67LPeI9EK49NJL5Qtf+ILcfPPN8tZbb3WMn9USr1z4tFLnOGOYVDCh6KSihN6vT7e1kA7sOLRz2xpIo9v4dFsL6TZpdTu2Dbix4tNtLatu49NtLaTbhHQfdlu7va1hwrP/klISSYVZVvt3YtSA7QPXTzJg+8D13XauAS2Bq+fzgeu77UKmuL7GIR+4vq+d7Q+WZ7IT0l+YYgxz3/Fm35tqDOg+6e6jGoNQvU8DbgwKjVVzYxCq92nAjUGhsWpuDPLFLlof6lOKx9ie5j//8z+jeyyuvvrqWCmcj3/843LiiSfK7bffHivZOejKhca2pjcZDiQwoeikoqbY68BeDz4NuLod2wbcWMmi21pIt8mi25rq6qe92mJrId0mi25rId0mq+4j1NbWdbLTCQ/bVilOeO77dH2N1Q+Z4voa5/OT6kDIB67va+fz7Vhx9Xw+CNWFfEJI36LnA0gwpsXnAu4+qrFthV4NUM2NQaGxbf1tuYAb+3Dr3T4D4RjbE+DJULhnAjdv5/sqVENDQ+wlU1FRIffcc4+8/vrrsXIwD109IXqErW1XP5SrS/0o2oGKTiqr44nFnlyAbz3YmuqupgbcWPHpthbSbbLothbSgR0XcrXFJotuayHdJotua7YewtfW1mBuQlHqEx6WHY9wjvzYQD7fjhVXT+PrtgbcOp8PXN/XLsnP+pq2D1zf1872ge0r+mhiXrUgpO/AHLjKGM4BpifMhSENuDFIG6vmxiApVj+kATcGaWPV3BhkjV20PqmPe5xlUtEV/I7FsGHDoqdCJbF06dLoqsSPf/zjWAlz1llnyXHHHRfdIJ7EOT96LnqCVmTP/UheXJBLMKIrF4p+oK5mlwOVqcY00dDJxTfB2OtDzT4BhwE3BrYW0m2y6LYW0m1c3Y5tA26sZNFtLaTbZNFtLaTnw25rt3e1pIRiIEx4aROMYp2Uq+7GwPaB6/vahXzg6m4MQj5wfV+7kA/cWOlvv3lCyGBmmjE9F8Dxf0Zsuv/qPuzuz6FYNTcGaWPVkmJXU0Kxam4M0saquTFwY5dQe9XcY+1AOs4Wm2eeeSZ64lPSU6GQWHz961+PHj2LqxxpEgwkK/jxvdTM/IxU/+gcufWPD+V/FO1g/B6wPbmsNBaaYNSATwM+DWTRbS2k2/h0W1Pd1dSAGys+3dZCuk0W3dZCuk1I9xFq6+ruJDcYJjp7najvrpc0PnD9JAO2D0J1IR+4fpIB2weu72sX8oHr27ES0gkh/QM9D2gyNtPM/+WxJe3faWPV3Bgkxeq7f9RUUwqNVXNjkDa2NZdQH5B0rCVh8Mvbs2bNiqODsRMLJU2CMXv27GjszLy4IvmGbt5gaBILY+4E404y9joDvnVpa1l1G59uayEd2HFvXm2xtay6jU+3NVsPEWpr6/YE55vkBvpEh/eJxzbb68RnwPaB67vtQqa4vsYhH7i+2y5kiutrnMYHrh9qZ6O6PlGMVy0I6b/MNKbnAY3GZpn9Vg3ovm7v74XGqiXFrqaE6jUGhcZp2oTQem1jx4P5WFssNm3aJBMnToyjrtiJxZgxY+T73/++TJuGP6HnTzAwJp4YlYW1rz4tctpM/6NogSYWpBN3gnEnGZi9LnXduus3i25rId3G1e3YNuDTgE8DPt3WQrpNFt3WQnoafO1tTZ+T7U5wg3mSw/v2/dAUTHF9jfP5dqy4ej4fhOp8vh0rrp7PB67va2f7LnadJhY8gBJSOpQbw/zYYGy5sdlmPz4hNt2/dR93Y5AlVr9YVylUc2OQNlbNjX249RqHjrdMKAqjpaXFeyM3fnnbTiz+5V/+JXrUbHV1dZcE46c//Wnkd5uHrpYFt54jP/rcxVL2JB5I66CJBSr4F7V0NMYlJhobTD7goJVs8Gmgu7odJ9XZ+PQsbUFfjO0j3xiY0GwwqSmc2LpSZtYVfhvGXqeF+IX0sSmkfyF9bLrb38ZtpwfVgbK9lZWVRc827w2wTeLkjpD+xHJjJzrHllcDx3/fnuLOEXYJso4BuhuDNG1sfPX4Q4qNHnNLcf7DjcvFZPjw4VJZWRlHIh9e8P6o/F3NPfKlhVdFvsu9990vJ58wNZp3j5t2onzxi1+M7o/427/927hFjs2bN0dPfXrzzTejxOL000+Pa5LrlIcffli++93vBn+xG0+LWnBrHER8Rmq2/0guNt5ByYXeXBj5uYIUiG+yUXTSUUI7rE9P0rK2dymG3pNjh/C1dSc0pZQntr4AJ3NgjbXN2uvbXfcah0oQ8kGadqE+oRKEfJCmXdr+Nm4fTWwHUmIBmFwQ0pVlxk7yHINeyTOPuntRd2PQE2O6aBvfcXcgHXP7Y3Jx4403yqRJk+S6666LW3SCJGL9+vVyyimnxEonSXXgtttui54W9fOf/zxWuoLk4jsnPScPfAbf6+lKlFzYGwUTi54FEw7wTTqKPfkoSTt7Up1NMfS+GDsE2ocSCKATGmAi0T3WGsNjmvHIZhv7M1M/VALbB6G6ND7QOFSCUB+Q1QdJdYqvjV6tAANte2RyQUgy9XF5csIx66V4u3b3JN+ela9NT4yh4I/QIQb6cbc/JhdLliyJEoF777037+9cZOGjH/2onHfeedHvZ/hITC7+Yo4IeoI20P6aVkroxAOSJh9FJyElNAlk0YsxBijG2CBpAlOQDNtjcPvtWfQqBh7XrOj6D5WKHWf1ga8uVCq+PiCND9K2U3z9B+rVChsmF4Rkp86YvdecmuKY97xn7rXxzUE2+eJzUx53bTDGYDn29sfkAsv04Q9/OLpZG4+kLQb4sT18zeqXv/ylzJx5cPIAEpMLuaG9faD+NW2ggAkI2JNAmknIxp6QbNyJRfHpWdoCV08zadnofT8uvKrWt6w2hscz4zHNCj4n+7Pqjg/ytXNL0B0fFNLHxtduIF+tsGFyQUjxeTEu7T3rjIzH0ayEHuTDH/jM0R+TC/CTn/xE6urq5De/+U0Ud5err75aDhw4IN/5zndi5WASk4sn4iMCE4vSRycipTcnpDTke/oYJ6/SQq9i4BHNir3NpfFB1j7wC+lj093+Nr52g+FqhQ2TC0LIYKC/JRfHTj0h0rBcn/jEJ6Jf4P70pz8daYXypz/9KbqP49Zbb5Xjjz8+VrNRZg4IvXNEIIQMOFYYw++9ADyaGfhOtpVQXVo/ax+QtU9SfxtfHzupAIPljzZMLgghg4H+mlyAp556Sq6//vroCU+Ffj3qhRdekKuuuko++9nPyl/91V/FanY6fkSPEEKygouhONGD6W+96OOY3ZNvjdP4wNXdGIR8EKoL+cD17VixdZS4Zw1JhX4FCusCSQWvBhNCCOktzj33XPnkJz8p1157rfzqV7+K1fTgigUSi3nz5nUrsQBMLgghRUGTDPuHpdwTcZ8PXD/JgO0D1/e1s33g+qF2iqtrUoGEwk4qCCGEkL7gsssui77ShBux8TsWzz77bFwTBjdvf+UrX4n64YrF5z73ubimcPi1KEJIj+D+zovvB6V8fqhUfH1AyAeF9LHROvvRx4Ptq09J8GtRhJDBQH/+WpTNpk2b5Pbbb48eTztlyhR573vfK7Nnz5aJEydG9Tt37pQVK1bI0qVLo+Ti7W9/u1x55ZUF32PhwuSCENLjLDPm/raL/p6Le4LvxkpWHxTSx8Z9HDITCj9MLgghg4FSSS6U119/PfohvGeeeUY2bNggb731VqRPnjxZDj/8cDnnnHPkggsuCD5utlCYXBBCeh38rovv91x8PyKVxgfd7eP7XRX9HRUmE8kwuSCEDAZKLbnoK5hcEEL6FPuHpJJ+vyX041FpfIA46bdW3N9V4e+ppIfJBSFkMNDfkoujp58SqznK4tLjRHSNDAcJtuRUxqGnSxdQz+SCENIvcX9Aqhi/1eL7rRX+vkr3YXJBCBkMMLnwdukC6plcEEII6RZMLgghgwEmF94uXUA9H0VLCCGEEEIIKQpMLgghhBBCCCFFgckFIYQQQgghpCgwuSCEEEIIIYQUBSYXhBBCCCGEkKLA5IIQQgghhBBSFJhcEEIIIYQQMsBobm6WbTv2yuqNLbJqQ7OseOOANBlrXL9fGl7fL8tf2yfL1u6VV9fslfrVe+SVVbvl5ZW75a0tu6O+hcLkghBCCCGEkAFCa0ur7NvfJpu27JJXV2yRB1/cJw+9tF+WmvK+5/bKPc/skSVP7ZI//GWn1Dy+Q/7vY9vkPx/ZKv/x0BZZfO+b8nTdBtnw5g7ZtbdVWsxYWSmTG3K/fMQfJSKEEFII/BE9QshgoFR+RG/d2jXy/OvjZcP24TJpTIucOUNk+nGHybChQ6XVzNWtbWYeNVM2SuQOra3t0mL8PftbpX7FJnmxaZds3dUmM44sk3mni0yZNr1j8FQ/orfJTNIwTNiuEUIIIYQQQkqHJ1ePl/GjRS6cO1zec/ZkmXX8JJkwbpiMGT1Exo4aKuOMjTE2eqQpjY0eNcz4w+SQMSNk1rRD5YKzj5W3nzLZJB0H5Bc1jfGo6Ym+FoW/N71lEow3Y9tobIMn4SCEEEIIIYT0X9ZtGyZHHzZG5kwdLVOPHCnjxowy5/pl0hZdpZDoKkWzKWEHYC25srmtzCQao+SYw8fJzCkT5ZBxo+WVVTviUdMzBImFz8AbJsGArY+NSQYhhBBCCCH9lwMmWxg/bpRJKkZG5/Rt5h9NKjSxaDEJRUdyAUOCYdmQYSNl1KgxuQEzEiUXwFe6ts4kGDAmGYQQQgghhPQ/9pvsoA0ZhaHj3gqYSSKiKxZILCxDMrE/LtWgo08hdHwtymfAV75mEoy1TDIIIYQQQgjpVxwwGQSSC+QXSCjUosQitv3GNInQhMNOMqAhKSmEso3tnc/48JVJdVpOixMMPsGDEEIGH3xaFCEDg974g3Ep77+l8rSoa3/5mnz2A8fKnGljO5IKvXLREaM0WnSFwtKhwUdi0bjydfm/f3xYaqo+3DF4mqdFlW2Ijwj4x04Y0pa2P4NJBiGEDDqYXBDSv0mbNGw3+5ZvT3a17rQ5POWy9Mf9vFSSiy//bLV86IJD5YxZE2Tc2JFdEwr148RC9cigxeWu3ftledNaefDRp7InF29YyUWoTKrzlTM5+RNCyKCByQUhfU9SArHD2Wd8e6ur9VQbjW3dN85RCe+nr+aAUkkuqv+wQcaNFDn68DEy5YixMvGQYTJyxEhpbS/rTC7i0k4uDrS2y06TVGzeskPe3Lxddu7YJmUtu+QbV7yjY/DUyYX9QbsfeprSp83iAYAQQgYFTC4I6V18icTOPAmEbw9NoxWjjfr5+uUbRznG8/57Y14oleQCzq/vf0vqVu6RSePK5KzykTL1uMOMPrTzCgW+DmVKxHrD974DrbLm9U1S/2qD7NixU86ec6Rc9XfndIxpFUGi5GK9k1yEyjRt3HI2DwKEEDLg6W5ykfYrG4XAYxApdXz7x654u3b3Ot9e2FNtQL5+Gtt6IeOA0BjqT+mFhKOUkos9+9pk5fq98sSL6+Wxpxtk6NDoGU4d6JSt6w8x/FaTabzr7Bly/mnHSPlxY2XcmBG5BlmSi9fjI0LH4LGBYpQnMMEYsPTkCYHCbYeQ/k9ScpFmnvB9z7tYcZrvd3OeIf0Ne7/RREJxt3WQb38APdUG2Jr6+cbKNw4IxbaeNM5Uaz0WYz8vpeQC7NnfJpu27pU3N+d+CC9fYqAcceh4OXzymOjXuzuIO+cbA/Vl6zzJRb4yVAd8dSeaD5eTd+mQNmlIc0IAutOmlG/8ImSwgIOc3ODbs/N/17snY/V9moL46MA8w3mF9BbucbeQhAL4tm+XnmiTxldcLV8b9fP1yzeOPtlUKWT/LrXkwnIiukaGgwRbcirj0NOlC6iPkgv3g0Pp09KUwFd3kvlQOVH3L0JJRNaTAVCMNqHY1t02ABpPDgjpXdz5w/6+d2hfVvLFoDtjqO/TlDTxsUU4GSEkhL0P7TbblrsNgnzbKShWv0LaaGzrhYwDQmOEfMXV0rbRJ5yCtPs2kwtvly6gvuy1QHLRnRL46uaYD5KTc9/gSySSTgaAq+WLQXfbqJ9vnHwxgOaeHABug4Rkwzd/4C+r3d1Peyq29ULHAOpr2Rvf6SYDH92fkFCAfNsk6Kk2IGs/9fP1yzcOCMVp29lkbaM+yvL4M8m3PzO58HbpAurL1qb4WlSoDmSpQ3Lxivng5sQx6RnSnggAV8sXg2K0CcW27rYBacdRNLZ1niAQkh97Hsn3FY2+jNX3aUq+GPj6+zRF42J/p5sMTOz9qZhXKXqrTRpfcbV8bdTP1y/fOEracWxdfTzpVPHtz0wuvF26gPooucBKdVd22hJkqTvZfHCcgItPd04EQL42PdFH/azjuDGwNfWzjMMTBEK6N4/ki0F3x7Bj9X2akiVW36cpbgxszf5ON+cRAnSfSptQgKzbHeipNhqnbWeTto+tFzIOyNdG47TtAJ54Cux9mcmFt0sXUF+2pghfiwJZ6uaaD4wTb/fJciIAXC1fDIrRJhTber4+IF8bjW09Xx/gajxBIIOJfH9R7esY2Jr6Pk3JEqvv05RC4kK+z00GDklJhRuDQtqAnhhb/Xz98o2j2Jr6+cbKNw7I1yaNr7iaHeOppwD7MZMLb5cuoL5stedrUbZvl6CQOrfNKeaD4mSbHfskALgJBbDXNcgXg2K0yddH/azjuDGwNfV9mo2rpW1jnyAAbrdkoJD1L6p9Gavv0xQ3Bklt1PdpSndi9VGm/T43KX10vyrk+AwKaQOKMbbGtl7IOCA0RshXXK2QNhrbeiHjAFs7wRiTC2+XLqB+CFaca8BXFlqnpRp4KS5JfjBZwXASAMOkZU9c7roFaeMsbdwYhGLV7NinATcGoThkwPaBWw/ytXHjFWY9w5pi08+CkFLFnk8wj+i2DtztP2sMihmr79OUUKyaHau1eTSY0p1YfVtrNOsZxvljYIPPtjvH50LbqObGIEkD6tv7BLB9oLFPU9w2duwzJUlT8rVRvyfeB7B9kp/o5/p0paUp89WpgVD5otnxTuMEmxffSYCuQxCKVXNjEIrTtFE0DrVRv9ADeKiNXe8zJRSnaQPU901SPEkgpYpvPlHs7RwUGquWLwZJsfo+TckSq+/TlFB9IbGrKQ1mvcM4fww88Hn6kgpFY5+m9EabkAE3BqE41Eb97pzkq+bGwNZ8BtwYhOKsbUg6vFcu1ICvTKrT0vVdAy/EJelKmpMAn6aE4ixt3BiE4pAB2wduPUhq4zNg+8CtB/naJMU+TYHPkwRSKqSZT5TeilWzY7VC/yih2LH6Pk3pTqx+0jL74uXmc4Bx/ih99DO0/wBof9Z2DJI0pafa2LHPlCRNsdv4DLgxCMVZ2tixz5QkTcnShqQnSi6Aryy0Tks14JbkYOxJKu1JgGpuDEJxmjaKxqE2dr3PlFAcamPX+0wJxWnaAPWz/pVFfZ4kkP6Mbz7RbTdtDHoyVt+nKaF6X6yWdp9WssTq+zQlTbzMfC4wzh2lCT43/F4ULN9nnU9zY5CkKfnaqN8TVxLs2Kcrbj3I2kb9YrwPUEgbkp6OKxfAV+arUwNJpWvPmZ3xDE6oEXpiqicBir2+gBuDUJyljRuDUBwyYPvArQdJbXwGbB+49SBfm6TYpylpY/skgScKpK+x5xQltO0qoVi1rDFIitX3aUqWWP2QBrLGIFTvakoh8aucO0oOfFbuD9H6PltfXGgbn6bYbXwG3BiE4lAbuz6kAzcGSZritrFjn6aE4iTNjUGSRtIz5LqqKlltnNW1VfJN499Z2yRrjP9IkxFNudjEqHvUxO1NtXKXiVH+qqJCrq+oksdMM3vFq+8acEvSeQJQyElAljZuDEJxqI1d7zMlFIfa2PU+U0Kxam4MfPWFXqXQGIRinCToiQIhfYE7p4S2VaWnYtXsWM3eB21TssTq+zSl0Ni2pGV2Y5A1rjefF4xzR//HTixCn6tPU7rbRrWk2Kcrbj3I18aOfaaE4rQaUL87VymU7rZRza4j+Rny7fkit1aZhKGhXmbOXyiXzyuP/FXSJItr7pYVDaYV4kaTdDQ2RPFamSUXLFokn1pQL0tNXxD6IPKVgxVMTnoSALA+1IAbg1Ccpo2icdo2PgO2D9x6kNRGrZiTh6Kxanbs04Abg1Ccpo2eJPBEgfQmOqfodqjbphuD3ozV92lKqN4Xq6WdP5Qssfo+TQnFqmWNwStMMPo1+Gx2WPuYEop7uo1dH9KBG4MkDajf0yf5IQNuDEJxb7Qh6Rgi5bOlvb4xCuyVuKJyiUxbdFln3NAoa0ySgXj1kkq53XRplzlRnbaxy5ABLQcregJgnwQooThLGzcGoTjUxq73mRKKVUuKfZoSilVzY+CrL/TkI0sbNwbwcZLAEwXSG2Abg2X97nfWGGSJ1fdpSpZY/ZAGssYgVO9qSk/FqtXF8wbnjv4FPg8kFor7ubkxSNKUQtrYsc+UUBzSfAbcGITiLG3s2GeKq7kxSNKUQtq49SQ/Q+6sqJHyRfOclVgnDXPmy7tyUqTNnD9P3jlfk4k6EZNsPFJztyAt0RVvG/CVrjbYsE8A3PVir5NQnKaNonHaNj4Dtg/cepAUq5/1rx9uDEKxanbs04Abg1Ccpo2isavpiQIhPYnv+99KsWLVkmK1Yl5VUN+nKYXGttnLbBtwY9CT8cvx5/lyriD9BP2MQp8bSGqjmhuDJA2o3xNXEuzYZ0qSpuRro35PvA+QpCn52qjvLiNJR1lDe/wT3YZQCfK1yVqCs80J12D6xVJNLBR7XQA3BvnaFNIH2Jr6Ps3G1dLGtu62AWnHsfGN6dNsXK2QNln72D5+mf4l8/l3/T1NQrqH/QcLl6RtExQzVt+nKYXGtl7oGIpvLJ+mFDsGSW3U1/LUfnycbKqtksZZC2VeeSwEaKqqkCXzq2VhqF1TlVQsmS/VwQZ9D/az7QnHb5D0uSr52qysOl8+Xz9XToqiOfL56oUyPfK7ti1kbOAbI1+/fOOAfG3S+Iqr9VabfP6pxvgL3d4uXUB9l9+5AL4yqU7LkAFfqf5gwb1iYb//UKyaG4NQnLaNWjH/cgDUzzquG4NQHDJg+8CtB91po2gcamPXq+HHI3GiQEixwLyi3/9W7G0OZI1Bllh9n6ZkidW35xDbQL4YJMXq+zSlp2LV7FjN954xb+Bz7jOaaqWqokIqanP3Vx4UG5BkVFWZBKGiSmojJW5TVSudrXLtom4YI3Jy7aqW1Ef1psKMg35VUb+mWuNjzKbcKG7cF+jnotifldK9NnPlg4uq5YfV1TJP6mWl0Vaa9Xa1WSdfMetzVdSmVm4x622R0VDfbtZWtVkvt5h1dwseuhOPtcr0e9CsqnZTQkf8y7ge/q2R3yS3mX5fNWNhbOgP5Va+3Bb3iWJTItax8eCfr5s+t5u+txsdn+UdZpmg4SFB7SZh/Ibx7zD1d5h6PBjoYSyLqQNYputM+2+a9xTFpv+dJsZDhtaYGOPjIUOoR4zlWWzqv2Xe5yNmmR81dXeZeHFU3yR3mde5Pu6L14b/K6P9Csts+t5l+kVxvAxqwI59RrLT5XcubN8t8xnwlaG6wUSaEwCQNs7SJin2aUooVi0p9mlK2jjUxq73mRKKs7RxYxCKQwZs/8W+PlEgAwadVxR7OwOFxqolxT4Dtg+yxOr7NCVtrJodqyUlLaA3Y/V9mgL/hT6aN2orzpfzl4jMNye61fPKD4rxsBc88wWlzF8o1YtEaqqaTLsamY0282chX+hE25t/642j7RbGX7murag04yySRfNFKs045fPMGNULZVZjpZxfUXtQ3Nu4n4sv7k6bXFknNZUVcrVZ1z+SObmrFma9zZo9Xz4vNfIz87aXmvU206y3H5j19HM8VKdpiTTOmS9XmPXYmFvBubFMvybz3y/xFXaj42E9f7h5SfTAngduzmkPxuu8woxVHT/cZ2WjSSpMZTQWYtP+NjNGkzU22pWbz/yT8Ws+ZJZpmlmm75hxbsE4jfXSPnuhXK7LFI8bJR4YZN5CuclsMO827+lO8xYeNf2nm/432Q8ZMu/506b+NvOeV8ssuTB+kNADVSLvWrhQpplhpi+cJ2vi9/Ap0/d2rI/4tT9mXhvL/Fglls3Es0VW5G4xzr0HY4X8gbUUePW1Zqlf2yyvrN4vdav2Sd2KvfJy0x55qXGPvLh8t7ywbJc8X79TnqvbIc++vF2eeXG7PP3CNnn6+a3y5LNb5C/PbJYnntok//3kJnn8L2/Fo6ZnCP7RlWavwGKWPu0cM1E+ZR0YByppTwBUc2MQitO0Aepn3YncGPjqiz0usNv4DNg+cOtBvjZuDEJxqI1d7zNF4746USADk9B2phQzVj9koDuxqyndidX3aUqoPm0MssTq+zTFjcELcdlbzKt+XBabE7YlFbkrFW6cl/Jy/J+BOnNi2Gj+ny0LzOvgSkeFea0lskger553UNxbYL7eZuZt/Uz0c3FjkKQpbhs71isXlWZd/9GcSCOZAI0NjbLC5HDaB7SXm7Pl+sacNrtzRWsblI2VS2Tmoss64r+5DE/5NMnIZTlN1/lKs87fY9Y5wGutNCf3SpMZY3r8gB8dG3jj+CFBqrvl6qoKuc68J8RrmhpllXkZJAlRXzSw3hMeJLQ6Xow1SyrltigxyCWiQPtE9wGb97DGvIdLzHuIxrF456IFsvT8CrnxZtPO0NkvhxsDX1xKLH5gj9z9yG75P4/ukv98aKf89oHt8pv7tsmva7fIr/64SRb//i254/++Kbf9boPc+h/r5ZZ/Xye/uOs1+dkda+Qnt62WqltWyo//tUn+8cevytdveDEeNT3eX+j2aW4ZMuArXQ3Y/kBG37+9DuwYhOIsbZJin6akjVWzY58G3BiE4lAbu95nSihO00bROG0bnwHbB249UL+3TxTIwAEnO/j+t25L7nbmxqA7sfo+TckSq590FSFfDJJi9X2aUqxYtaRYLe0fYxSNnzefd9ofnn3BTC6//30cdJPy8nmyEFch4hsr3NjHvAUiNRXxV56sHCQ6b1xSJVWVd+N0MNeuyo7nyt01DSINNdLQaBKTeQul2rzWQn1tJ+5N0nxGSVoodrcHnOz/vrJCFpl1t6hmjrzf5FBtRnu1vkZqTTnLtLjYrLdas35/WVEjsxbNklsuv1teramQa8x6fPVuXJnQMetk2Zz5chGGjWLD/AXSeHe9vDc+Cb/IrPM/xOt8pVnnoHz+PLk4vprkjgHs5dXyArNM95tlusMsU7lZpodrcifyCsb5U02l3G+ShXLzJh41ScZD0VNHJVpe9H/A9F+MqzKLkDjWSYN5zw+YcgYGMCUeJPSw9SAh5Z3mPdSa99Bu3sNqU/lo/NraZs2SGpmxuFq+ed3cSFPd9oHGPq0U+chFE+VbnzhKbvzUMXLTlcfJdz57vHzvC9Pk+1+eKZVXl8sPrpktP/raSfLDb5wsP/zmKfLD60+TH954pvzgprPke98+V75z09vkb//uxHi0bJS9muKG7qwlSNLAuWaSfNJMlufG8UBETwAU+/0DNwbdbaN+vnHyxcDW1M86jhuDpDZpfODGIF+bQvoAW1Pfp9m4mi8+02wfg+mBBqR4uMmFUowYN5R+QW8oNcfoeY9XyyXwY7rzGur7NKU7sfo+zSZpDFDMWH2fpqSNMWc8hyQjjl2QVDzyiMi0aSIXXigycWJcQboF9rctnrk63+cGbC2Nr7hauE2tXFsh8r34Ss6DJikxGZhcHEVZxukkX5s0vuJqvdUmja+4WqgN9rtSuaH7q3dul8/99SQ5dfrIWOmkzbyZNpPVRqWx1laRFhO3WGWzsQPGnnpqo/yo8hl55J53dwye+oZuUMwynzYYEgtF37u+fxCKs7RRf4U5EfgrM5lcHZne3JVD22gM0saq2bFPA24McjeJdX4n1t+mM7brfaaEYtXcGIRin7a2tuqgG758BmwfuPUgX/xcXJLBDf7KvGSJyLJlsZCCLNtZtniufCD6Woax60T+FH2FoUmqqyrkK1W5mzVxgyn86trcDZ9Lsc+YEjeN4mTnl2Y+uia6+bRJHjTtEP/SxA+aNreacb5q5qoHTUvcaHm7qftaHLs3k+ImUL2ZFDeNov0dpi1uEr093k8B2uHm0W+Y18Dygdx7yt0kihtDoa+OSzydCN/zxvu604z1La034yw28fXmNR6N+jflYlO/No47bgw1y4ObTh+Nly+6cTRqk0N9n6ZkjYEbAyQVZhFlzRqRyy8X+eAHmVj0FPqZ2J9DKFbNjn2muJobA1vL2bwosdD4YrPf4iqDxkooztLGjn2muJobgyRNKaSNHftMcTU3Bj6tVJhxRJs889IWeblhZ6zk0MSi1ZStpkQSEVlLZ0JxwPgo6+o2y/Llm+WCi4+Me6en42lRIKkMGfCVrgZC/mBA14m7Dnyxam4M3Hr7RABPltCnPeDAvyg+0OIAW20OsNByl0ub5BZzgMSTJfDkCABtqanXkwCcFPzS1F8b98FBV58UAR8HerwOnkQREZ8MdCxfbaU0zcaElzt5wBMk8BQH9NUnTOgTJHDyEJ00mBgH6+iJEqa808Q4UdEnSOC96MEc7aN6U3Y+QcIQPyUCJwSL4/EewzAGLFdHbPrdZeqxfHjixA3x8k2ZN1tWVOaSIn0vIVNCsWpuDGyfEPyV+Ugzf7/4osh3viPy29/mThh37YobWOj3v4Fvuyo0Vh9fX8DXMr5i9ouv1MyRefM6b/r87HyRn+J7Lg31Mmv+QrliXnl04+UKzBfxTaO42XSGmY++N3+W2U/L5aKFC6OvNcxYOE+m4Xvc86vlHxeJ3GfGWSWz5OJFi+TKBfVRnLt5FMvQkLt51MSYi26Px344vjHz72ebXTj+SkVkph1u/rxCasycltPAI85Nomvq63NzYqNZZnx9wr0R1IzTbpbvBrN8D5j4Mav+NtQ3LZGmOfM7bhTV5bvLLN8KE3euw04Dtg8KjZ81n/tZ5vNXmFT0DrjCPNmsd99n4tOA+ub8zasrGvs0xW1jxz5TkjQlXxv1e+J9gCRNyddG/Z5exlLivBOGyUv1W01ykTuIYPmjqxRILGAmedArFGpIKJBkaIKB5GL1yq3yoQ9NjcbIQscN3fkM+MpQHQj54Ly4HKjoCQDet7seQpoSilWz484Tga5Plig3B9rPmgPtT82B9kF8B9IcYN0nS3wmfopDbtxyudicBMw0Hk4CVlpPkPiF6YODtz5lYunNd0uDHlg7nv4QnwxEvkkijI/vVT4cH9zxBAk8iSJaNnNS8vf62tHBubN/Lm6SO+MnU+jJwbdNf32CBJ44scZ0xsHcfoLEUtTHT4n4hBk/OtjHy4jEIULjuP9jZvypZvzrzfh3oL8Zb4ZZltx7yhmwfaCxT1NCsWruiQIZvOCE8OyzRT7yEZFrrxU57bTcCaPZNCP7859FNmyIGxvs7cjdrvLFIFSf06wrF+ZEHl+JwjzT3tho9p3ZMs/sK9pXwU2jM+KbRpX28nKZGn81vnPsHHrT56ollVKNL1BbN2kCbQ/D2NPisS9ctEDuP79CvnGzWZ64HgaaGnI3hyqqR8Q3ib5r0Rx5AH+M6PhOtinjG0EvNe+rg46bSjvrO24UdW6cXWmWb6p1w6zPQL4YpIkBk4q+QT8P9zNJMuDGIBSH2qjfnRNo1dwY2JrPgBuDUFxoG9XcGNiaz4Abg1CctU0pcVr5IXLI2GGRj/dgJxb46lMzzEoqOq5Y4ApGXKLthHHD5fTy8dE4WSiri2+50BVYaAmSNAD/beZk6i/mpGowJBdbzftU7PUA8sXAXXd2qayqqpD75lfLlTje1ZokQ6rlcw0V8nNZIPNwA9iCanl/Te47mJdIrVxj3O8vapBrGxfK92dVyTVL5sv3F5Z3jPuQOfC242zGJCurFlyXS1ZmzZJp5iQAX1vASUB0LiDzpUIqZensRTK9oVLuN3q70b4b/wjSGnPkW2mSFTHj4bUvNK99nXE/M6dGHjLL+/dSJdeZ1/6MGUPjb5r40ya+tX6OvGeRyP0mfk99ZbQ8F5j+3zL9P23632be26UmcVoqi0xZKQ+YZfi0LJHbGubLjbMr5XqzDm4w7+0G0/9Tpv4RUz/VLOPS2dXyKbNubjf9LzH9HzT9LzHjY/neaca/yYz/zep58mez7MebZZ8SvZOuuOs/XwyS2uCHJG+IfULyMWqUyFf35eaWrNuiHavv0/A0F8wpV3SeQ0dzy9/UzJEvzamXFWY/erfZjx4wbT5j2qyuOl+uksXy+/lL5Fqzz33P7INfrVlg0vQaEZOkfMq0wbyC/Wyaafu/6y+TL+Iqq6mbtuR8M3dcJ+X1N8sf5yyWH8vlpn6unGBO6pfXXSZfuOxu+akZ+3dm7G+Ysa8w+/ODmC8aK0yvavl2/MCgNWbcRabfbNOvfMHjcnmst5vl/pZZlpnxsnxC35PRMU/caGaxj5r39VnzvlaZ93VRw/nyVbN8/2CWb7Vp/3HzOn9r6v/B1K8284jcfLncM3eueW910miW70qzfLeY5bvLLN9NZvm+Zc2lSrFjzhm9D+5h+fvVIpviY3roM7J1tw1Io4ViWy9kHJCvjcZp29n0VhuNbT3NOCA0lk1Sm7OMldKP6P3o9tfkpBmHyEfnH527l8IYrlggaUBSAV+TDPsqRnTvhTHc6L9t4zb57g2ndYxpFUFQHyUXuvJQ2r6vBGnqgOsPlsQC+G4As9eH4mqh2NZtHwd23HyZu59/jsyrXijTcbCPtDqZZQ60V5gD6DXmAFseHWDNAfLyy+UP5gCJ+mXmAPnPj+eeF41x9STgYnPw/R/moPrF+KB7iTmZeBBPmbi8Rt6zeE504l9hTgS+HJ0ImPxjAa5EzJfv6C+smv53zIpPAqyD+8VLME5nMvEZM4aeFDSYZfm8OVj/zBys/8McrL9l6m8yJyr2ycGFpv8jpv8nTH/Uv9v0f8CcZsw0Jyf3zLlO/sGUS8171uTik6b+a2Z8PGFjpul/Qdz/46b/jab+W2b8G834M+LxP1beJL+uaJS/sx5zGPpMbAptg0cy86Zu4rLPJBC4/2LFChH8Xthxx5ntd6bIiWZHn1TVdW7Jt+3Zsfo+TckSq+/TbFRD4oL9/5N24mJw+yB+uOMPEzmSXqNY8VqzfJgfPuZdvlq50SzS9fH32x+Ll++dUV3hr6mkjTFn1Jxu1qU52cXX6U43PukdcFx/y0kwsn6OIG2ftO1ssrZRP1+/fOMohfTL10b9fP3yjaMU0g/x2cZKLbkYf8hQ+ZuLD5epx4w/6KZtNU0q7CTjtQ07ZOk9q2T4gf2FJRcvF/C0KJCkAZ+P5OIJs2O+LY4HMnZyYa8L4MbAt758mo2r5WuT85OfLAGyjgt8r3NH1Sz5e002DPnGfSRelgviGOTrA/K1CcW23uE3Vcm/NS6UvzOrJ+04Nln7MLkgyqZNuUTilVdyPhIJJBT4nQBcsVAwt2x2tpl826L6Pk3JEqvv05TuxGl80Jux+j5NyReDrH3cWOeMbdtyT4ZiktF7YN9703Ncdz8jkO9zBKExQr7iaoW00djWCxkHFNIG5Ounsa0XMg4opA2wtVJLLp54foe8WLdVJh0yTD76ofKOKxV2UmEnF7Z23/1N0rJrj5x32gS59KKjOsa0iiBRcvGS52tR9sq0dbsESRqw/cGUWCjuSYC9PkCa9ZbUR0lqk8YHbgzytQnFtu62AWnHseluH/WzjuPGoBhtEOOpaU+Z7eOcnETygB/Qapy1UPI94r6pqkKWzK8WK6/tikkgK5bMl+pgg95n8eLczdtIJE4+OXelIgmdW5K2M/V9muLGIKmN+j5N6U6svk9T8sUga5+kWH2fpvR0DKD55gwmGb0L9r2N8XE97edmE4ptvZBxQD5N/Xxj5RsHFKsNsDX1842VbxxQ7DbY7557rnjPeJw5c2aPJhfgzl+vkoamPXLzDWcflEBESQWSDdxnEWuRbrQ7fv6MnHvaWPnkx3K/MhKRIbnoeFqUbcD13dLVQMgfjImFouvKXTca2/U+U0JxqI1d7zMlFKdpA9Q326JXVzR26zUGoThNG0Vj1ezYpwE3BqE4Sxs3Br6YWDTlfnir49d/3diAJKOqCr/UWyW553rFbapqpbNVrl3UDWNETvyjXkv0rt8mMw76VUX9mmqNjzFx+cAT9yS4Kffznxd53/vyJxZKaLtS36cpoVg1O1az93HblO7E6vs0JW2sWtYYhOpdTemt2NVscCM3bujGNoQbvHGjN274Jj0Drhodac5pfJ+TonGojfpZj5sgS5uQATcGobgn24QMuDEIxb3RplTZf6BVNr61L7I3YZty9tbmfbLJxCg3w7bkbIuxA8g2ukHH06JCZagOpPEHc2Jhg3WSZMD2gVsPktr4DNg+cOtBvjZJsU9T0sZZ2rgx8NWnnbgVjbO0cWMQil2NdKW24nw5fwmeVJr79V83xpO+GtDQlDJ/oVQvwq/7Npl2NTIbbebPQr7QibY3/9YbR9stjH95tjZ+Itqi+SKVZpzyeWaM6oUyq7FSzq+oPSjuj9jblfo+TckSq+/TlFB9IbGrKb0V25aUSLkx6O3Yh5tk4GoY6RmQYBwVJxj6uahvf0625jPgxiAUZ2ljxz5TkjSlp9rYsc8UV3NjkKQpxWpTatS9skW++KXH5ctXPy5fueZx+eq1j8t1X39crr/ucfn29Y/LP974uPzg5sflx999XKq+97j87AePy+oVW+LehdHlygXwlfm0kD/YEwtMQIdZf+HQ9RMyJRSH2tj1PlNCsWpuDHz1vEoRjtO2Oc9sF4PlhyTTMq/6cVlsTvSXxFcq3Dgv5eXR14rSk3vMaGPjbFlgXgdXOirMay2RRfJ49byD4v6EPbfAinlVQX2fpnQnVj/LCbwbg2LG6vs0JRSrljUGWeK0c4adZJCeA/vg0dY+qGismh37TEnSlHxt1M96jAau5sYgSVPytVG/O8uoJLXxaUqhbUqRSy8+Sq7/+lz531fNlquNfcXYooU5uwb2pdlyrWVf/XLObvrGXHm36VsoXX6h2/bd0tVAkv92s9PxikUOrA/bgO0Dtx4ktVEr5g6qaKyaHfs04MYgFGdp48bAV592PSgaZ2njxiAUJ7UhYcrL58lCvVLhiX3MWyBSUxF/5cnKQaKfKlhSJVWVdyONyLWrsuO5cndNg0hDjTQ0msRk3kKpxpUNfW0n7o/Y25a7nWns1vtitUL3IyUpVt+nKWlj1bLGIFTvakpPxarli0n/BQnGMeZcB+b7DItxkg+S2vgMuDEIxYW2Uc2Nga35DLgxCMWFtlHNjUGSNlCYcuwYecd5h4ftbQfb+bGhb6GUPe95WhRI0kCSz8SiK3oDmL2eFFdLG9u62wakHcfGN2bWcdwY9GQfW8/XBxSjTaHjKrxqQYoF5pYNZluyybL9qu/TlKwx8I3n05TejNX3aYobg3xtih3bYM4YLI9xL0XWGzvWfEbr4n3R/ix9n2uazz5fG43TtrPprTYap21n05dtfKAN9r9Su6HbciIOuhn7IMGWnMo49HTpAuq7XLnQ0jaQ1sfXoJhYHAz+uoEbwBRdb7ruQFKsfta/grgxCMWq2bFPA24MQnGaNorGoTbq2+vBNiUUZ2njxiAUJ7Vx0ZMEJhakGGBuwXe/Iz82JSlW36cphca2Je2rbgx6MlbfpymhWLWsMcgauzCx6P8cY+w18xkdZz4r/SxDn7NPU/K1setDOnBjkKQpxWijfuh8JRSDJE3pyTYuadoQP4k3dIM0vp1U/LcxJhYHoycB7jpUA0mxT1PSxqE26qdNXhSNs7RxYxCKQwZsH7j1IF8bNwahOGsbF9TxJIH0BL4EQ7dFO/YZsH3QnVh9n6aEYtWyxiApVt+nKT0Vq5Yv9oE6zhmlAx7yhn1xivnMYIr7OWvs0xS3jR37TAnFaTWlkDZ27NOUUJykuTFI0pQ0bXwU0od0xXvlQkt7Zfp8JBV607ZerXh7rop4eMOso6QbwID6PX2VwmcgXwxCcZo2isahNna9z5RQnKaNonGWNm7sw26D/QQnCUntCSmU9fHcouh2B9QPGcgXg6RYfZ+m9FSsmh2rFXqVU+np2EXrYXpsTWpP+h9IMGDHm88PFmmWKUkaUD/ruQDI0kY1NwZJGlC/p5dRSWrj0xRfGxdfG43xx3MYSc9Bv3MBtASuDvMlFbxakR/cd49Jx775y123IU1JG4fa2PU+U0JxljZuDEJxyIDtA7ce5GvjxiAUp2mThNtG9xX89ZH7CekJjjaGBEPnFqDbob092j5IG6tmx2r96QRefZ+mhOrTxqC7sYtbr3NG5OcKUmLgWL/a2FTzWU4zFmmWKbbmM+DGIBT3ZJuQATcGobgn26jmxiHcNnY/TSr0XJekp+wZ64ZukORjwgOc9LoPbsQEuAHMXs8gawyS2qTxgRuDfG0K6QNsTX2fZuNqhbQpVh8XXxt7f+G+QnoLzC3uvJJ1G0+K1fdpSndjkKWP+j5N6evYh6+Pnsxwzhg4rDY2PT4egJXxOZSi24G9Pfi2nzRaT7XR2NbTjANCY9n0VBsfSePYVyh857q8odvbpQuoL3s6zi18Kxvf97TRr3Vw0isO64zhu5m4Ecy3/l2ytlHfp9m4WiFtsvZJ4wM3BvnaFNIHpGnjEuqjJwiA+wvpbfSPF2utk5g023dSG/V9mtKbsfrdGQP0dOwSaq8nNUwsBjarjM2IP+sVKY79vu2pkDYgaz/18/XLNw5I0wYUa2yXfOPY+x8I7YNMLrxduoD6KLnACj43XrE2SCYU3lDWc9gnAml2mqQ2aXzgxiBfm0L6AFtT36fZuFq+GBSjja+PS9K4PEEg/YXXjOE732useRxk2QfU92k2SWOAYsbq+zQlawy6O4ZvTJuk9vxjxOBjhbFy67yrMeN+CgppA5L6pfGVpHGUnmoDfJpL0th6vAZp9z8mF94uXUB9mdyQu3LxlFmx9krnozJ7l7XG8N1MgJOBpB1CsTX1fZqNq+WLQXfbpPGBG4N8bXqqj4+kcdL+1YOQ3kb/eIHvf9skbc/q+zSluzHI0kd9n6b0dgx8mk3SGPxjBAH47c9Z1okuaIj310K2wULaaJy2nU1ftvER6mcnE6CQ4zWTC2+XLqC+zLnlgvQxa4zpzV84GXA/HDtO4wM3BvnaFKOPxrbutgFpx7EpRhtfH5d8fZhUkFJBk4xV8baq2Nu0+j5N6c04jQ/6OnbJ157zBgnRaAzbywnWifDyPOcCStY2aXyQbxylkH6FtnEJjWMnFLq/gUL3OSYX3i5dQD2Ti36KfQMYTgbsD0l9n2bjavli0N026ucbx41BX/XxkW8cnhyQUsSeV/SmUt22823zvRmr79OUrDHo7hi+MW3ytee8QbKy3NiJ1gmy8qqz/9rk2w41tvVCxgHF6pd2bBe7jT5ExabY+xqTC2+XLqCeyUU/pzdu/ipGH41t3W0D0o5jU4w2vj4uafrw5IAMBOx5pSnelkHW/ci3j3RnDPV9mtLbMfBpNvnG4LxBisUyY9i+5nhOpF+x9mVgb4fq59tW3Rj0VBuQpp8L2iQlEqCn9jEmF94uXUA9k4sSQr/WoNg3gOXbQX0fcnfbqJ9vnHwxKEabNH18JI1jX1IFmLx4YkAGEva8onNKvn2rp2JbL3QMpdixS7729tzBeYP0FPVxCU72nHArLyWcL4A0239vtgHuE0tt3B+l7a39i8mFt0sXUN9xQ7cNfvyF9F9w8xewbwDDzV+F7sT52oRiW3fbgLTj2PREHx9JfdyTAoUnB2Qg495U6ptTihmr79OUfDHI2idr7JLU3jd3cN4gfUGdMXvbPDXhRN3meef8z7c/JO0DSlIb39NJfTzpmYP6+smlTC68XbqA+rLN8ZUL/QBRHu754Jlw9E98N38t83xW7g6aLwa2pn7WcdwYFKNNmj4uSX2YUBDSSYOxpDkl3/6YFKvv05SejkGaNjah9kwoSKnyYlza2/YZnvO/YoOkwUcpPKWUyYW3SxdQX7bJ+lqUOnap/lHWBsdEo/+S9eavtLGt5+sDitGm0HFd3Da9cdMXIQOF0JxS7xwH8u2bGtt62j5KT8cubj3nDkIGN6WeXCx9YZ+sWrdf9u2C7ZP9u3P+xe88XC696MioTWePrn01dNSDQH2UXOgEmrY8Jp5gmWT0f5YZw+eW7+Yv/WyB+3krWWPQE32AT7PR+r666YuQgcqrcenOKTqf2Pum+j5NcWOQr02xYxetd+cPzh2EDG5KNbnY39wuTy4/YCa3IdLW2ibNe5vlwL4Dsm9Pc+Q3N7fKsceMihKMzuSh04uIQ0c9CNSXveX5WpRbhuqOiyde/LL0lJxL+jlpbv5KuvHLjUEx2hQ6rhK68cs+GQA8ISCkuOickm8+yToHZI1BIX1AmvmDcwchpBSTi51722XVhhZZvq5F3nPmOJl25PCops1MiCbPEGQB9y5dLy+8tFne8bZD5dS5E2TkiKFR3y7EoaMeBOqj5EInXJS2n7Y8Pp6Y8aNvU3MuKTFejktQrBu/8sUgX5u0N37hyRE2fX3TFyGDCRzkOo8k2ecTey7JNydkjdPMIZw/CCFpKLXkYn+zREnFY68ckC9+YJKMHzMk0jWxAChbW0WefGaT/OyWV+S6RSfLcceNNgnGsFwDJUty8aaTXITKNG30l6Xxo2/Tci4ZIPDGL0JICDe5yAfmk96aS3xzCOcPQkghlFpy8WjdAdm4tU0+cuEEGTd6iAwxui+xaDHl3n1tsvq13VL5o+fk81fMkrPPPDTXSInH7HiNAKgv2xgfEXSiR2n7aUvb1x9n4j0ZhBAy8MmaXBBCSClSSskFbt4ePnSYnDpj1EFfhUIZ+Ugs4uQC5R6TYLz48hZ5/rk35Iy54+XSi46K+kVkSC6G4HDgGvCVSQa0xC9Jw/DjTO4PvxFCCCGEEEJ6DjwVCjdvI7HA+XlHYoGrFXEy0dxiLC4PmLJ9yBCZM/cwef2N/bJ23Z7cQAUQffnKTQ5Q+gwkla7h115hTDAIIYQQQgjpHfCIWTwJCufjSCyQTERJRZxYHHASiyjRgG+suxeivVcuYMBXJhnwlfilVyYYhBBCCCGE9DzR71jsPZC7UmGSB5TR1QrLkFREFicVkZkYyUh3iJIL4Ct9BgoplzPBIIQQQgghpMfZv2u/SS6aO69WGENC0WISiI6rFFZysR8xrDmXiHSHjq9F+QwklSEDvnIZEwxCCCGEEEJ6FHwtav+e5uhqhX3Fwr5SoV+Dsg1tinLlwpcIaJlkwFcm1b3KBIMQQgghhJAe4+J3Hi4tJlPAD+RFSUWcOHQkEvCbYz22XbtbZOm9K+XUk8bKGadOikfKTpevRfkMFFIm1dUzwSCEEEIIIaRHuOSiI+W4Y0bJSy9vlqef3SS797Z1JhhxkhF9FQoJhom3bt0v9XVvybaNW+XCdxwqp3c3uVADSWXIgK9MqgP1cUkIIYQQQggpHkgwzn/7oXLLra/I2td2dyYYMJNUINGA4YpFY8MW+e+lDfLlz82Sk04YH49QGAc9ijbJgK8spK7uepGTefWCEEIIIYSQHuHUuRPkG4tOln/5l+ek7pUtnfdfxE+Pgv33o2tl9bL18v2bz5AJE3I/uNcdDnoULSikLKTuZX49ihBCCCGEkB5hxIihMuW40fK5K2ZJ3fNvyD//6Bn5yT89I/9a9Yzc8pNn5LafPyNjh+2Xj354ikyeNEKGDsn3G9z5yfwoWhjwlfnq1IDtE0IIIYQQQooPEoyzz5wsZ546Xk6fM0bOPHmMnDV3jJx96hg5x9jbzprY7a9C2ZStbs/9Dp990p+mBIXUueWpN4q8eL0p45gQQkhpUVZWJvGhhBBCBizbt2+PveIwfPhwqaysjCORDy94f1T+ruYe+dLCqyLf5d777peTT5gazbtHTz8lVnN0XHM42Ik46JqE5yJFp+RUxqGnSxdQf9A9F2nLfHVqIKl8wSQWp/GrUYQQQgghhJQ8B91z4TPgK5PqtHR915QX4pIQQgghhBBSmiTec6FloXVaqoF8JSGEEEIIIaQ06fhalBrwlfnq1EBS6bPnrhc5k1+NIoQQQgghpKQZckdVhdxR22TcWrmjokKuq6qSNSZaHZftTVWyuKlJHjHxYlN/V1WtPFpbJY+ZLkgMpKlW7or6dyYLQH3XQKgkhBBCCCGElC5DLp8/R5oaRB6uqJHp1dVy03yRX1Y1yZr6elmNFo31sqKxXC5YuFCmmXDawnlyfEO9rGpskrUmbpcGWWH624mCGkhbEkIIIYQQQkqb6GtRXSifLVLfKO9aNEceqKiQb9XURbIvKVhdVSE3LMnFwNcmZMAtCSGEEEIIIaVLxw3dFywQub+iVu6sqJGZi+ZJe/lCubG6Wm5YMNeTDNTJPTWVsrReZIbJRXKa34CvdDVCCCGEEEJIaVPWYP3ykXvC70sA8rXJWgL459xoyutzMSGEkNKBP6JHCBkM8Ef0vF26gPqDnhalhwdfmVSnZciAr1SfEEIIIYQQUtp4f+fCp2mZz4CvDNUB2yeEEEIIIYSUJh1XLtzSp3W3DGnn3ijyJL8SRQghhBBCSEmT+AvdSXVahgz4SlcjhBBCCCGEDAyi5MI94bfLfAZ8ZagOhHxCCCGEEEJI6dLlhm5QzDKfBjvvRpG/XC9ybqQSQgghhBBCSpUuX4uy/VAZMuArXQ3YPiGEEEIIIaRnaG5tl5dW7pWnlu2SJ17eIX9+fps88vRWWfqXzXLfn9+SPz20Uf5w/wapqV0v//nHdfIfNa/Jv/3nGrnrN6vkjl+vjEdJz0E3dOcz4CtDdSCff15cEkIIIYQQQorD3v3t8tqbB2Tb7lbZuqtNtuxsk03bW+WtbS3y5qZmeePNZlm/sVnWvbFf1r6+X1av3ScrVu+VxpV75C/PbJU7MycXIv8/9F9rcrtjd1oAAAAASUVORK5CYII=;" vertex="1" parent="1">
          <mxGeometry x="-40" y="-460" width="791" height="303" as="geometry" />
        </mxCell>
      </root>
    </mxGraphModel>
  </diagram>
</mxfile>
